<svg id="visual" viewBox="0 0 900 600" width="900" height="600" xmlns="http://www.w3.org/2000/svg" xmlns:xlink="http://www.w3.org/1999/xlink" version="1.1"><path d="M0 476L21.5 479C43 482 86 488 128.8 481C171.7 474 214.3 454 257.2 457.8C300 461.7 343 489.3 385.8 496.7C428.7 504 471.3 491 514.2 477.2C557 463.3 600 448.7 642.8 455.8C685.7 463 728.3 492 771.2 486.2C814 480.3 857 439.7 878.5 419.3L900 399L900 601L878.5 601C857 601 814 601 771.2 601C728.3 601 685.7 601 642.8 601C600 601 557 601 514.2 601C471.3 601 428.7 601 385.8 601C343 601 300 601 257.2 601C214.3 601 171.7 601 128.8 601C86 601 43 601 21.5 601L0 601Z" fill="#FFBD1A" stroke-linecap="round" stroke-linejoin="miter"></path></svg>