<svg width="68" height="68" viewBox="0 0 68 68" fill="none" xmlns="http://www.w3.org/2000/svg">
<path d="M61.68 1H6.35001C3.39528 1 1 3.39527 1 6.34999V61.68C1 64.6347 3.39528 67.03 6.35001 67.03H61.68C64.6347 67.03 67.03 64.6347 67.03 61.68V6.34999C67.03 3.39527 64.6347 1 61.68 1Z" fill="#FFF6D9" stroke="#FCDC77" stroke-miterlimit="10"/>
<path d="M21.2509 18.1123C21.2509 18.1123 21.5009 11.6823 14.5709 12.0123C6.01093 12.4323 3.22093 24.1423 14.1309 26.0123L21.2509 18.1123Z" fill="#B8794D"/>
<path d="M19.6109 19.0721C19.6402 18.5171 19.5462 17.9626 19.3355 17.4483C19.1248 16.9341 18.8027 16.4729 18.3925 16.0981C17.9822 15.7232 17.494 15.4439 16.9629 15.2803C16.4318 15.1168 15.871 15.073 15.321 15.1521C9.82096 15.4221 8.03095 22.9421 15.0309 24.1521L19.6109 19.0721Z" fill="#F9A66C"/>
<path d="M46.2409 18.1123C46.2409 18.1123 45.9909 11.6823 52.9209 12.0123C61.4809 12.4323 64.2709 24.1423 53.3609 26.0123L46.2409 18.1123Z" fill="#B8794D"/>
<path d="M47.8809 19.0721C47.8516 18.5171 47.9457 17.9626 48.1564 17.4483C48.367 16.9341 48.6891 16.4729 49.0993 16.0981C49.5096 15.7232 49.9978 15.4439 50.5289 15.2803C51.0601 15.1168 51.6208 15.073 52.1709 15.1521C57.6709 15.4221 59.4609 22.9421 52.4609 24.1521L47.8809 19.0721Z" fill="#F9A66C"/>
<path d="M33.7509 54.882C47.442 54.882 58.5409 45.5158 58.5409 33.962C58.5409 22.4082 47.442 13.042 33.7509 13.042C20.0597 13.042 8.96088 22.4082 8.96088 33.962C8.96088 45.5158 20.0597 54.882 33.7509 54.882Z" fill="#B8794D"/>
<path d="M33.7509 54.882C47.442 54.882 58.5409 45.5158 58.5409 33.962C58.5409 22.4082 47.442 13.042 33.7509 13.042C20.0597 13.042 8.96088 22.4082 8.96088 33.962C8.96088 45.5158 20.0597 54.882 33.7509 54.882Z" fill="#B8794D"/>
<path d="M33.7509 55.7222C46.1718 55.7222 56.2409 51.9256 56.2409 47.2422C56.2409 42.5588 46.1718 38.7622 33.7509 38.7622C21.3301 38.7622 11.2609 42.5588 11.2609 47.2422C11.2609 51.9256 21.3301 55.7222 33.7509 55.7222Z" fill="#B8794D"/>
<path d="M33.7509 55.7222C46.1718 55.7222 56.2409 51.9256 56.2409 47.2422C56.2409 42.5588 46.1718 38.7622 33.7509 38.7622C21.3301 38.7622 11.2609 42.5588 11.2609 47.2422C11.2609 51.9256 21.3301 55.7222 33.7509 55.7222Z" fill="#B8794D"/>
<path d="M46.8009 41.012C46.6512 41.008 46.5042 40.9704 46.3709 40.902C33.5109 34.222 21.2609 40.822 21.1409 40.902C21.035 40.9634 20.918 41.003 20.7966 41.0186C20.6752 41.0341 20.5519 41.0253 20.434 40.9926C20.316 40.96 20.2058 40.9041 20.1097 40.8283C20.0136 40.7525 19.9336 40.6582 19.8744 40.5511C19.8152 40.444 19.778 40.3262 19.7649 40.2045C19.7518 40.0828 19.7631 39.9597 19.7981 39.8425C19.8332 39.7252 19.8913 39.6161 19.9691 39.5216C20.0468 39.4271 20.1427 39.349 20.251 39.292C24.4449 37.2039 29.066 36.1172 33.751 36.1172C38.4359 36.1172 43.057 37.2039 47.251 39.292C47.4669 39.4049 47.6293 39.5988 47.7024 39.8313C47.7755 40.0638 47.7534 40.3158 47.6409 40.532C47.5612 40.6837 47.4397 40.8094 47.2909 40.8945C47.1421 40.9795 46.9721 41.0203 46.8009 41.012Z" fill="#834C38"/>
<path d="M40.2309 40.9122C39.4972 39.8702 38.5236 39.0199 37.3924 38.4329C36.2611 37.846 35.0054 37.5396 33.7309 37.5396C32.4565 37.5396 31.2007 37.846 30.0695 38.4329C28.9383 39.0199 27.9647 39.8702 27.2309 40.9122C24.8509 44.6522 21.4309 54.3222 31.2309 56.1822C32.7841 56.5071 34.3878 56.5071 35.941 56.1822C46.111 54.5222 42.6409 44.6922 40.2309 40.9122Z" fill="#F9A66C"/>
<path d="M33.7409 51.5121C33.6719 51.5121 33.6058 51.4847 33.5571 51.4359C33.5083 51.3872 33.4809 51.321 33.4809 51.2521V45.8721C33.4929 45.8106 33.5259 45.7552 33.5742 45.7154C33.6226 45.6756 33.6833 45.6538 33.7459 45.6538C33.8085 45.6538 33.8692 45.6756 33.9176 45.7154C33.9659 45.7552 33.9989 45.8106 34.0109 45.8721V51.2521C34.0083 51.322 33.9787 51.3881 33.9284 51.4366C33.878 51.4851 33.8108 51.5121 33.7409 51.5121Z" fill="#674238"/>
<path d="M30.371 54.4222C29.6823 54.4287 29.0095 54.215 28.4509 53.8122C27.8796 53.4437 27.4717 52.8697 27.3116 52.209C27.1516 51.5482 27.2516 50.8512 27.591 50.2622C27.6087 50.2326 27.6321 50.2068 27.6597 50.1863C27.6874 50.1658 27.7189 50.151 27.7523 50.1426C27.7857 50.1342 27.8205 50.1326 27.8546 50.1376C27.8886 50.1427 27.9214 50.1544 27.9509 50.1722C27.9805 50.1899 28.0063 50.2133 28.0268 50.2409C28.0473 50.2686 28.0621 50.3001 28.0705 50.3335C28.0789 50.3669 28.0806 50.4017 28.0755 50.4358C28.0704 50.4699 28.0587 50.5026 28.0409 50.5322C27.7662 51.0091 27.6878 51.5741 27.8221 52.1079C27.9565 52.6416 28.2932 53.1022 28.7609 53.3922C29.2104 53.6898 29.7319 53.8608 30.2704 53.8872C30.8088 53.9136 31.3445 53.7944 31.821 53.5421C32.3173 53.3074 32.7368 52.9365 33.0307 52.4727C33.3245 52.0089 33.4806 51.4712 33.4809 50.9222C33.4929 50.8607 33.5259 50.8053 33.5743 50.7655C33.6226 50.7257 33.6833 50.7039 33.746 50.7039C33.8086 50.7039 33.8693 50.7257 33.9176 50.7655C33.966 50.8053 33.9989 50.8607 34.0109 50.9222C34.0081 51.5746 33.8182 52.2125 33.4637 52.7602C33.1092 53.3079 32.605 53.7424 32.0109 54.0122C31.5022 54.2709 30.9416 54.411 30.371 54.4222Z" fill="#674238"/>
<path d="M37.1209 54.4222C36.5368 54.4171 35.9617 54.2768 35.4409 54.0122C34.8469 53.7424 34.3427 53.3079 33.9882 52.7602C33.6337 52.2125 33.4438 51.5746 33.4409 50.9222C33.4529 50.8607 33.4859 50.8053 33.5342 50.7655C33.5826 50.7257 33.6433 50.7039 33.7059 50.7039C33.7685 50.7039 33.8292 50.7257 33.8776 50.7655C33.9259 50.8053 33.9589 50.8607 33.9709 50.9222C33.9712 51.4712 34.1273 52.0089 34.4212 52.4727C34.7151 52.9365 35.1346 53.3074 35.6309 53.5422C36.1074 53.7944 36.643 53.9136 37.1815 53.8872C37.72 53.8608 38.2414 53.6898 38.6909 53.3922C39.1607 53.1039 39.499 52.6433 39.6335 52.1088C39.7681 51.5744 39.6882 51.0085 39.4109 50.5322C39.3751 50.4725 39.3645 50.401 39.3813 50.3335C39.3982 50.266 39.4412 50.208 39.5009 50.1722C39.5606 50.1364 39.632 50.1257 39.6996 50.1426C39.7671 50.1595 39.8251 50.2025 39.8609 50.2622C40.2003 50.8512 40.3003 51.5482 40.1402 52.209C39.9802 52.8697 39.5723 53.4437 39.0009 53.8122C38.4528 54.2057 37.7957 54.4189 37.1209 54.4222Z" fill="#674238"/>
<path d="M37.3609 44.362C37.2909 43.242 34.8909 43.232 33.7409 43.292C32.5909 43.352 30.2009 43.292 30.1209 44.362C30.0309 45.792 30.3309 47.702 33.6309 47.962C33.7139 47.9516 33.7979 47.9516 33.8809 47.962C37.1809 47.662 37.4609 45.752 37.3609 44.362Z" fill="#3B2920"/>
<path d="M24.2709 38.162C26.9163 38.162 29.0609 36.0175 29.0609 33.372C29.0609 30.7266 26.9163 28.582 24.2709 28.582C21.6255 28.582 19.4809 30.7266 19.4809 33.372C19.4809 36.0175 21.6255 38.162 24.2709 38.162Z" fill="white"/>
<path d="M24.2709 36.9423C26.2425 36.9423 27.8409 35.3439 27.8409 33.3723C27.8409 31.4006 26.2425 29.8022 24.2709 29.8022C22.2992 29.8022 20.7009 31.4006 20.7009 33.3723C20.7009 35.3439 22.2992 36.9423 24.2709 36.9423Z" fill="#62493E"/>
<path d="M27.2309 33.3623C27.2309 33.9556 27.055 34.5357 26.7253 35.029C26.3957 35.5224 25.9271 35.9069 25.379 36.1339C24.8308 36.361 24.2276 36.4204 23.6456 36.3047C23.0637 36.1889 22.5291 35.9032 22.1096 35.4836C21.69 35.0641 21.4043 34.5295 21.2885 33.9476C21.1728 33.3656 21.2322 32.7624 21.4593 32.2142C21.6863 31.6661 22.0709 31.1975 22.5642 30.8679C23.0576 30.5382 23.6376 30.3623 24.2309 30.3623C25.0265 30.3623 25.7896 30.6784 26.3522 31.241C26.9148 31.8036 27.2309 32.5667 27.2309 33.3623Z" fill="#312017"/>
<path d="M23.7109 31.9221C23.7083 32.0662 23.6492 32.2035 23.5463 32.3045C23.4434 32.4055 23.305 32.4621 23.1609 32.4621C23.029 32.4442 22.9081 32.3791 22.8206 32.2789C22.7331 32.1787 22.6849 32.0501 22.6849 31.9171C22.6849 31.784 22.7331 31.6555 22.8206 31.5553C22.9081 31.4551 23.029 31.39 23.1609 31.3721C23.2331 31.3721 23.3046 31.3863 23.3714 31.4139C23.4381 31.4416 23.4987 31.4821 23.5498 31.5332C23.6008 31.5842 23.6414 31.6449 23.669 31.7116C23.6966 31.7783 23.7109 31.8498 23.7109 31.9221Z" fill="white"/>
<path d="M22.1709 33.5823C22.3586 33.5823 22.5109 33.4301 22.5109 33.2423C22.5109 33.0546 22.3586 32.9023 22.1709 32.9023C21.9831 32.9023 21.8309 33.0546 21.8309 33.2423C21.8309 33.4301 21.9831 33.5823 22.1709 33.5823Z" fill="white"/>
<path d="M43.2309 38.162C45.8763 38.162 48.0209 36.0175 48.0209 33.372C48.0209 30.7266 45.8763 28.582 43.2309 28.582C40.5854 28.582 38.4409 30.7266 38.4409 33.372C38.4409 36.0175 40.5854 38.162 43.2309 38.162Z" fill="white"/>
<path d="M43.2309 36.9423C45.2026 36.9423 46.8009 35.3439 46.8009 33.3723C46.8009 31.4006 45.2026 29.8022 43.2309 29.8022C41.2592 29.8022 39.6609 31.4006 39.6609 33.3723C39.6609 35.3439 41.2592 36.9423 43.2309 36.9423Z" fill="#62493E"/>
<path d="M46.1809 33.3623C46.1809 33.9556 46.005 34.5357 45.6753 35.029C45.3457 35.5224 44.8771 35.9069 44.3289 36.1339C43.7808 36.361 43.1776 36.4204 42.5956 36.3047C42.0137 36.1889 41.4792 35.9032 41.0596 35.4836C40.64 35.0641 40.3543 34.5295 40.2386 33.9476C40.1228 33.3656 40.1822 32.7624 40.4093 32.2142C40.6363 31.6661 41.0208 31.1975 41.5142 30.8679C42.0075 30.5382 42.5876 30.3623 43.1809 30.3623C43.9766 30.3623 44.7396 30.6784 45.3022 31.241C45.8648 31.8036 46.1809 32.5667 46.1809 33.3623Z" fill="#312017"/>
<path d="M42.6609 31.9222C42.6609 32.0654 42.604 32.2028 42.5027 32.304C42.4014 32.4053 42.2641 32.4622 42.1209 32.4622C42.0431 32.4728 41.964 32.4665 41.8888 32.444C41.8137 32.4214 41.7442 32.3831 41.6851 32.3314C41.626 32.2798 41.5786 32.2161 41.5461 32.1447C41.5137 32.0732 41.4969 31.9957 41.4969 31.9172C41.4969 31.8387 41.5137 31.7611 41.5461 31.6897C41.5786 31.6182 41.626 31.5546 41.6851 31.503C41.7442 31.4513 41.8137 31.4129 41.8888 31.3904C41.964 31.3678 42.0431 31.3616 42.1209 31.3722C42.1926 31.3722 42.2637 31.3865 42.3299 31.4142C42.396 31.442 42.456 31.4827 42.5063 31.5339C42.5566 31.5851 42.5961 31.6458 42.6227 31.7125C42.6492 31.7791 42.6622 31.8504 42.6609 31.9222Z" fill="white"/>
<path d="M41.1309 33.5823C41.3187 33.5823 41.4709 33.4301 41.4709 33.2423C41.4709 33.0546 41.3187 32.9023 41.1309 32.9023C40.9431 32.9023 40.7909 33.0546 40.7909 33.2423C40.7909 33.4301 40.9431 33.5823 41.1309 33.5823Z" fill="white"/>
<path d="M46.8009 41.012C46.6512 41.008 46.5042 40.9704 46.3709 40.902C33.5109 34.222 21.2609 40.822 21.1409 40.902C21.035 40.9634 20.918 41.003 20.7966 41.0186C20.6752 41.0341 20.5519 41.0253 20.434 40.9926C20.316 40.96 20.2058 40.9041 20.1097 40.8283C20.0136 40.7525 19.9336 40.6582 19.8744 40.5511C19.8152 40.444 19.778 40.3262 19.7649 40.2045C19.7518 40.0828 19.7631 39.9597 19.7981 39.8425C19.8332 39.7252 19.8913 39.6161 19.9691 39.5216C20.0468 39.4271 20.1427 39.349 20.251 39.292C24.4449 37.2039 29.066 36.1172 33.751 36.1172C38.4359 36.1172 43.057 37.2039 47.251 39.292C47.4669 39.4049 47.6293 39.5988 47.7024 39.8313C47.7755 40.0638 47.7534 40.3158 47.6409 40.532C47.5612 40.6837 47.4397 40.8094 47.2909 40.8945C47.1421 40.9795 46.9721 41.0203 46.8009 41.012Z" fill="#834C38"/>
<path d="M40.2309 40.9122C39.4972 39.8702 38.5236 39.0199 37.3924 38.4329C36.2611 37.846 35.0054 37.5396 33.7309 37.5396C32.4565 37.5396 31.2007 37.846 30.0695 38.4329C28.9383 39.0199 27.9647 39.8702 27.2309 40.9122C24.8509 44.6522 21.4309 54.3222 31.2309 56.1822C32.7841 56.5071 34.3878 56.5071 35.941 56.1822C46.111 54.5222 42.6409 44.6922 40.2309 40.9122Z" fill="#F9A66C"/>
<path d="M33.7409 51.5121C33.6719 51.5121 33.6058 51.4847 33.5571 51.4359C33.5083 51.3872 33.4809 51.321 33.4809 51.2521V45.8721C33.4929 45.8106 33.5259 45.7552 33.5742 45.7154C33.6226 45.6756 33.6833 45.6538 33.7459 45.6538C33.8085 45.6538 33.8692 45.6756 33.9176 45.7154C33.9659 45.7552 33.9989 45.8106 34.0109 45.8721V51.2521C34.0083 51.322 33.9787 51.3881 33.9284 51.4366C33.878 51.4851 33.8108 51.5121 33.7409 51.5121Z" fill="#674238"/>
<path d="M30.371 54.4222C29.6823 54.4287 29.0095 54.215 28.4509 53.8122C27.8796 53.4437 27.4717 52.8697 27.3116 52.209C27.1516 51.5482 27.2516 50.8512 27.591 50.2622C27.6087 50.2326 27.6321 50.2068 27.6597 50.1863C27.6874 50.1658 27.7189 50.151 27.7523 50.1426C27.7857 50.1342 27.8205 50.1326 27.8546 50.1376C27.8886 50.1427 27.9214 50.1544 27.9509 50.1722C27.9805 50.1899 28.0063 50.2133 28.0268 50.2409C28.0473 50.2686 28.0621 50.3001 28.0705 50.3335C28.0789 50.3669 28.0806 50.4017 28.0755 50.4358C28.0704 50.4699 28.0587 50.5026 28.0409 50.5322C27.7662 51.0091 27.6878 51.5741 27.8221 52.1079C27.9565 52.6416 28.2932 53.1022 28.7609 53.3922C29.2104 53.6898 29.7319 53.8608 30.2704 53.8872C30.8088 53.9136 31.3445 53.7944 31.821 53.5421C32.3173 53.3074 32.7368 52.9365 33.0307 52.4727C33.3245 52.0089 33.4806 51.4712 33.4809 50.9222C33.4929 50.8607 33.5259 50.8053 33.5743 50.7655C33.6226 50.7257 33.6833 50.7039 33.746 50.7039C33.8086 50.7039 33.8693 50.7257 33.9176 50.7655C33.966 50.8053 33.9989 50.8607 34.0109 50.9222C34.0081 51.5746 33.8182 52.2125 33.4637 52.7602C33.1092 53.3079 32.605 53.7424 32.0109 54.0122C31.5022 54.2709 30.9416 54.411 30.371 54.4222Z" fill="#674238"/>
<path d="M37.1209 54.4222C36.5368 54.4171 35.9617 54.2768 35.4409 54.0122C34.8469 53.7424 34.3427 53.3079 33.9882 52.7602C33.6337 52.2125 33.4438 51.5746 33.4409 50.9222C33.4529 50.8607 33.4859 50.8053 33.5342 50.7655C33.5826 50.7257 33.6433 50.7039 33.7059 50.7039C33.7685 50.7039 33.8292 50.7257 33.8776 50.7655C33.9259 50.8053 33.9589 50.8607 33.9709 50.9222C33.9712 51.4712 34.1273 52.0089 34.4212 52.4727C34.7151 52.9365 35.1346 53.3074 35.6309 53.5422C36.1074 53.7944 36.643 53.9136 37.1815 53.8872C37.72 53.8608 38.2414 53.6898 38.6909 53.3922C39.1607 53.1039 39.499 52.6433 39.6335 52.1088C39.7681 51.5744 39.6882 51.0085 39.4109 50.5322C39.3751 50.4725 39.3645 50.401 39.3813 50.3335C39.3982 50.266 39.4412 50.208 39.5009 50.1722C39.5606 50.1364 39.632 50.1257 39.6996 50.1426C39.7671 50.1595 39.8251 50.2025 39.8609 50.2622C40.2003 50.8512 40.3003 51.5482 40.1402 52.209C39.9802 52.8697 39.5723 53.4437 39.0009 53.8122C38.4528 54.2057 37.7957 54.4189 37.1209 54.4222Z" fill="#674238"/>
<path d="M37.3609 44.362C37.2909 43.242 34.8909 43.232 33.7409 43.292C32.5909 43.352 30.2009 43.292 30.1209 44.362C30.0309 45.792 30.3309 47.702 33.6309 47.962C33.7139 47.9516 33.7979 47.9516 33.8809 47.962C37.1809 47.662 37.4609 45.752 37.3609 44.362Z" fill="#3B2920"/>
<path d="M24.2709 38.162C26.9163 38.162 29.0609 36.0175 29.0609 33.372C29.0609 30.7266 26.9163 28.582 24.2709 28.582C21.6255 28.582 19.4809 30.7266 19.4809 33.372C19.4809 36.0175 21.6255 38.162 24.2709 38.162Z" fill="white"/>
<path d="M24.2709 36.9423C26.2425 36.9423 27.8409 35.3439 27.8409 33.3723C27.8409 31.4006 26.2425 29.8022 24.2709 29.8022C22.2992 29.8022 20.7009 31.4006 20.7009 33.3723C20.7009 35.3439 22.2992 36.9423 24.2709 36.9423Z" fill="#62493E"/>
<path d="M27.2309 33.3623C27.2309 33.9556 27.055 34.5357 26.7253 35.029C26.3957 35.5224 25.9271 35.9069 25.379 36.1339C24.8308 36.361 24.2276 36.4204 23.6456 36.3047C23.0637 36.1889 22.5291 35.9032 22.1096 35.4836C21.69 35.0641 21.4043 34.5295 21.2885 33.9476C21.1728 33.3656 21.2322 32.7624 21.4593 32.2142C21.6863 31.6661 22.0709 31.1975 22.5642 30.8679C23.0576 30.5382 23.6376 30.3623 24.2309 30.3623C25.0265 30.3623 25.7896 30.6784 26.3522 31.241C26.9148 31.8036 27.2309 32.5667 27.2309 33.3623Z" fill="#312017"/>
<path d="M23.7109 31.9221C23.7083 32.0662 23.6492 32.2035 23.5463 32.3045C23.4434 32.4055 23.305 32.4621 23.1609 32.4621C23.029 32.4442 22.9081 32.3791 22.8206 32.2789C22.7331 32.1787 22.6849 32.0501 22.6849 31.9171C22.6849 31.784 22.7331 31.6555 22.8206 31.5553C22.9081 31.4551 23.029 31.39 23.1609 31.3721C23.2331 31.3721 23.3046 31.3863 23.3714 31.4139C23.4381 31.4416 23.4987 31.4821 23.5498 31.5332C23.6008 31.5842 23.6414 31.6449 23.669 31.7116C23.6966 31.7783 23.7109 31.8498 23.7109 31.9221Z" fill="white"/>
<path d="M22.1709 33.5823C22.3586 33.5823 22.5109 33.4301 22.5109 33.2423C22.5109 33.0546 22.3586 32.9023 22.1709 32.9023C21.9831 32.9023 21.8309 33.0546 21.8309 33.2423C21.8309 33.4301 21.9831 33.5823 22.1709 33.5823Z" fill="white"/>
<path d="M43.2309 38.162C45.8763 38.162 48.0209 36.0175 48.0209 33.372C48.0209 30.7266 45.8763 28.582 43.2309 28.582C40.5854 28.582 38.4409 30.7266 38.4409 33.372C38.4409 36.0175 40.5854 38.162 43.2309 38.162Z" fill="white"/>
<path d="M43.2309 36.9423C45.2026 36.9423 46.8009 35.3439 46.8009 33.3723C46.8009 31.4006 45.2026 29.8022 43.2309 29.8022C41.2592 29.8022 39.6609 31.4006 39.6609 33.3723C39.6609 35.3439 41.2592 36.9423 43.2309 36.9423Z" fill="#62493E"/>
<path d="M46.1809 33.3623C46.1809 33.9556 46.005 34.5357 45.6753 35.029C45.3457 35.5224 44.8771 35.9069 44.3289 36.1339C43.7808 36.361 43.1776 36.4204 42.5956 36.3047C42.0137 36.1889 41.4792 35.9032 41.0596 35.4836C40.64 35.0641 40.3543 34.5295 40.2386 33.9476C40.1228 33.3656 40.1822 32.7624 40.4093 32.2142C40.6363 31.6661 41.0208 31.1975 41.5142 30.8679C42.0075 30.5382 42.5876 30.3623 43.1809 30.3623C43.9766 30.3623 44.7396 30.6784 45.3022 31.241C45.8648 31.8036 46.1809 32.5667 46.1809 33.3623Z" fill="#312017"/>
<path d="M42.6609 31.9222C42.6609 32.0654 42.604 32.2028 42.5027 32.304C42.4014 32.4053 42.2641 32.4622 42.1209 32.4622C42.0431 32.4728 41.964 32.4665 41.8888 32.444C41.8137 32.4214 41.7442 32.3831 41.6851 32.3314C41.626 32.2798 41.5786 32.2161 41.5461 32.1447C41.5137 32.0732 41.4969 31.9957 41.4969 31.9172C41.4969 31.8387 41.5137 31.7611 41.5461 31.6897C41.5786 31.6182 41.626 31.5546 41.6851 31.503C41.7442 31.4513 41.8137 31.4129 41.8888 31.3904C41.964 31.3678 42.0431 31.3616 42.1209 31.3722C42.1926 31.3722 42.2637 31.3865 42.3299 31.4142C42.396 31.442 42.456 31.4827 42.5063 31.5339C42.5566 31.5851 42.5961 31.6458 42.6227 31.7125C42.6492 31.7791 42.6622 31.8504 42.6609 31.9222Z" fill="white"/>
<path d="M41.1309 33.5823C41.3187 33.5823 41.4709 33.4301 41.4709 33.2423C41.4709 33.0546 41.3187 32.9023 41.1309 32.9023C40.9431 32.9023 40.7909 33.0546 40.7909 33.2423C40.7909 33.4301 40.9431 33.5823 41.1309 33.5823Z" fill="white"/>
<path d="M21.2709 27.0723C21.1921 27.0724 21.1152 27.0479 21.0509 27.0023C20.9648 26.9453 20.9048 26.8563 20.8842 26.7551C20.8636 26.6539 20.884 26.5486 20.9409 26.4623C21.4375 25.7682 22.1769 25.2862 23.0125 25.1121C23.848 24.9379 24.7184 25.0844 25.4509 25.5223C25.5425 25.5713 25.6115 25.654 25.6432 25.7529C25.6749 25.8518 25.6669 25.9592 25.6209 26.0523C25.5976 26.0986 25.5654 26.1398 25.526 26.1735C25.4866 26.2072 25.4409 26.2327 25.3916 26.2485C25.3422 26.2644 25.2902 26.2702 25.2386 26.2657C25.187 26.2612 25.1368 26.2465 25.0909 26.2223C24.5335 25.8679 23.8616 25.7398 23.2129 25.8644C22.5641 25.9889 21.9875 26.3566 21.6009 26.8923C21.5655 26.9477 21.5167 26.9933 21.459 27.0247C21.4013 27.0562 21.3366 27.0726 21.2709 27.0723Z" fill="#5F372A"/>
<path d="M46.1809 27.0723C46.1152 27.0726 46.0505 27.0562 45.9928 27.0247C45.9351 26.9933 45.8863 26.9477 45.8509 26.8923C45.4644 26.3566 44.8877 25.9889 44.239 25.8644C43.5902 25.7398 42.9184 25.8679 42.3609 26.2223C42.315 26.2465 42.2649 26.2612 42.2132 26.2657C42.1616 26.2702 42.1096 26.2644 42.0602 26.2485C42.0109 26.2327 41.9652 26.2072 41.9258 26.1735C41.8864 26.1398 41.8542 26.0986 41.8309 26.0523C41.7849 25.9592 41.7769 25.8518 41.8086 25.7529C41.8403 25.654 41.9093 25.5713 42.0009 25.5223C42.7334 25.0844 43.6039 24.9379 44.4394 25.1121C45.2749 25.2862 46.0143 25.7682 46.5109 26.4623C46.5678 26.5486 46.5883 26.6539 46.5676 26.7551C46.547 26.8563 46.487 26.9453 46.4009 27.0023C46.3366 27.0479 46.2597 27.0724 46.1809 27.0723Z" fill="#5F372A"/>
</svg>
