<svg width="67" height="69" viewBox="0 0 67 69" fill="none" xmlns="http://www.w3.org/2000/svg">
<path d="M65.9872 63.5157L66.4989 6.03794C66.5208 3.57485 64.5418 1.56035 62.0788 1.53843L6.05097 1.0397C3.58788 1.01777 1.57338 2.99672 1.55145 5.45982L1.03982 62.9375C1.01789 65.4006 2.99685 67.4151 5.45994 67.4371L61.4877 67.9358C63.9508 67.9577 65.9653 65.9788 65.9872 63.5157Z" fill="#FFF6D9"/>
<g style="mix-blend-mode:multiply">
<path d="M61.1205 67.8598C62.3468 67.7477 63.4949 67.2088 64.3647 66.3372C65.2345 65.4655 65.771 64.3164 65.8806 63.0898L61.1205 67.8598Z" fill="#FFEEC0"/>
<path d="M59.3306 35.0298L26.8806 67.5898L35.2706 67.6698L66.1606 36.6698L66.2306 28.0898L59.3306 35.0298Z" fill="#FFEEC0"/>
<path d="M55.4305 21.79L9.88055 67.43L19.5906 67.53L20.4806 66.64L66.2805 20.64L66.3705 10.71L55.4305 21.79Z" fill="#FFEEC0"/>
<path d="M59.5706 1.5L1.00054 60.29V61.97C0.987572 62.8809 1.20656 63.7802 1.63691 64.5832C2.06726 65.3861 2.69483 66.0664 3.46055 66.56L6.71055 63.29L65.7105 4.11C65.258 3.33005 64.6113 2.6806 63.8332 2.22495C63.055 1.7693 62.1722 1.52299 61.2706 1.51L59.5706 1.5Z" fill="#FFEEC0"/>
<path d="M31.0706 11.3401L1.17055 41.3401L1.07056 52.8501L52.3105 1.42006L41.0506 1.31006L31.0706 11.3401Z" fill="#FFEEC0"/>
<path d="M1.36053 20.5399L1.24054 33.9199L33.7805 1.24988L20.5505 1.12988C14.1705 7.61655 7.77387 14.0865 1.36053 20.5399Z" fill="#FFEEC0"/>
<path d="M13.3205 1.06L6.79054 1C6.09238 1.00131 5.40132 1.14029 4.75693 1.40898C4.11254 1.67767 3.52747 2.0708 3.03519 2.56587C2.54291 3.06093 2.15308 3.64822 1.88803 4.29412C1.62298 4.94001 1.48791 5.63184 1.49054 6.33L1.42053 13.09C5.40053 9.09 9.36721 5.08 13.3205 1.06Z" fill="#FFEEC0"/>
<path d="M42.5405 67.7899L53.8005 67.8999L66.0005 55.6599L66.1005 44.1499L42.5405 67.7899Z" fill="#FFEEC0"/>
</g>
<g style="mix-blend-mode:multiply">
<path d="M66.4012 5.38978C66.3107 4.1609 65.7934 3.00234 64.9387 2.11476C64.084 1.22718 62.9457 0.666487 61.7211 0.529785L66.4012 5.38978Z" fill="#FFEEC0"/>
<path d="M34.2812 7.22016L66.1311 40.3902L66.2112 31.8102C56.0978 21.2835 45.9911 10.7568 35.8911 0.230156L27.4911 0.160156L34.2812 7.22016Z" fill="#FFEEC0"/>
<path d="M21.2911 11.21C36.1845 26.73 51.0811 42.2433 65.9811 57.75L66.0711 47.82L65.2011 46.91L20.2011 0.0900002L10.4811 0L21.2911 11.21Z" fill="#FFEEC0"/>
<path d="M1.48114 6.98L58.9911 66.86H60.6411C61.5424 66.8651 62.4295 66.6354 63.215 66.1936C64.0006 65.7517 64.6575 65.1129 65.1212 64.34L61.8911 61.03L4.04114 0.75C3.26648 1.22814 2.62665 1.89603 2.18217 2.69049C1.7377 3.48494 1.50329 4.37967 1.50114 5.29L1.48114 6.98Z" fill="#FFEEC0"/>
<path d="M11.1112 36.1199L40.4612 66.6799L51.7211 66.7899L1.41116 14.3999L1.31116 25.9099L11.1112 36.1199Z" fill="#FFEEC0"/>
<path d="M20.1112 66.4898L33.2012 66.6098L1.20117 33.3398L1.08118 46.8698C7.46118 53.3898 13.8045 59.9298 20.1112 66.4898Z" fill="#FFEEC0"/>
<path d="M1.06116 54.2598L1.00116 60.9298C0.986565 61.6284 1.10977 62.3231 1.36372 62.9742C1.61768 63.6252 1.99741 64.2199 2.48123 64.7241C2.96505 65.2284 3.54348 65.6324 4.18347 65.913C4.82347 66.1937 5.51249 66.3455 6.21117 66.3598L12.8212 66.4198C8.91449 62.3598 4.99449 58.3064 1.06116 54.2598Z" fill="#FFEEC0"/>
<path d="M66.2812 24.3798L66.3811 12.8698L54.3811 0.409804L43.1212 0.299805L66.2812 24.3798Z" fill="#FFEEC0"/>
</g>
<path d="M0.000560576 61.57L0.500561 5.92C0.497928 5.14352 0.648596 4.37416 0.94392 3.65603C1.23924 2.93789 1.67341 2.28512 2.22154 1.73514C2.76967 1.18515 3.42096 0.748769 4.13809 0.451016C4.85522 0.153264 5.62407 -4.46119e-06 6.40055 0L60.8306 0.51C62.392 0.544148 63.8766 1.1939 64.9611 2.31773C66.0456 3.44155 66.642 4.94839 66.6206 6.51L66.1206 62.16C66.1219 62.9361 65.9703 63.7049 65.6745 64.4224C65.3787 65.14 64.9445 65.7922 64.3966 66.3419C63.8488 66.8917 63.198 67.3281 62.4814 67.6263C61.7649 67.9245 60.9967 68.0787 60.2205 68.08L5.79055 67.57C4.22917 67.5359 2.74454 66.8861 1.66005 65.7623C0.575556 64.6385 -0.0209177 63.1316 0.000560576 61.57ZM65.4405 6.57C65.4647 5.31981 64.9917 4.11114 64.1255 3.20932C63.2594 2.30751 62.0707 1.78626 60.8206 1.76L6.39056 1.24C5.77072 1.24131 5.1572 1.3647 4.58505 1.60311C4.01289 1.84153 3.4933 2.1903 3.05593 2.62953C2.61857 3.06875 2.27201 3.58981 2.03602 4.16297C1.80003 4.73613 1.67924 5.35016 1.68055 5.97L1.18055 61.62C1.16971 62.8626 1.64826 64.0595 2.51277 64.952C3.37727 65.8446 4.5583 66.3611 5.80056 66.39L60.2306 66.9C60.8504 66.8987 61.4639 66.7753 62.0361 66.5369C62.6082 66.2985 63.1278 65.9497 63.5652 65.5105C64.0025 65.0713 64.3491 64.5502 64.5851 63.977C64.8211 63.4039 64.9419 62.7898 64.9405 62.17L65.4405 6.57Z" fill="#FFD255"/>
</svg>
