<svg width="68" height="68" viewBox="0 0 68 68" fill="none" xmlns="http://www.w3.org/2000/svg">
<path d="M61.68 1H6.35001C3.39528 1 1 3.39527 1 6.34999V61.68C1 64.6347 3.39528 67.03 6.35001 67.03H61.68C64.6347 67.03 67.03 64.6347 67.03 61.68V6.34999C67.03 3.39527 64.6347 1 61.68 1Z" fill="#FFF6D9" stroke="#FCDC77" stroke-miterlimit="10"/>
<path d="M24.1225 15.512C24.1225 15.512 17.5325 15.922 12.6225 12.792C5.39245 8.17203 2.15245 25.192 13.0625 27.052L24.1225 15.512Z" fill="#313032"/>
<path d="M10.1724 14.602C9.56048 15.1812 9.10486 15.9057 8.84786 16.7082C8.59087 17.5106 8.54083 18.365 8.70241 19.192C8.81442 20.1843 9.10941 21.1472 9.57241 22.032C10.038 22.8465 10.6721 23.5522 11.4324 24.102C12.2699 24.745 13.2293 25.2111 14.2524 25.472L14.5524 25.532L24.1524 15.532C20.9333 15.6488 17.7251 15.0937 14.7324 13.902C13.972 13.6439 13.1606 13.5728 12.3669 13.6946C11.5731 13.8165 10.8204 14.1277 10.1724 14.602Z" fill="#F9A66C"/>
<path d="M9.11244 12.5121C9.45496 12.7114 9.72742 13.0118 9.89244 13.3721C10.2336 14.1571 10.4819 14.9794 10.6324 15.8221C11.0931 17.6054 11.7645 19.3275 12.6324 20.9521C13.3303 22.3354 14.2798 23.5766 15.4324 24.612L24.1624 15.5121C24.1624 15.5121 17.5724 15.9221 12.6624 12.7921C12.1141 12.3648 11.4565 12.1007 10.7649 12.03C10.0734 11.9592 9.37594 12.0847 8.75244 12.3921C8.87727 12.4158 8.99835 12.4561 9.11244 12.5121Z" fill="#464547"/>
<path d="M43.2825 15.512C43.2825 15.512 49.8725 15.922 54.7825 12.792C62.0125 8.17203 65.2525 25.192 54.3425 27.052L43.2825 15.512Z" fill="#313032"/>
<path d="M57.2225 14.602C57.8362 15.1803 58.2937 15.9043 58.5525 16.7068C58.8112 17.5093 58.8628 18.3642 58.7025 19.192C58.5905 20.1843 58.2955 21.1473 57.8325 22.032C57.3724 22.8414 56.7493 23.5462 56.0025 24.102C55.165 24.7451 54.2056 25.2112 53.1825 25.472L52.8825 25.532L43.2825 15.532C46.5016 15.6486 49.7097 15.0934 52.7025 13.902C53.4572 13.6507 54.2611 13.5832 55.0472 13.7049C55.8333 13.8266 56.5791 14.1342 57.2225 14.602Z" fill="#F9A66C"/>
<path d="M58.2925 12.5123C57.9474 12.7084 57.674 13.0097 57.5125 13.3723C57.1698 14.1637 56.9214 14.9928 56.7725 15.8423C56.3118 17.6256 55.6404 19.3477 54.7725 20.9722C54.078 22.3438 53.1393 23.5773 52.0025 24.6122L43.2725 15.5123C43.2725 15.5123 49.8625 15.9223 54.7725 12.7923C55.3193 12.3659 55.9752 12.1022 56.6649 12.0315C57.3547 11.9607 58.0505 12.0858 58.6725 12.3923C58.5409 12.4147 58.4131 12.4551 58.2925 12.5123Z" fill="#464547"/>
<path d="M33.7025 55.402C47.3936 55.402 58.4925 46.0358 58.4925 34.482C58.4925 22.9282 47.3936 13.562 33.7025 13.562C20.0113 13.562 8.91248 22.9282 8.91248 34.482C8.91248 46.0358 20.0113 55.402 33.7025 55.402Z" fill="#181719"/>
<path d="M33.7024 53.3723C46.7308 53.3723 57.2924 44.4628 57.2924 33.4723C57.2924 22.4818 46.7308 13.5723 33.7024 13.5723C20.674 13.5723 10.1124 22.4818 10.1124 33.4723C10.1124 44.4628 20.674 53.3723 33.7024 53.3723Z" fill="#464547"/>
<path d="M46.7524 41.2121C46.6064 41.2133 46.4623 41.179 46.3324 41.1121C33.4624 34.4221 21.2124 41.0321 21.0924 41.1121C20.9869 41.1854 20.8671 41.2359 20.7409 41.2601C20.6147 41.2843 20.4848 41.2818 20.3596 41.2528C20.2344 41.2238 20.1166 41.1688 20.0139 41.0915C19.9113 41.0141 19.826 40.9161 19.7635 40.8038C19.701 40.6915 19.6627 40.5673 19.6512 40.4393C19.6396 40.3113 19.655 40.1823 19.6964 40.0606C19.7377 39.9389 19.8041 39.8272 19.8913 39.7327C19.9785 39.6383 20.0844 39.5631 20.2024 39.5121C22.808 38.1873 25.5999 37.2668 28.4824 36.7821C34.8448 35.5848 41.4248 36.5419 47.1824 39.5021C47.289 39.557 47.3837 39.6325 47.4611 39.7241C47.5384 39.8157 47.5969 39.9217 47.6331 40.036C47.6694 40.1503 47.6827 40.2707 47.6723 40.3901C47.6618 40.5096 47.6279 40.6258 47.5724 40.7321C47.4915 40.8784 47.3727 41.0003 47.2284 41.0847C47.0841 41.1692 46.9196 41.2132 46.7524 41.2121Z" fill="#272628"/>
<path d="M40.1924 38.4923C39.5881 37.286 38.6601 36.2717 37.5121 35.5628C36.3642 34.854 35.0416 34.4785 33.6924 34.4785C32.3432 34.4785 31.0207 34.854 29.8727 35.5628C28.7248 36.2717 27.7967 37.286 27.1924 38.4923C24.8124 42.9423 21.3924 54.4923 31.1924 56.6623C32.7359 57.0748 34.3574 57.0988 35.9124 56.7323C46.0624 54.6823 42.5924 42.9823 40.1924 38.4923Z" fill="#F9A66C"/>
<path d="M33.7024 52.0321C33.6396 52.0357 33.5777 52.0164 33.528 51.9778C33.4784 51.9392 33.4444 51.8839 33.4324 51.8221V46.4521C33.4311 46.4172 33.4368 46.3823 33.4493 46.3496C33.4618 46.3169 33.4807 46.287 33.505 46.2618C33.5292 46.2366 33.5584 46.2165 33.5906 46.2028C33.6228 46.1891 33.6574 46.1821 33.6924 46.1821C33.7623 46.1847 33.8284 46.2143 33.8769 46.2647C33.9254 46.315 33.9525 46.3822 33.9524 46.4521V51.8221C33.941 51.8804 33.91 51.9331 33.8645 51.9713C33.819 52.0095 33.7618 52.031 33.7024 52.0321Z" fill="#674238"/>
<path d="M30.3225 54.9422C29.6379 54.9523 28.9683 54.742 28.4125 54.3422C27.8387 53.9735 27.4285 53.3985 27.2666 52.7359C27.1047 52.0734 27.2035 51.374 27.5425 50.7822C27.5608 50.7532 27.5847 50.7282 27.6127 50.7085C27.6407 50.6887 27.6724 50.6748 27.7058 50.6673C27.7393 50.6599 27.7739 50.6591 27.8076 50.6651C27.8414 50.6711 27.8736 50.6837 27.9025 50.7022C27.9333 50.7187 27.9604 50.7414 27.9819 50.7689C28.0035 50.7965 28.019 50.8283 28.0275 50.8622C28.0359 50.8961 28.0372 50.9315 28.0312 50.9659C28.0252 51.0004 28.012 51.0332 27.9925 51.0622C27.7192 51.5388 27.6425 52.1032 27.7789 52.6354C27.9152 53.1676 28.2537 53.6257 28.7225 53.9122C29.1773 54.2038 29.7011 54.3699 30.2409 54.3934C30.7806 54.417 31.317 54.2972 31.7955 54.0463C32.2739 53.7954 32.6774 53.4223 32.9649 52.9649C33.2525 52.5075 33.4138 51.9821 33.4325 51.4422C33.4325 51.3732 33.4599 51.3071 33.5086 51.2584C33.5574 51.2096 33.6235 51.1822 33.6925 51.1822C33.7614 51.1822 33.8276 51.2096 33.8763 51.2584C33.9251 51.3071 33.9525 51.3732 33.9525 51.4422C33.9479 52.0955 33.7574 52.734 33.4032 53.283C33.049 53.832 32.5458 54.2687 31.9525 54.5422C31.446 54.796 30.8889 54.9327 30.3225 54.9422Z" fill="#674238"/>
<path d="M37.0825 54.942C36.4958 54.9416 35.9172 54.8046 35.3925 54.542C34.8085 54.2613 34.3157 53.8215 33.9707 53.273C33.6257 52.7246 33.4426 52.0899 33.4425 51.442C33.4425 51.373 33.4699 51.3069 33.5187 51.2581C33.5674 51.2094 33.6335 51.182 33.7025 51.182C33.7715 51.182 33.8376 51.2094 33.8864 51.2581C33.9351 51.3069 33.9625 51.373 33.9625 51.442C33.9801 51.9834 34.1412 52.5106 34.4293 52.9694C34.7173 53.4283 35.1221 53.8024 35.6021 54.0536C36.0821 54.3048 36.6202 54.4241 37.1614 54.3992C37.7027 54.3743 38.2276 54.2061 38.6825 53.912C39.1553 53.629 39.4972 53.1709 39.6339 52.6372C39.7706 52.1034 39.691 51.5373 39.4125 51.062C39.394 51.0331 39.3814 51.0009 39.3754 50.9671C39.3695 50.9334 39.3702 50.8988 39.3776 50.8653C39.3851 50.8319 39.399 50.8002 39.4188 50.7722C39.4385 50.7441 39.4635 50.7203 39.4925 50.702C39.5523 50.6641 39.6247 50.6513 39.6939 50.6663C39.7631 50.6812 39.8236 50.7228 39.8625 50.782C40.1991 51.3743 40.2965 52.0729 40.1347 52.7348C39.973 53.3966 39.5643 53.9716 38.9925 54.342C38.4367 54.7417 37.7671 54.9521 37.0825 54.942Z" fill="#674238"/>
<path d="M38.8325 46.002C38.7325 44.412 35.3225 44.3921 33.7025 44.4821C32.0825 44.3921 28.7025 44.412 28.5625 46.002C28.4325 48.002 28.8625 50.742 33.5625 51.102H33.9325C38.5725 50.742 38.9625 48.032 38.8325 46.002Z" fill="#3B2920"/>
<path d="M29.0125 33.6821C29.0125 34.6295 28.7316 35.5556 28.2052 36.3433C27.6789 37.131 26.9308 37.7449 26.0556 38.1075C25.1803 38.47 24.2172 38.5649 23.288 38.3801C22.3588 38.1952 21.5054 37.739 20.8355 37.0691C20.1656 36.3992 19.7094 35.5457 19.5245 34.6166C19.3397 33.6874 19.4346 32.7243 19.7971 31.849C20.1597 30.9738 20.7736 30.2257 21.5613 29.6993C22.349 29.173 23.2751 28.8921 24.2225 28.8921C24.8515 28.8921 25.4744 29.016 26.0556 29.2567C26.6367 29.4974 27.1647 29.8503 27.6095 30.295C28.0543 30.7398 28.4072 31.2679 28.6479 31.849C28.8886 32.4302 29.0125 33.0531 29.0125 33.6821Z" fill="white"/>
<path d="M27.8025 33.6821C27.8025 34.3901 27.5925 35.0823 27.1991 35.671C26.8057 36.2597 26.2466 36.7186 25.5925 36.9896C24.9383 37.2605 24.2185 37.3314 23.524 37.1933C22.8296 37.0551 22.1917 36.7142 21.691 36.2135C21.1903 35.7128 20.8494 35.0749 20.7112 34.3805C20.5731 33.686 20.644 32.9662 20.915 32.3121C21.1859 31.6579 21.6448 31.0988 22.2335 30.7054C22.8222 30.312 23.5144 30.1021 24.2225 30.1021C24.693 30.1007 25.1591 30.1924 25.594 30.3719C26.029 30.5513 26.4241 30.815 26.7568 31.1477C27.0895 31.4804 27.3532 31.8756 27.5326 32.3105C27.7121 32.7454 27.8038 33.2116 27.8025 33.6821Z" fill="#62493E"/>
<path d="M27.1825 33.6724C27.1825 34.2657 27.0065 34.8457 26.6769 35.3391C26.3473 35.8324 25.8787 36.2169 25.3305 36.444C24.7824 36.6711 24.1792 36.7305 23.5972 36.6147C23.0153 36.499 22.4807 36.2132 22.0612 35.7937C21.6416 35.3741 21.3559 34.8396 21.2401 34.2576C21.1244 33.6757 21.1838 33.0725 21.4109 32.5243C21.6379 31.9761 22.0224 31.5076 22.5158 31.1779C23.0091 30.8483 23.5891 30.6724 24.1825 30.6724C24.9781 30.6724 25.7412 30.9884 26.3038 31.551C26.8664 32.1136 27.1825 32.8767 27.1825 33.6724Z" fill="#312017"/>
<path d="M23.6625 32.2221C23.6731 32.2999 23.6669 32.379 23.6443 32.4541C23.6218 32.5293 23.5834 32.5988 23.5317 32.6579C23.4801 32.717 23.4165 32.7644 23.345 32.7968C23.2736 32.8293 23.196 32.8461 23.1175 32.8461C23.039 32.8461 22.9615 32.8293 22.89 32.7968C22.8186 32.7644 22.7549 32.717 22.7033 32.6579C22.6516 32.5988 22.6133 32.5293 22.5907 32.4541C22.5682 32.379 22.5619 32.2999 22.5725 32.2221C22.5904 32.0902 22.6555 31.9694 22.7557 31.8819C22.8559 31.7943 22.9845 31.7461 23.1175 31.7461C23.2506 31.7461 23.3791 31.7943 23.4793 31.8819C23.5795 31.9694 23.6446 32.0902 23.6625 32.2221Z" fill="white"/>
<path d="M22.1325 33.8919C22.3203 33.8919 22.4725 33.7397 22.4725 33.5519C22.4725 33.3641 22.3203 33.2119 22.1325 33.2119C21.9447 33.2119 21.7925 33.3641 21.7925 33.5519C21.7925 33.7397 21.9447 33.8919 22.1325 33.8919Z" fill="white"/>
<path d="M47.9624 33.6821C47.9624 34.6299 47.6813 35.5564 47.1545 36.3443C46.6277 37.1322 45.879 37.7462 45.0032 38.1084C44.1273 38.4707 43.1637 38.5649 42.2343 38.3793C41.3048 38.1937 40.4514 37.7365 39.7819 37.0656C39.1124 36.3947 38.657 35.5402 38.4733 34.6104C38.2896 33.6806 38.3859 32.7172 38.7499 31.8421C39.114 30.967 39.7295 30.2196 40.5185 29.6945C41.3076 29.1694 42.2346 28.8901 43.1824 28.8921C43.811 28.8921 44.4334 29.0161 45.014 29.2569C45.5946 29.4977 46.122 29.8507 46.566 30.2956C47.01 30.7406 47.3618 31.2687 47.6015 31.8498C47.8411 32.4309 47.9638 33.0535 47.9624 33.6821Z" fill="white"/>
<path d="M46.7525 33.6821C46.7525 34.3905 46.5422 35.0831 46.1484 35.672C45.7546 36.261 45.1949 36.7198 44.5402 36.9905C43.8854 37.2612 43.1651 37.3315 42.4704 37.1925C41.7756 37.0536 41.1378 36.7116 40.6375 36.2099C40.1372 35.7083 39.797 35.0695 39.66 34.3743C39.523 33.6792 39.5954 32.9591 39.8679 32.3051C40.1404 31.6511 40.6008 31.0927 41.1908 30.7005C41.7808 30.3084 42.474 30.1001 43.1825 30.1021C43.6521 30.1021 44.1172 30.1947 44.551 30.3748C44.9847 30.5548 45.3787 30.8187 45.7104 31.1512C46.042 31.4838 46.3048 31.8785 46.4836 32.3128C46.6624 32.7471 46.7538 33.2124 46.7525 33.6821Z" fill="#62493E"/>
<path d="M46.1425 33.6724C46.1425 34.2657 45.9665 34.8457 45.6369 35.3391C45.3072 35.8324 44.8387 36.2169 44.2905 36.444C43.7423 36.6711 43.1391 36.7305 42.5572 36.6147C41.9752 36.499 41.4407 36.2132 41.0211 35.7937C40.6016 35.3741 40.3159 34.8396 40.2001 34.2576C40.0843 33.6757 40.1438 33.0725 40.3708 32.5243C40.5979 31.9761 40.9824 31.5076 41.4757 31.1779C41.9691 30.8483 42.5491 30.6724 43.1425 30.6724C43.9381 30.6724 44.7012 30.9884 45.2638 31.551C45.8264 32.1136 46.1425 32.8767 46.1425 33.6724Z" fill="#312017"/>
<path d="M42.6225 32.2221C42.6225 32.368 42.5645 32.5079 42.4614 32.611C42.3582 32.7142 42.2183 32.7721 42.0725 32.7721C41.9283 32.7695 41.791 32.7104 41.69 32.6075C41.589 32.5047 41.5324 32.3663 41.5325 32.2221C41.5325 32.0789 41.5894 31.9416 41.6906 31.8403C41.7919 31.739 41.9293 31.6821 42.0725 31.6821C42.2166 31.6821 42.355 31.7387 42.4579 31.8397C42.5607 31.9407 42.6199 32.078 42.6225 32.2221Z" fill="white"/>
<path d="M41.0824 33.8919C41.2702 33.8919 41.4224 33.7397 41.4224 33.5519C41.4224 33.3641 41.2702 33.2119 41.0824 33.2119C40.8947 33.2119 40.7424 33.3641 40.7424 33.5519C40.7424 33.7397 40.8947 33.8919 41.0824 33.8919Z" fill="white"/>
<path d="M22.7224 28.4319C22.7224 28.4319 27.3124 29.8519 28.9424 32.8919C29.3024 33.5819 27.9024 24.9319 22.7224 28.4319Z" fill="#272628"/>
<path d="M44.5624 28.4319C44.5624 28.4319 39.9724 29.8519 38.3424 32.8919C37.9724 33.5819 39.4324 24.9319 44.5624 28.4319Z" fill="#272628"/>
</svg>
