<svg width="68" height="68" viewBox="0 0 68 68" fill="none" xmlns="http://www.w3.org/2000/svg">
<path d="M61.68 1H6.35001C3.39528 1 1 3.39527 1 6.34999V61.68C1 64.6347 3.39528 67.03 6.35001 67.03H61.68C64.6347 67.03 67.03 64.6347 67.03 61.68V6.34999C67.03 3.39527 64.6347 1 61.68 1Z" fill="#FFF6D9" stroke="#FCDC77" stroke-miterlimit="10"/>
<path d="M26.998 21.6676C26.408 19.8976 25.498 18.2276 25.058 16.4076C24.998 16.1676 24.118 12.4676 23.658 12.9676C23.4682 13.1879 23.3222 13.4425 23.228 13.7176C23.0652 14.2451 22.9909 14.7958 23.008 15.3476C23.0191 15.9146 23.0759 16.4798 23.178 17.0376C23.338 17.8476 23.628 18.6276 23.808 19.4276C23.7315 19.3756 23.6611 19.3152 23.598 19.2476C23.434 19.0735 23.2804 18.8898 23.1381 18.6976C22.1381 17.3976 20.328 16.6976 18.968 15.8476C17.5486 14.9931 16.2813 13.9082 15.218 12.6376C14.6821 11.9645 14.2474 11.2165 13.928 10.4176C13.678 9.75759 13.708 8.5776 13.118 8.1176C13.118 8.1176 12.978 8.1176 12.928 8.1176C12.6945 8.33527 12.5137 8.60331 12.3993 8.90135C12.285 9.19939 12.2401 9.5196 12.268 9.8376C12.268 10.1376 12.268 10.4276 12.268 10.7276C12.268 11.0276 12.348 11.4376 12.378 11.7976L12.188 11.5576C12.0273 11.3784 11.8535 11.2112 11.668 11.0576C10.098 9.7576 8.55805 8.7876 7.66805 6.8376C7.46805 6.3776 6.96803 4.69759 6.23803 5.04759C6.11124 5.12475 6.00501 5.23145 5.92839 5.35857C5.85178 5.48568 5.80704 5.62946 5.79802 5.7776C5.41802 8.0976 6.79802 10.3276 8.29802 11.9376C9.95956 13.6221 11.816 15.1026 13.828 16.3476C16.068 17.8076 18.418 19.0976 20.728 20.4576C21.9088 21.0725 22.961 21.9074 23.828 22.9176C24.538 23.8476 24.718 26.0576 25.968 26.3476C26.3618 26.4346 26.765 26.4716 27.168 26.4576C27.3623 26.455 27.5562 26.4383 27.748 26.4076C28.098 26.3576 27.428 23.4076 27.378 23.1176C27.2855 22.626 27.1585 22.1414 26.998 21.6676Z" fill="#875A38"/>
<path d="M6.46805 6.07762C6.65136 6.42414 6.78596 6.7943 6.86804 7.17763C7.02685 7.63198 7.25269 8.06003 7.53806 8.44762C7.8293 8.89319 8.1643 9.3086 8.53806 9.68764C9.27424 10.4246 10.0891 11.0785 10.968 11.6376C11.758 12.1676 12.438 12.8476 13.188 13.4176C13.0396 12.8004 12.7822 12.2145 12.428 11.6876C12.428 11.7376 12.428 11.7876 12.428 11.8376L12.238 11.5976C12.0773 11.4184 11.9035 11.2512 11.718 11.0976C10.148 9.79761 8.60805 8.82764 7.71805 6.87764C7.51805 6.41764 7.01806 4.73763 6.28806 5.08763C6.18299 5.14417 6.09229 5.22404 6.02295 5.32112C5.9536 5.4182 5.90747 5.52991 5.88806 5.64763C6.12538 5.71943 6.33037 5.87142 6.46805 6.07762Z" fill="#5C3C20"/>
<path d="M13.3581 10.2377C13.3906 10.5778 13.461 10.9132 13.5681 11.2377C13.6707 11.536 13.7944 11.8268 13.9381 12.1077C14.2069 12.6509 14.5429 13.1582 14.9381 13.6177C15.8195 14.55 16.8297 15.3515 17.9381 15.9977L19.9381 17.2677C20.5781 17.6977 21.1981 18.1477 21.8081 18.6177C22.3972 19.0108 22.9524 19.4523 23.4681 19.9377C23.6424 20.1411 23.7996 20.3585 23.9381 20.5877C24.0466 20.775 24.2061 20.9277 24.3981 21.0277C24.4345 20.3845 24.2473 19.7485 23.8681 19.2277C23.8081 19.1277 23.7481 19.0277 23.6781 18.9277C23.7281 19.0877 23.7681 19.2577 23.8081 19.4277C23.7316 19.3757 23.6612 19.3153 23.5981 19.2477C23.4341 19.0735 23.2805 18.8899 23.1381 18.6977C22.1381 17.3977 20.3281 16.6977 18.9681 15.8477C17.5487 14.9931 16.2813 13.9083 15.2181 12.6377C14.6821 11.9646 14.2475 11.2166 13.9281 10.4177C13.6781 9.75766 13.7081 8.57768 13.1181 8.11768C13.1181 8.11768 12.9881 8.11768 12.9281 8.11768C13.2106 8.78883 13.3568 9.50948 13.3581 10.2377Z" fill="#5C3C20"/>
<path d="M27.4081 23.1376C27.3066 22.6385 27.1696 22.1472 26.9981 21.6676C26.4081 19.8976 25.4981 18.2276 25.0581 16.4076C24.8115 15.2435 24.4289 14.1123 23.9181 13.0376C23.8388 14.0072 23.9371 14.9832 24.2081 15.9176C24.4981 16.9776 24.9181 17.9976 25.3081 19.0176C25.7223 20.0573 26.0566 21.1271 26.3081 22.2176C26.6027 23.6199 26.7734 25.0454 26.8181 26.4776H27.1881C27.3824 26.475 27.5762 26.4583 27.768 26.4276C28.128 26.3776 27.4681 23.4076 27.4081 23.1376Z" fill="#5C3C20"/>
<path d="M42.3081 21.6676C42.9081 19.8976 43.8181 18.2276 44.3081 16.4076C44.3681 16.1676 45.2481 12.4676 45.7081 12.9676C45.8944 13.1904 46.0399 13.4443 46.1381 13.7176C46.3023 14.2446 46.3733 14.7962 46.3481 15.3476C46.347 15.9151 46.29 16.4812 46.1781 17.0376C46.0281 17.8476 45.738 18.6276 45.548 19.4276C45.6276 19.3757 45.7014 19.3153 45.7681 19.2476C45.9317 19.0759 46.0822 18.892 46.2181 18.6976C47.2181 17.3976 49.0381 16.6976 50.3881 15.8476C51.8125 14.996 53.0836 13.9108 54.1481 12.6376C54.6846 11.9666 55.1162 11.2181 55.4281 10.4176C55.6881 9.75759 55.6581 8.5776 56.2481 8.1176C56.2481 8.1176 56.3881 8.1176 56.4381 8.1176C56.6686 8.3371 56.8467 8.6057 56.9592 8.90346C57.0718 9.20122 57.1158 9.5205 57.0881 9.8376C57.1031 10.1341 57.1031 10.4311 57.0881 10.7276C57.0881 11.0876 57.0181 11.4376 56.9881 11.7976L57.1781 11.5576C57.3364 11.376 57.5104 11.2087 57.6981 11.0576C59.2681 9.7576 60.8081 8.7876 61.6981 6.8376C61.8981 6.3776 62.3981 4.69759 63.1281 5.04759C63.2549 5.12475 63.3611 5.23145 63.4377 5.35857C63.5143 5.48568 63.5591 5.62946 63.5681 5.7776C63.9481 8.0976 62.5681 10.3276 61.0681 11.9376C59.4065 13.6221 57.5501 15.1026 55.5381 16.3476C53.2881 17.8076 50.9381 19.0976 48.6381 20.4576C47.4294 21.0691 46.3524 21.9117 45.4681 22.9376C44.7681 23.8676 44.5881 26.0776 43.3381 26.3676C42.9442 26.4541 42.5411 26.4911 42.1381 26.4776C41.9438 26.4754 41.7499 26.4587 41.5581 26.4276C41.2081 26.3776 41.8781 23.4276 41.9281 23.1376C42.0242 22.6402 42.1511 22.1493 42.3081 21.6676Z" fill="#875A38"/>
<path d="M62.8881 6.07762C62.7123 6.42641 62.5813 6.79601 62.4981 7.17763C62.3352 7.63017 62.1096 8.05765 61.8281 8.44762C61.5368 8.89319 61.2019 9.3086 60.8281 9.68764C60.0975 10.4268 59.2857 11.0809 58.4081 11.6376C57.6181 12.1676 56.9381 12.8476 56.1881 13.4176C56.3366 12.8004 56.594 12.2145 56.9481 11.6876C56.9481 11.7376 56.9481 11.7876 56.9481 11.8376L57.1381 11.5976C57.2964 11.416 57.4704 11.2487 57.6581 11.0976C59.2281 9.79761 60.7681 8.82764 61.6581 6.87764C61.8581 6.41764 62.3581 4.73763 63.0881 5.08763C63.1932 5.14417 63.2839 5.22404 63.3532 5.32112C63.4226 5.4182 63.4687 5.52991 63.4881 5.64763C63.2442 5.71682 63.032 5.86887 62.8881 6.07762Z" fill="#5C3C20"/>
<path d="M55.9481 10.2374C55.9243 10.5779 55.8571 10.914 55.748 11.2374C55.6411 11.5341 55.5176 11.8246 55.378 12.1074C55.1092 12.6506 54.7733 13.1579 54.378 13.6174C53.4946 14.5475 52.4847 15.3487 51.378 15.9974C50.718 16.4174 50.058 16.8374 49.378 17.2674C48.698 17.6974 48.118 18.1474 47.498 18.6174C46.8944 19.03 46.3258 19.4915 45.798 19.9974C45.6238 20.2008 45.4666 20.4182 45.328 20.6474C45.2167 20.8325 45.0579 20.9845 44.868 21.0874C44.8441 20.4194 45.0565 19.7643 45.468 19.2374L45.658 18.9374C45.658 19.0974 45.568 19.2674 45.528 19.4374C45.6076 19.3855 45.6814 19.3252 45.748 19.2574C45.9117 19.0857 46.0621 18.9019 46.1981 18.7074C47.1981 17.4074 49.018 16.7074 50.368 15.8574C51.7925 15.0058 53.0636 13.9207 54.128 12.6474C54.6646 11.9765 55.0962 11.2279 55.408 10.4274C55.668 9.76743 55.6381 8.58744 56.2281 8.12744C56.2281 8.12744 56.358 8.12744 56.408 8.12744C56.1262 8.79648 55.9703 9.51178 55.9481 10.2374Z" fill="#5C3C20"/>
<path d="M41.9081 23.1376C42.0108 22.6398 42.1444 22.1488 42.3081 21.6676C42.9081 19.8976 43.8181 18.2276 44.3081 16.4076C44.5505 15.2436 44.9298 14.1124 45.4381 13.0376C45.5215 14.0073 45.4231 14.984 45.1481 15.9176C44.8402 16.9696 44.4763 18.0044 44.0581 19.0176C43.6438 20.0573 43.3095 21.1271 43.0581 22.2176C42.7634 23.6199 42.5927 25.0454 42.5481 26.4776H42.1781C41.9838 26.4754 41.7899 26.4587 41.5981 26.4276C41.1881 26.3776 41.8581 23.4076 41.9081 23.1376Z" fill="#5C3C20"/>
<path d="M45.0881 25.8679C45.9611 25.2333 46.7625 24.5057 47.4781 23.6978H47.4181C47.0815 23.6525 46.739 23.6867 46.4181 23.7978L46.0281 23.9478C46.3757 23.5509 46.6807 23.1185 46.9381 22.6579C46.9381 22.5879 46.9381 22.5179 46.9381 22.4879C46.5511 22.3439 46.1409 22.2727 45.7281 22.2779C45.4069 22.3161 45.0893 22.3796 44.7781 22.4679C45.0255 22.1491 45.2526 21.8151 45.4581 21.4679C44.9923 21.3844 44.5127 21.4258 44.0681 21.5879C43.7215 21.8177 43.3489 22.0057 42.9581 22.1479C42.9534 22.0646 42.9534 21.9811 42.9581 21.8979C42.9581 21.7279 43.0481 21.5579 43.0981 21.3779C43.2172 21.0761 43.2684 20.7517 43.2481 20.4279C43.1981 20.1479 42.1181 20.6779 41.8881 20.9279L41.4981 21.3779L41.3681 21.5078C41.2381 20.9878 41.1481 20.4478 41.0281 19.9178C41.0281 19.8178 40.8581 19.8578 40.8181 19.9178C40.7781 19.9778 40.4181 21.0079 40.3581 21.1479C40.1823 21.9289 40.0951 22.7273 40.0981 23.5279C40.2069 23.6683 40.3348 23.7928 40.4781 23.8979C40.7938 24.1288 41.1283 24.3328 41.4781 24.5078C41.8681 24.7178 42.2481 24.9579 42.6481 25.1779C43.0712 25.4387 43.5245 25.6469 43.9981 25.7978C44.3512 25.9046 44.7242 25.9286 45.0881 25.8679Z" fill="#C1733E"/>
<path d="M23.9081 25.8679C23.0351 25.2333 22.2337 24.5057 21.5181 23.6978H21.5781C21.9146 23.6525 22.2571 23.6867 22.5781 23.7978L22.9681 23.9478C22.6204 23.5509 22.3154 23.1185 22.0581 22.6579C22.0581 22.5879 22.0581 22.5179 22.0581 22.4879C22.445 22.3439 22.8552 22.2727 23.2681 22.2779C23.5892 22.3161 23.9069 22.3796 24.2181 22.4679C23.9707 22.1491 23.7436 21.8151 23.5381 21.4679C24.0039 21.3844 24.4835 21.4258 24.9281 21.5879C25.2746 21.8177 25.6472 22.0057 26.0381 22.1479C26.0428 22.0646 26.0428 21.9811 26.0381 21.8979C26.0381 21.7279 25.9481 21.5579 25.8981 21.3779C25.7789 21.0761 25.7277 20.7517 25.7481 20.4279C25.7981 20.1479 26.8781 20.6779 27.1081 20.9279L27.4981 21.3779L27.6281 21.5078C27.7581 20.9878 27.8481 20.4478 27.9681 19.9178C27.9681 19.8178 28.1381 19.8578 28.1781 19.9178C28.2181 19.9778 28.5781 21.0079 28.6381 21.1479C28.8139 21.9289 28.9011 22.7273 28.8981 23.5279C28.7892 23.6683 28.6613 23.7928 28.5181 23.8979C28.2024 24.1288 27.8679 24.3328 27.5181 24.5078C27.1281 24.7178 26.7481 24.9579 26.3481 25.1779C25.925 25.4387 25.4716 25.6469 24.9981 25.7978C24.645 25.9046 24.272 25.9286 23.9081 25.8679Z" fill="#C1733E"/>
<path d="M21.7081 26.3575C21.7081 26.3575 21.6581 25.4875 14.3781 23.4175C7.67807 21.5075 4.68807 19.0975 4.09807 22.4175C3.50807 25.7375 5.40807 37.2275 14.5281 36.0075C23.6481 34.7875 21.7081 26.3575 21.7081 26.3575Z" fill="#F9A66C"/>
<path d="M6.18811 26.7474C6.52227 27.9073 7.01707 29.0146 7.65811 30.0374C8.17346 30.8942 8.81768 31.6666 9.56812 32.3274C10.9375 33.3991 12.5495 34.1175 14.262 34.4192C15.9745 34.7209 17.735 34.5966 19.3881 34.0574C22.8181 31.1874 21.7081 26.3574 21.7081 26.3574C21.7081 26.3574 21.6581 25.4874 14.3781 23.4174C10.5581 22.3274 7.94812 21.0774 6.28812 20.8174C5.61069 22.7306 5.57558 24.8125 6.18811 26.7474Z" fill="#FBC1A1"/>
<path d="M21.7081 26.3576C21.7081 26.3576 21.6581 25.4876 14.3781 23.4176C8.68808 21.7976 5.66808 19.8176 4.52808 21.2776C7.26808 20.4276 15.1481 26.4576 15.2381 26.5376C14.8572 26.4681 14.4827 26.3678 14.1181 26.2376C13.9471 26.1881 13.7735 26.1481 13.5981 26.1176C14.1998 26.5133 14.6725 27.0764 14.9581 27.7376C14.9581 27.8276 14.1881 27.4976 13.8781 27.3476C13.6482 27.223 13.3974 27.1417 13.1381 27.1076C13.7054 27.617 14.1587 28.2407 14.4681 28.9376C14.9748 30.3441 15.2517 31.823 15.2881 33.3176C15.346 34.1476 15.4595 34.9728 15.6281 35.7876C23.4681 34.0576 21.7081 26.3576 21.7081 26.3576Z" fill="#BD8840"/>
<g style="mix-blend-mode:multiply" opacity="0.52">
<path d="M21.708 26.3575C21.708 26.3575 21.708 26.0875 20.398 25.4775C19.8292 25.8375 19.3026 26.2602 18.828 26.7375C17.351 28.2555 16.3141 30.1461 15.828 32.2076C15.6196 33.0795 15.5057 33.9713 15.488 34.8676C15.538 35.1776 15.5881 35.4875 15.6581 35.7875C23.4681 34.0575 21.708 26.3575 21.708 26.3575Z" fill="#A65934"/>
</g>
<path d="M46.7981 26.3575C46.7981 26.3575 46.8481 25.4875 54.1181 23.4175C60.8281 21.5075 63.8181 19.0975 64.3981 22.4175C64.9781 25.7375 63.0881 37.2375 53.9681 35.9875C44.8481 34.7375 46.7981 26.3575 46.7981 26.3575Z" fill="#F9A66C"/>
<path d="M62.3181 26.7479C61.9753 27.9046 61.481 29.0108 60.8481 30.0378C59.6052 31.9047 57.7805 33.3088 55.6576 34.0321C53.5347 34.7554 51.2323 34.7575 49.1081 34.0378C45.6781 31.1678 46.7981 26.3379 46.7981 26.3379C46.7981 26.3379 46.8481 25.4679 54.1181 23.3979C57.9481 22.3079 60.5581 21.0579 62.2081 20.7979C62.8984 22.7151 62.9371 24.8065 62.3181 26.7479Z" fill="#FBC1A1"/>
<path d="M46.798 26.3576C46.798 26.3576 46.848 25.4876 54.118 23.4176C59.818 21.7976 62.838 19.8176 63.968 21.2776C61.238 20.4276 53.348 26.4576 53.268 26.5376C53.6489 26.4681 54.0235 26.3678 54.3881 26.2376C54.5591 26.1881 54.7327 26.1481 54.908 26.1176C54.3038 26.5132 53.8278 27.076 53.5381 27.7376C53.5381 27.8276 54.308 27.4976 54.628 27.3476C54.8574 27.2217 55.1085 27.1403 55.368 27.1076C54.7905 27.6123 54.3298 28.2368 54.018 28.9376C53.5064 30.3428 53.2294 31.8225 53.1981 33.3176C53.1418 34.1483 53.0248 34.9739 52.848 35.7876C45.018 34.0576 46.798 26.3576 46.798 26.3576Z" fill="#BD8840"/>
<g style="mix-blend-mode:multiply" opacity="0.52">
<path d="M46.7981 26.3575C46.7981 26.3575 46.7981 26.0875 48.1081 25.4775C48.6734 25.8381 49.1967 26.2607 49.6681 26.7375C51.1526 28.2499 52.1908 30.1428 52.6681 32.2076C52.8814 33.0786 52.9955 33.9709 53.0081 34.8676C52.9669 35.1769 52.9101 35.4839 52.8381 35.7875C45.0181 34.0575 46.7981 26.3575 46.7981 26.3575Z" fill="#A65934"/>
</g>
<path d="M50.9481 30.8178C46.7681 21.8178 36.5681 21.9278 34.1381 22.0878C31.7081 21.9278 21.508 21.8578 17.328 30.8178C12.698 40.7578 20.8381 59.5678 33.6081 61.4578V61.5778H34.1381H34.6681V61.4578C47.4681 59.5678 55.5881 40.7578 50.9481 30.8178Z" fill="#986E31"/>
<path d="M49.828 30.2378C45.928 21.8678 36.4081 21.9378 34.1381 22.0778C31.8681 21.9378 22.3481 21.8678 18.4481 30.2378C14.1181 39.5178 21.718 57.0678 33.648 58.8378V58.9478H34.1381H34.628V58.8378C46.558 57.0678 54.158 39.5178 49.828 30.2378Z" fill="#BD8840"/>
<path d="M40.7781 49.6178C38.6781 46.9378 35.1281 46.8077 34.1381 46.8277C33.1481 46.8477 29.5981 46.9378 27.4981 49.6178C25.0581 52.7178 21.5581 60.7478 31.5781 62.2978C33.1734 62.5682 34.8028 62.5682 36.3981 62.2978C46.7881 60.9178 43.2481 52.7478 40.7781 49.6178Z" fill="#F9A66C"/>
<g style="mix-blend-mode:screen">
<path d="M34.1381 47.4878C35.1381 47.4878 38.678 47.5978 40.778 50.2778C42.2489 52.1194 43.1615 54.3438 43.408 56.6878C43.538 54.0578 42.028 51.1978 40.778 49.6178C38.678 46.9378 35.1281 46.8077 34.1381 46.8277C33.1481 46.8477 29.598 46.9378 27.498 49.6178C26.258 51.1978 24.738 54.0478 24.868 56.6778C25.1003 54.3264 26.0027 52.0912 27.468 50.2378C29.598 47.5978 33.1481 47.4678 34.1381 47.4878Z" fill="#F9A66C"/>
</g>
<path d="M34.1381 58.2377C34.0735 58.2302 34.0144 58.1977 33.9733 58.1473C33.9323 58.0969 33.9124 58.0325 33.9181 57.9677V55.3177C33.911 55.2842 33.9115 55.2495 33.9195 55.2162C33.9275 55.1829 33.9428 55.1519 33.9644 55.1252C33.9859 55.0986 34.0132 55.0772 34.0441 55.0624C34.075 55.0477 34.1088 55.04 34.1431 55.04C34.1773 55.04 34.2111 55.0477 34.2421 55.0624C34.273 55.0772 34.3002 55.0986 34.3218 55.1252C34.3433 55.1519 34.3587 55.1829 34.3667 55.2162C34.3747 55.2495 34.3752 55.2842 34.3681 55.3177V57.9677C34.3708 58.0006 34.367 58.0337 34.3569 58.065C34.3468 58.0964 34.3306 58.1255 34.3093 58.1506C34.2879 58.1757 34.2617 58.1963 34.2324 58.2112C34.203 58.2262 34.171 58.2352 34.1381 58.2377Z" fill="#674238"/>
<path d="M31.4681 59.6776C30.9597 59.6877 30.455 59.5888 29.9881 59.3876C29.7433 59.3044 29.5234 59.161 29.3486 58.9705C29.1739 58.78 29.0499 58.5486 28.9881 58.2976C28.9737 58.125 28.9956 57.9513 29.0524 57.7876C29.1093 57.624 29.1998 57.4741 29.3181 57.3476C29.3367 57.3227 29.3609 57.3026 29.3886 57.2887C29.4164 57.2748 29.447 57.2676 29.4781 57.2676C29.5091 57.2676 29.5397 57.2748 29.5675 57.2887C29.5953 57.3026 29.6194 57.3227 29.6381 57.3476C29.6811 57.4035 29.7043 57.472 29.7043 57.5426C29.7043 57.6131 29.6811 57.6817 29.6381 57.7376C29.5283 57.8578 29.4676 58.0148 29.4681 58.1776C29.4681 58.3076 29.6081 58.5776 30.2081 58.8476C30.7676 59.0677 31.3724 59.1482 31.9701 59.082C32.5677 59.0158 33.1403 58.8049 33.6381 58.4676C33.7478 58.3894 33.8388 58.2879 33.9045 58.1703C33.9702 58.0527 34.009 57.922 34.0181 57.7876C34.0109 57.7541 34.0114 57.7194 34.0195 57.6861C34.0275 57.6528 34.0428 57.6217 34.0643 57.5951C34.0859 57.5685 34.1132 57.547 34.1441 57.5323C34.175 57.5175 34.2088 57.5099 34.2431 57.5099C34.2773 57.5099 34.3111 57.5175 34.3421 57.5323C34.373 57.547 34.4002 57.5685 34.4218 57.5951C34.4433 57.6217 34.4587 57.6528 34.4667 57.6861C34.4747 57.7194 34.4752 57.7541 34.4681 57.7876C34.462 58.0073 34.4068 58.2229 34.3064 58.4185C34.206 58.614 34.0631 58.7846 33.8881 58.9176C33.1919 59.4399 32.3379 59.7081 31.4681 59.6776Z" fill="#674238"/>
<path d="M36.8481 59.6779C36.0025 59.7011 35.1729 59.4445 34.4881 58.9478C34.3144 58.8143 34.1729 58.6434 34.0743 58.4478C33.9756 58.2522 33.9222 58.0369 33.9181 57.8178C33.911 57.7843 33.9115 57.7497 33.9195 57.7164C33.9275 57.6831 33.9428 57.652 33.9644 57.6254C33.9859 57.5988 34.0132 57.5773 34.0441 57.5626C34.075 57.5478 34.1088 57.5402 34.1431 57.5402C34.1773 57.5402 34.2111 57.5478 34.2421 57.5626C34.273 57.5773 34.3002 57.5988 34.3218 57.6254C34.3433 57.652 34.3587 57.6831 34.3667 57.7164C34.3747 57.7497 34.3752 57.7843 34.3681 57.8178C34.375 57.9527 34.4128 58.0843 34.4787 58.2022C34.5446 58.3201 34.6368 58.4213 34.7481 58.4979C35.244 58.8351 35.8149 59.046 36.4109 59.1122C37.007 59.1784 37.6102 59.098 38.1681 58.8779C38.7681 58.6079 38.8981 58.3379 38.9081 58.2079C38.9121 58.1267 38.8991 58.0456 38.8698 57.9698C38.8406 57.894 38.7956 57.8252 38.7381 57.7679C38.6966 57.7113 38.6743 57.643 38.6743 57.5728C38.6743 57.5027 38.6966 57.4344 38.7381 57.3779C38.7567 57.353 38.7808 57.3329 38.8086 57.319C38.8364 57.3051 38.867 57.2979 38.8981 57.2979C38.9291 57.2979 38.9597 57.3051 38.9875 57.319C39.0153 57.3329 39.0394 57.353 39.0581 57.3779C39.1785 57.5029 39.2704 57.6526 39.3274 57.8166C39.3844 57.9806 39.4051 58.1551 39.3881 58.3279C39.3281 58.7679 38.9781 59.1378 38.3881 59.4178C37.9003 59.6174 37.3743 59.7062 36.8481 59.6779Z" fill="#674238"/>
<path d="M38.3981 53.0275C38.3181 51.7375 35.4881 51.7275 34.1381 51.7975C32.7881 51.8675 29.9581 51.7375 29.8781 53.0275C29.7681 54.6675 30.1181 56.8575 33.9981 57.1475H34.3081C38.1881 56.8575 38.4681 54.6675 38.3981 53.0275Z" fill="#3B2920"/>
<g style="mix-blend-mode:multiply" opacity="0.52">
<path d="M42.2381 44.8975C42.1094 44.8973 41.9825 44.8665 41.8681 44.8075C34.2581 40.8575 27.0481 44.7575 26.9781 44.8075C26.8883 44.8588 26.7893 44.8918 26.6866 44.9045C26.584 44.9172 26.4799 44.9094 26.3803 44.8814C26.2807 44.8535 26.1877 44.8061 26.1067 44.7419C26.0256 44.6777 25.9581 44.598 25.9081 44.5075C25.8565 44.4169 25.8234 44.3171 25.8106 44.2137C25.7977 44.1104 25.8055 44.0054 25.8334 43.9051C25.8613 43.8047 25.9087 43.7108 25.973 43.6288C26.0374 43.5469 26.1172 43.4785 26.2081 43.4275C28.7502 42.1473 31.5569 41.4805 34.4031 41.4805C37.2493 41.4805 40.056 42.1473 42.5981 43.4275C42.7542 43.5092 42.8786 43.6407 42.9514 43.8011C43.0242 43.9616 43.0412 44.1418 42.9998 44.313C42.9585 44.4843 42.861 44.6368 42.723 44.7464C42.585 44.8559 42.4143 44.9161 42.2381 44.9175V44.8975Z" fill="#A65934"/>
</g>
<path d="M30.3281 42.6778C30.3281 42.6778 30.8981 35.7478 24.9581 35.5078L20.0481 35.8378C20.0481 35.8378 20.8781 42.8378 25.7881 42.9978C30.6981 43.1578 30.3281 42.6778 30.3281 42.6778Z" fill="#3C3631"/>
<path d="M30.3281 42.6777C30.3281 42.6777 30.5381 36.5777 25.0281 36.3677L20.4281 36.8477C20.4281 36.8477 21.2081 42.8477 25.7581 42.9977C30.3081 43.1477 30.3281 42.6777 30.3281 42.6777Z" fill="white"/>
<mask id="mask0_110_52" style="mask-type:luminance" maskUnits="userSpaceOnUse" x="20" y="36" width="11" height="8">
<path d="M30.3281 42.6777C30.3281 42.6777 30.5381 36.5777 25.0281 36.3677L20.4281 36.8477C20.4281 36.8477 21.2081 42.8477 25.7581 42.9977C30.3081 43.1477 30.3281 42.6777 30.3281 42.6777Z" fill="white"/>
</mask>
<g mask="url(#mask0_110_52)">
<path d="M29.2782 40.1276C29.2782 40.8989 29.0494 41.6529 28.6209 42.2943C28.1924 42.9356 27.5833 43.4355 26.8706 43.7307C26.158 44.0259 25.3738 44.1031 24.6173 43.9526C23.8608 43.8021 23.1659 43.4307 22.6204 42.8853C22.075 42.3398 21.7036 41.6449 21.5531 40.8884C21.4026 40.1319 21.4799 39.3477 21.775 38.6351C22.0702 37.9224 22.5701 37.3134 23.2114 36.8848C23.8528 36.4563 24.6068 36.2275 25.3782 36.2275C26.4125 36.2275 27.4045 36.6385 28.1359 37.3698C28.8673 38.1012 29.2782 39.0932 29.2782 40.1276Z" fill="#62493E"/>
<path d="M25.3882 42.6377C26.7744 42.6377 27.8982 41.5139 27.8982 40.1277C27.8982 38.7415 26.7744 37.6177 25.3882 37.6177C24.0019 37.6177 22.8782 38.7415 22.8782 40.1277C22.8782 41.5139 24.0019 42.6377 25.3882 42.6377Z" fill="#312017"/>
<path d="M23.7882 39.4474C24.2963 39.4474 24.7082 39.0355 24.7082 38.5274C24.7082 38.0193 24.2963 37.6074 23.7882 37.6074C23.2801 37.6074 22.8682 38.0193 22.8682 38.5274C22.8682 39.0355 23.2801 39.4474 23.7882 39.4474Z" fill="white"/>
</g>
<path d="M38.7981 42.6778C38.7981 42.6778 38.2281 35.7478 44.1681 35.5078L49.0781 35.8378C49.0781 35.8378 48.2481 42.8378 43.3281 42.9978C38.4081 43.1578 38.7981 42.6778 38.7981 42.6778Z" fill="#3C3631"/>
<path d="M38.7981 42.6777C38.7981 42.6777 38.5881 36.5777 44.0981 36.3677L48.6881 36.8477C48.6881 36.8477 47.9181 42.8477 43.3581 42.9977C38.7981 43.1477 38.7981 42.6777 38.7981 42.6777Z" fill="white"/>
<mask id="mask1_110_52" style="mask-type:luminance" maskUnits="userSpaceOnUse" x="38" y="36" width="11" height="8">
<path d="M38.7981 42.6777C38.7981 42.6777 38.5881 36.5777 44.0981 36.3677L48.6881 36.8477C48.6881 36.8477 47.9181 42.8477 43.3581 42.9977C38.7981 43.1477 38.7981 42.6777 38.7981 42.6777Z" fill="white"/>
</mask>
<g mask="url(#mask1_110_52)">
<path d="M43.7481 44.0275C45.902 44.0275 47.6481 42.2814 47.6481 40.1275C47.6481 37.9736 45.902 36.2275 43.7481 36.2275C41.5942 36.2275 39.8481 37.9736 39.8481 40.1275C39.8481 42.2814 41.5942 44.0275 43.7481 44.0275Z" fill="#62493E"/>
<path d="M43.748 42.6377C45.1343 42.6377 46.258 41.5139 46.258 40.1277C46.258 38.7415 45.1343 37.6177 43.748 37.6177C42.3618 37.6177 41.238 38.7415 41.238 40.1277C41.238 41.5139 42.3618 42.6377 43.748 42.6377Z" fill="#312017"/>
<path d="M40.9981 38.5277C40.9961 38.7105 41.0487 38.8897 41.149 39.0426C41.2493 39.1954 41.3929 39.3149 41.5614 39.3857C41.7299 39.4566 41.9157 39.4757 42.0951 39.4405C42.2745 39.4053 42.4393 39.3175 42.5686 39.1882C42.6979 39.0589 42.7857 38.8941 42.8209 38.7147C42.856 38.5353 42.837 38.3495 42.7661 38.181C42.6952 38.0125 42.5758 37.8689 42.423 37.7686C42.2702 37.6683 42.0909 37.6158 41.9081 37.6177C41.6676 37.6203 41.4376 37.717 41.2675 37.8871C41.0974 38.0572 41.0007 38.2872 40.9981 38.5277Z" fill="white"/>
</g>
</svg>
