<svg width="68" height="68" viewBox="0 0 68 68" fill="none" xmlns="http://www.w3.org/2000/svg">
<path d="M61.68 1H6.35001C3.39528 1 1 3.39527 1 6.34999V61.68C1 64.6347 3.39528 67.03 6.35001 67.03H61.68C64.6347 67.03 67.03 64.6347 67.03 61.68V6.34999C67.03 3.39527 64.6347 1 61.68 1Z" fill="#FFF6D9" stroke="#FCDC77" stroke-miterlimit="10"/>
<path d="M27.6635 20.2096C27.5505 19.1593 27.3156 18.1257 26.9635 17.1296C26.7103 16.3732 26.3643 15.651 25.9335 14.9796C25.1694 14.3924 24.364 13.8611 23.5235 13.3896C22.2923 12.7335 20.9187 12.3901 19.5235 12.3896C18.0522 12.4194 16.6038 12.7602 15.2735 13.3896C13.9328 14.0397 12.6712 14.8416 11.5135 15.7796C10.269 16.794 9.09312 17.8898 7.99351 19.0596C7.41351 19.6596 6.83352 20.2696 6.25352 20.8596C5.99352 21.1196 5.74351 21.3696 5.46351 21.5996L4.69351 22.2197C4.16879 22.6008 3.71522 23.0713 3.35351 23.6096C3.17915 23.9089 3.06634 24.24 3.0217 24.5834C2.97705 24.9269 3.00147 25.2758 3.09352 25.6096C3.11422 25.7079 3.14094 25.8047 3.17352 25.8996C3.34136 26.2754 3.54567 26.6338 3.78352 26.9697C4.55803 28.1152 5.45682 29.1716 6.46351 30.1196C7.47643 31.0643 8.60953 31.8713 9.83351 32.5196C10.4518 32.8385 11.0859 33.1256 11.7335 33.3796C12.4035 33.6596 13.0735 33.9196 13.7335 34.1596C15.1407 34.6678 16.5995 35.0199 18.0835 35.2096C19.4855 35.4049 20.9135 35.2853 22.2635 34.8596C23.3903 34.4332 24.3672 33.6857 25.0735 32.7096C25.7801 31.7213 26.3268 30.6279 26.6935 29.4697C27.3443 27.4804 27.7178 25.4109 27.8035 23.3196C27.8361 22.2809 27.7893 21.2412 27.6635 20.2096Z" fill="#F8A8A0"/>
<path d="M5.74356 22.9796C6.74356 22.1196 7.63356 21.1496 8.54356 20.2096C8.97356 19.7696 9.41356 19.3396 9.88356 18.9296C10.3576 18.527 10.87 18.1719 11.4136 17.8696C12.7756 17.0226 14.3609 16.6045 15.9636 16.6696C16.7598 16.7495 17.5266 17.0131 18.2036 17.4397C18.8303 17.8485 19.3845 18.3588 19.8436 18.9496C20.6636 19.9496 21.3536 21.0396 22.0736 22.1196C23.4163 24.2872 25.0518 26.2591 26.9336 27.9796L27.1336 28.1396C27.2736 27.5796 27.3936 27.0196 27.4936 26.4596C27.6713 25.4683 27.7816 24.466 27.8236 23.4596C27.8652 22.3846 27.8217 21.3079 27.6936 20.2396C27.5806 19.1893 27.3456 18.1557 26.9936 17.1596C26.7332 16.3913 26.377 15.6589 25.9336 14.9796C25.1695 14.3924 24.364 13.8611 23.5236 13.3896C22.2924 12.7335 20.9187 12.3901 19.5236 12.3896C18.0522 12.4194 16.6038 12.7602 15.2736 13.3896C13.9328 14.0397 12.6712 14.8416 11.5136 15.7796C10.2691 16.794 9.09317 17.8898 7.99356 19.0596C7.41356 19.6596 6.83357 20.2696 6.25357 20.8596C5.99357 21.1196 5.74356 21.3696 5.46356 21.5996L4.69356 22.2197C4.16884 22.6008 3.71526 23.0713 3.35356 23.6096C3.1777 23.8995 3.06523 24.2232 3.02356 24.5596C4.03533 24.2393 4.96404 23.6998 5.74356 22.9796Z" fill="#A7BBC5"/>
<g style="mix-blend-mode:multiply">
<path d="M27.6635 20.2096C27.5505 19.1593 27.3156 18.1256 26.9635 17.1296C26.7103 16.3732 26.3643 15.651 25.9335 14.9796C25.5235 14.6796 25.1035 14.3796 24.6835 14.0996C24.0835 14.3496 23.4835 14.5996 22.8935 14.8696C22.0225 15.2601 21.2191 15.7867 20.5135 16.4296C19.1496 17.7477 18.0171 19.2858 17.1635 20.9796C16.2231 22.7022 15.5041 24.5368 15.0235 26.4396C14.5811 28.272 14.3861 30.1554 14.4435 32.0396C14.4435 32.8796 14.5435 33.7196 14.6435 34.5596C15.7685 34.9135 16.9232 35.1646 18.0935 35.3096C19.4956 35.5048 20.9235 35.3853 22.2735 34.9596C23.4003 34.5332 24.3773 33.7857 25.0835 32.8096C25.7901 31.8213 26.3368 30.7279 26.7035 29.5696C27.3543 27.5803 27.7278 25.5109 27.8135 23.4196C27.848 22.3473 27.7978 21.274 27.6635 20.2096Z" fill="#ABADB0"/>
</g>
<path d="M39.9335 20.2099C40.0562 19.1612 40.2908 18.1286 40.6335 17.1299C40.8781 16.3783 41.2139 15.6596 41.6335 14.9899C42.3995 14.4004 43.2084 13.8689 44.0535 13.3999C45.2841 12.7422 46.6582 12.3987 48.0535 12.3999C49.5279 12.431 50.9793 12.7717 52.3135 13.3999C53.6511 14.05 54.9094 14.852 56.0635 15.7899C57.3103 16.8017 58.4863 17.8976 59.5835 19.0699C60.1635 19.6699 60.7435 20.2799 61.3335 20.8699C61.5787 21.1317 61.8391 21.3789 62.1135 21.6099L62.8835 22.2299C63.4082 22.6111 63.8618 23.0816 64.2235 23.6199C64.3979 23.9192 64.5107 24.2502 64.5554 24.5937C64.6 24.9371 64.5756 25.286 64.4835 25.6199C64.4835 25.7199 64.4335 25.8199 64.4135 25.9099C64.2384 26.2839 64.0309 26.642 63.7935 26.9799C63.019 28.1255 62.1202 29.1819 61.1135 30.1299C60.1006 31.0746 58.9675 31.8816 57.7435 32.5299C57.1335 32.8499 56.4935 33.1299 55.8535 33.3899C55.2135 33.6499 54.5035 33.9299 53.8535 34.1699C52.4429 34.6781 50.9808 35.0302 49.4935 35.2199C48.0915 35.4151 46.6636 35.2956 45.3135 34.8699C44.1882 34.4409 43.2119 33.6939 42.5035 32.7199C41.8197 31.7615 41.2899 30.702 40.9335 29.5799C40.5919 28.5647 40.3278 27.5251 40.1435 26.4699C39.9642 25.479 39.8573 24.4763 39.8235 23.4699C39.768 22.3821 39.8048 21.2915 39.9335 20.2099Z" fill="#F8A8A0"/>
<path d="M61.8335 22.9797C60.8335 22.1197 59.9535 21.1497 59.0335 20.2097C58.6035 19.7697 58.1635 19.3397 57.6935 18.9297C57.2212 18.5248 56.7085 18.1696 56.1635 17.8697C54.8043 17.0246 53.2228 16.6066 51.6235 16.6697C50.8238 16.7477 50.0533 17.0114 49.3735 17.4397C48.7444 17.8575 48.19 18.3781 47.7335 18.9797C46.9235 19.9797 46.2235 21.0697 45.5035 22.1497C44.1692 24.3118 42.544 26.2803 40.6735 27.9997L40.4735 28.1597C40.3335 27.5997 40.2135 27.0397 40.1135 26.4797C39.9342 25.4888 39.8273 24.4861 39.7935 23.4797C39.7435 22.4049 39.7837 21.3278 39.9135 20.2597C40.0361 19.211 40.2708 18.1784 40.6135 17.1797C40.858 16.4282 41.1939 15.7094 41.6135 15.0397C42.3794 14.4502 43.1884 13.9187 44.0335 13.4497C45.2641 12.792 46.6382 12.4485 48.0335 12.4497C49.5079 12.4808 50.9593 12.8215 52.2935 13.4497C53.6311 14.0999 54.8893 14.9018 56.0435 15.8397C57.2902 16.8515 58.4663 17.9474 59.5635 19.1197C60.1435 19.7197 60.7235 20.3297 61.3135 20.9197C61.5587 21.1816 61.8191 21.4286 62.0935 21.6597L62.8635 22.2797C63.3882 22.6609 63.8418 23.1314 64.2035 23.6697C64.3838 23.9574 64.4966 24.2822 64.5335 24.6197C63.5235 24.2791 62.6014 23.719 61.8335 22.9797Z" fill="#A7BBC5"/>
<g style="mix-blend-mode:multiply">
<path d="M39.9335 20.2099C40.0562 19.1611 40.2908 18.1286 40.6335 17.1299C40.8781 16.3783 41.2139 15.6596 41.6335 14.9899C42.0435 14.6899 42.4635 14.3899 42.8835 14.1099C43.4835 14.3599 44.0935 14.6099 44.6835 14.8799C45.5516 15.2702 46.3517 15.7969 47.0535 16.4399C48.4273 17.7526 49.5699 19.2874 50.4335 20.9799C51.3782 22.7005 52.0975 24.5356 52.5735 26.4399C53.0159 28.2723 53.211 30.1557 53.1535 32.0399C53.1316 32.8828 53.0649 33.724 52.9535 34.5599C51.8286 34.9138 50.6739 35.1648 49.5035 35.3099C48.1015 35.5051 46.6736 35.3855 45.3235 34.9599C44.1982 34.5308 43.2219 33.7838 42.5135 32.8099C41.8177 31.8245 41.2843 30.734 40.9335 29.5799C40.5919 28.5647 40.3278 27.525 40.1435 26.4699C39.9642 25.4789 39.8573 24.4763 39.8235 23.4699C39.768 22.382 39.8048 21.2915 39.9335 20.2099Z" fill="#ABADB0"/>
</g>
<path d="M49.5935 21.52C48.9864 19.9589 48.0452 18.5495 46.8361 17.3904C45.6269 16.2313 44.1789 15.3506 42.5935 14.81C40.5935 11.05 34.5935 11 33.8435 11C33.0935 11 27.0935 11 25.1035 14.81C23.5192 15.3524 22.0721 16.2338 20.8632 17.3926C19.6542 18.5515 18.7125 19.96 18.1035 21.52C15.7935 27.01 12.1635 36.38 19.4335 40C24.8735 42.7 31.0935 42.15 33.8935 41.7C36.7035 42.15 42.8935 42.7 48.3535 40C55.5335 36.38 51.9335 26.98 49.5935 21.52Z" fill="#899AA2"/>
<path d="M48.9335 21.08C48.3479 19.5794 47.4398 18.2257 46.2734 17.1146C45.107 16.0035 43.7108 15.1621 42.1835 14.65C40.2735 11.05 34.5435 11 33.7935 11C33.0435 11 27.3235 11 25.4135 14.65C23.8862 15.1621 22.4901 16.0035 21.3237 17.1146C20.1573 18.2257 19.2492 19.5794 18.6635 21.08C16.4435 26.35 12.9635 35.33 19.9335 38.8C25.1435 41.39 31.1135 40.87 33.7935 40.44C36.4835 40.87 42.4535 41.39 47.6635 38.8C54.6435 35.33 51.1635 26.35 48.9335 21.08Z" fill="#A7BBC5"/>
<path d="M27.4735 38.7597C27.4735 38.7597 27.6735 36.9697 25.3935 36.9697C23.1135 36.9697 22.3935 41.8197 23.7235 41.7797C25.0535 41.7397 27.4735 38.7597 27.4735 38.7597Z" fill="white"/>
<path d="M40.8535 38.76C40.8535 38.76 40.6635 36.98 42.9335 36.98C45.2035 36.98 45.9335 41.83 44.5935 41.79C43.2535 41.75 40.8535 38.76 40.8535 38.76Z" fill="white"/>
<g style="mix-blend-mode:multiply" opacity="0.34">
<path d="M42.6135 32.84C42.5087 32.8372 42.4059 32.8097 42.3136 32.76C33.1736 28.02 24.4735 32.71 24.3835 32.76C24.3096 32.8023 24.2279 32.8294 24.1433 32.8397C24.0587 32.85 23.9729 32.8433 23.891 32.82C23.809 32.7967 23.7325 32.7573 23.666 32.7041C23.5995 32.6508 23.5442 32.5848 23.5036 32.51C23.461 32.4352 23.4338 32.3528 23.4233 32.2675C23.4129 32.1821 23.4195 32.0955 23.4427 32.0128C23.466 31.93 23.5054 31.8527 23.5588 31.7852C23.6121 31.7178 23.6783 31.6616 23.7536 31.62C25.607 30.6887 27.5887 30.0382 29.6335 29.69C34.1558 28.8262 38.8371 29.4984 42.9335 31.6C43.0615 31.6693 43.1629 31.7791 43.222 31.9121C43.2811 32.0451 43.2946 32.1939 43.2604 32.3353C43.2262 32.4768 43.1461 32.603 43.0328 32.6942C42.9194 32.7855 42.779 32.8367 42.6335 32.84H42.6135Z" fill="#707F86"/>
</g>
<path d="M27.0735 30.5901C28.9513 30.5901 30.4735 29.0678 30.4735 27.1901C30.4735 25.3123 28.9513 23.79 27.0735 23.79C25.1958 23.79 23.6735 25.3123 23.6735 27.1901C23.6735 29.0678 25.1958 30.5901 27.0735 30.5901Z" fill="white"/>
<path d="M29.6136 27.1899C29.6136 27.6923 29.4646 28.1834 29.1855 28.6011C28.9064 29.0188 28.5097 29.3443 28.0456 29.5366C27.5815 29.7288 27.0708 29.7791 26.578 29.6811C26.0853 29.5831 25.6327 29.3412 25.2775 28.986C24.9223 28.6307 24.6804 28.1782 24.5824 27.6854C24.4844 27.1927 24.5347 26.682 24.7269 26.2179C24.9192 25.7538 25.2447 25.3571 25.6624 25.078C26.0801 24.7989 26.5712 24.6499 27.0736 24.6499C27.7472 24.6499 28.3933 24.9175 28.8696 25.3939C29.346 25.8702 29.6136 26.5163 29.6136 27.1899Z" fill="#62493E"/>
<path d="M29.1835 27.1801C29.1855 27.5978 29.0635 28.0067 28.8328 28.355C28.6022 28.7033 28.2733 28.9753 27.888 29.1366C27.5026 29.2978 27.078 29.341 26.6681 29.2607C26.2581 29.1805 25.8812 28.9803 25.5851 28.6856C25.289 28.3909 25.0871 28.015 25.0048 27.6054C24.9226 27.1958 24.9638 26.7711 25.1232 26.3849C25.2826 25.9988 25.5531 25.6687 25.9003 25.4364C26.2475 25.2041 26.6558 25.0801 27.0735 25.0801C27.6314 25.0801 28.1666 25.301 28.562 25.6945C28.9574 26.0881 29.1809 26.6222 29.1835 27.1801Z" fill="#312017"/>
<path d="M26.6736 26.1598C26.6826 26.2155 26.6794 26.2726 26.6642 26.327C26.649 26.3814 26.6221 26.4318 26.5855 26.4748C26.5489 26.5178 26.5034 26.5524 26.4521 26.5761C26.4009 26.5998 26.345 26.612 26.2886 26.612C26.2321 26.612 26.1763 26.5998 26.125 26.5761C26.0737 26.5524 26.0282 26.5178 25.9916 26.4748C25.955 26.4318 25.9281 26.3814 25.9129 26.327C25.8977 26.2726 25.8945 26.2155 25.9036 26.1598C25.8945 26.104 25.8977 26.047 25.9129 25.9926C25.9281 25.9382 25.955 25.8877 25.9916 25.8447C26.0282 25.8017 26.0737 25.7672 26.125 25.7435C26.1763 25.7198 26.2321 25.7075 26.2886 25.7075C26.345 25.7075 26.4009 25.7198 26.4521 25.7435C26.5034 25.7672 26.5489 25.8017 26.5855 25.8447C26.6221 25.8877 26.649 25.9382 26.6642 25.9926C26.6794 26.047 26.6826 26.104 26.6736 26.1598Z" fill="white"/>
<path d="M25.8235 27.0999C25.8235 27.1635 25.7982 27.2246 25.7532 27.2696C25.7082 27.3146 25.6471 27.3399 25.5835 27.3399C25.5198 27.3399 25.4588 27.3146 25.4138 27.2696C25.3688 27.2246 25.3435 27.1635 25.3435 27.0999C25.3435 27.0362 25.3688 26.9752 25.4138 26.9301C25.4588 26.8851 25.5198 26.8599 25.5835 26.8599C25.6471 26.8599 25.7082 26.8851 25.7532 26.9301C25.7982 26.9752 25.8235 27.0362 25.8235 27.0999Z" fill="white"/>
<path d="M40.5435 30.5901C42.4213 30.5901 43.9436 29.0678 43.9436 27.1901C43.9436 25.3123 42.4213 23.79 40.5435 23.79C38.6658 23.79 37.1436 25.3123 37.1436 27.1901C37.1436 29.0678 38.6658 30.5901 40.5435 30.5901Z" fill="white"/>
<path d="M43.0835 27.1899C43.0835 27.6923 42.9346 28.1834 42.6555 28.6011C42.3764 29.0188 41.9797 29.3443 41.5156 29.5366C41.0514 29.7288 40.5407 29.7791 40.048 29.6811C39.5553 29.5831 39.1027 29.3412 38.7475 28.986C38.3923 28.6307 38.1504 28.1782 38.0523 27.6854C37.9543 27.1927 38.0046 26.682 38.1969 26.2179C38.3891 25.7538 38.7147 25.3571 39.1324 25.078C39.5501 24.7989 40.0412 24.6499 40.5435 24.6499C41.2172 24.6499 41.8632 24.9175 42.3396 25.3939C42.8159 25.8702 43.0835 26.5163 43.0835 27.1899Z" fill="#62493E"/>
<path d="M42.6436 27.1796C42.6455 27.5978 42.5232 28.0071 42.2921 28.3556C42.061 28.7041 41.7316 28.9761 41.3457 29.1371C40.9597 29.298 40.5346 29.3406 40.1244 29.2595C39.7142 29.1784 39.3373 28.9773 39.0416 28.6816C38.7459 28.3859 38.5447 28.009 38.4636 27.5988C38.3825 27.1885 38.4252 26.7635 38.5861 26.3775C38.7471 25.9916 39.0191 25.6621 39.3676 25.431C39.7161 25.2 40.1254 25.0776 40.5436 25.0796C41.1005 25.0796 41.6347 25.3009 42.0285 25.6947C42.4223 26.0885 42.6436 26.6226 42.6436 27.1796Z" fill="#312017"/>
<path d="M40.1435 26.1597C40.1435 26.2631 40.1024 26.3623 40.0293 26.4354C39.9562 26.5086 39.857 26.5497 39.7535 26.5497C39.6509 26.5471 39.5532 26.5052 39.4806 26.4326C39.408 26.36 39.3661 26.2623 39.3635 26.1597C39.3635 26.0562 39.4046 25.957 39.4778 25.8839C39.5509 25.8108 39.6501 25.7697 39.7535 25.7697C39.8051 25.7683 39.8564 25.7774 39.9044 25.7966C39.9523 25.8157 39.9959 25.8443 40.0324 25.8808C40.0689 25.9173 40.0975 25.9609 40.1167 26.0088C40.1358 26.0568 40.1449 26.1081 40.1435 26.1597Z" fill="white"/>
<path d="M39.2935 27.1C39.2955 27.1503 39.2822 27.2 39.2556 27.2426C39.2289 27.2852 39.1899 27.3188 39.1439 27.3389C39.0978 27.3591 39.0467 27.3648 38.9973 27.3555C38.9479 27.3462 38.9025 27.3222 38.8669 27.2866C38.8314 27.2511 38.8074 27.2056 38.798 27.1562C38.7887 27.1068 38.7945 27.0557 38.8147 27.0097C38.8348 26.9636 38.8684 26.9247 38.911 26.898C38.9536 26.8713 39.0033 26.8581 39.0535 26.8601C39.085 26.8601 39.1162 26.8663 39.1453 26.8783C39.1745 26.8904 39.2009 26.9081 39.2232 26.9303C39.2455 26.9526 39.2632 26.9791 39.2752 27.0082C39.2873 27.0373 39.2935 27.0685 39.2935 27.1Z" fill="white"/>
<path d="M24.9335 23.4097C24.8799 23.4068 24.8281 23.3895 24.7835 23.3597C24.7229 23.3172 24.6809 23.2531 24.666 23.1806C24.6511 23.1081 24.6646 23.0327 24.7035 22.9697C25.058 22.4798 25.5831 22.1403 26.1753 22.0182C26.7676 21.896 27.3841 22 27.9035 22.3097C27.9365 22.3266 27.9658 22.3499 27.9898 22.3782C28.0137 22.4065 28.0318 22.4393 28.0429 22.4746C28.0541 22.51 28.0581 22.5472 28.0548 22.5841C28.0515 22.621 28.0408 22.6569 28.0235 22.6897C27.9875 22.7545 27.9281 22.803 27.8574 22.8253C27.7867 22.8476 27.7102 22.8421 27.6435 22.8097C27.2497 22.5577 26.7743 22.466 26.315 22.5534C25.8557 22.6408 25.4473 22.9007 25.1735 23.2797C25.1461 23.3183 25.1102 23.35 25.0686 23.3726C25.027 23.3951 24.9808 23.4078 24.9335 23.4097Z" fill="#C57A63"/>
<path d="M24.9335 23.4097C24.8799 23.4068 24.8281 23.3895 24.7835 23.3597C24.7229 23.3172 24.6809 23.2531 24.666 23.1806C24.6511 23.1081 24.6646 23.0327 24.7035 22.9697C25.058 22.4798 25.5831 22.1403 26.1753 22.0182C26.7676 21.896 27.3841 22 27.9035 22.3097C27.9365 22.3266 27.9658 22.3499 27.9898 22.3782C28.0137 22.4065 28.0318 22.4393 28.0429 22.4746C28.0541 22.51 28.0581 22.5472 28.0548 22.5841C28.0515 22.621 28.0408 22.6569 28.0235 22.6897C27.9875 22.7545 27.9281 22.803 27.8574 22.8253C27.7867 22.8476 27.7102 22.8421 27.6435 22.8097C27.2497 22.5577 26.7743 22.466 26.315 22.5534C25.8557 22.6408 25.4473 22.9007 25.1735 23.2797C25.1461 23.3183 25.1102 23.35 25.0686 23.3726C25.027 23.3951 24.9808 23.4078 24.9335 23.4097Z" fill="#6F5444"/>
<path d="M42.6635 23.4097C42.6176 23.4078 42.5728 23.395 42.5329 23.3724C42.4929 23.3498 42.4588 23.3181 42.4335 23.2797C42.1565 22.9019 41.7464 22.6433 41.2861 22.5561C40.8258 22.4688 40.3496 22.5595 39.9535 22.8097C39.8879 22.8378 39.814 22.8398 39.747 22.8152C39.68 22.7906 39.6248 22.7414 39.5929 22.6775C39.561 22.6137 39.5547 22.54 39.5752 22.4717C39.5958 22.4033 39.6417 22.3454 39.7035 22.3097C40.2229 22 40.8395 21.896 41.4317 22.0182C42.024 22.1403 42.549 22.4798 42.9035 22.9697C42.9425 23.0327 42.9559 23.1081 42.941 23.1806C42.9261 23.2531 42.8841 23.3172 42.8235 23.3597C42.776 23.3913 42.7205 23.4086 42.6635 23.4097Z" fill="#6F5444"/>
<path d="M41.5136 35.4696C41.1019 34.0163 40.2871 32.7093 39.1636 31.6996C37.9746 30.6906 36.5414 30.0117 35.0075 29.7309C33.4736 29.4501 31.8929 29.5773 30.4236 30.0996C29.1327 30.5307 27.9816 31.3013 27.0913 32.3307C26.2009 33.36 25.6041 34.6101 25.3636 35.9496C25.101 38.1086 25.4114 40.2987 26.2636 42.2996C27.2636 44.9196 30.1036 47.9796 28.3536 50.8596C26.8236 53.3796 22.3536 55.4396 19.5736 53.8596C18.9034 53.4141 18.3762 52.7845 18.0551 52.0466C17.734 51.3086 17.6328 50.4937 17.7636 49.6996C17.8341 49.2383 18.0434 48.8093 18.3636 48.4696C18.4331 48.3822 18.4803 48.2792 18.5012 48.1694C18.5221 48.0597 18.5161 47.9465 18.4836 47.8396C18.433 47.7303 18.3534 47.637 18.2536 47.5696C17.9141 47.3766 17.5326 47.2693 17.1422 47.2571C16.7519 47.2449 16.3645 47.3282 16.0136 47.4996C15.4702 47.6943 14.9945 48.0415 14.6436 48.4996C14.1641 48.3147 13.633 48.3147 13.1536 48.4996C12.9094 48.582 12.6975 48.7396 12.5484 48.9498C12.3993 49.16 12.3206 49.412 12.3236 49.6696C12.4236 50.3596 13.3236 50.8896 13.5736 51.5496C13.8986 52.6495 14.3237 53.7173 14.8436 54.7396C16.7536 57.5796 20.5036 58.0096 23.6336 57.7396C27.8817 57.4109 31.9445 55.8621 35.3336 53.2796C38.9605 50.2977 41.2786 46.0166 41.7936 41.3496C42.1271 39.3925 42.0315 37.3863 41.5136 35.4696Z" fill="#A7BBC5"/>
<path d="M41.5136 35.4696C41.1019 34.0163 40.2871 32.7093 39.1636 31.6996C37.9746 30.6906 36.5414 30.0117 35.0075 29.7309C33.4736 29.4501 31.8929 29.5773 30.4236 30.0996C29.1327 30.5307 27.9816 31.3013 27.0913 32.3307C26.2009 33.36 25.6041 34.6101 25.3636 35.9496C25.101 38.1086 25.4114 40.2987 26.2636 42.2996C27.2636 44.9196 30.1036 47.9796 28.3536 50.8596C26.8236 53.3796 22.3536 55.4396 19.5736 53.8596C18.9034 53.4141 18.3762 52.7845 18.0551 52.0466C17.734 51.3086 17.6328 50.4937 17.7636 49.6996C17.8341 49.2383 18.0434 48.8093 18.3636 48.4696C18.4331 48.3822 18.4803 48.2792 18.5012 48.1694C18.5221 48.0597 18.5161 47.9465 18.4836 47.8396C18.433 47.7303 18.3534 47.637 18.2536 47.5696C17.9141 47.3766 17.5326 47.2693 17.1422 47.2571C16.7519 47.2449 16.3645 47.3282 16.0136 47.4996C15.4702 47.6943 14.9945 48.0415 14.6436 48.4996C14.1641 48.3147 13.633 48.3147 13.1536 48.4996C12.9094 48.582 12.6975 48.7396 12.5484 48.9498C12.3993 49.16 12.3206 49.412 12.3236 49.6696C12.4236 50.3596 13.3236 50.8896 13.5736 51.5496C13.8986 52.6495 14.3237 53.7173 14.8436 54.7396C16.7536 57.5796 20.5036 58.0096 23.6336 57.7396C27.8817 57.4109 31.9445 55.8621 35.3336 53.2796C38.9605 50.2977 41.2786 46.0166 41.7936 41.3496C42.1271 39.3925 42.0315 37.3863 41.5136 35.4696Z" fill="#A7BBC5"/>
<g style="mix-blend-mode:multiply" opacity="0.34">
<path d="M27.4835 37.4199C27.8341 37.1623 28.2016 36.9284 28.5835 36.7199C29.4392 36.2402 30.3583 35.8834 31.3135 35.6599C32.0658 35.4953 32.8271 35.3752 33.5935 35.2999C34.1844 35.2331 34.7791 35.2064 35.3735 35.2199C34.542 35.0471 33.6915 34.9833 32.8435 35.0299C32.0098 35.0643 31.1851 35.2158 30.3935 35.4799C29.5231 35.7818 28.7234 36.2582 28.0435 36.8799C27.8435 37.0499 27.6635 37.2399 27.4835 37.4199Z" fill="#83949C"/>
</g>
<g style="mix-blend-mode:multiply" opacity="0.34">
<path d="M26.9335 52.4397C26.9478 52.5803 26.9814 52.7183 27.0335 52.8497C27.2947 53.3537 27.6934 53.7733 28.1835 54.0597L28.7335 54.2197C28.4576 53.7692 28.1211 53.3586 27.7335 52.9997C27.498 52.7726 27.2361 52.5745 26.9535 52.4097L26.9335 52.4397Z" fill="#83949C"/>
</g>
<g style="mix-blend-mode:multiply" opacity="0.34">
<path d="M28.9335 51.7797C29.8742 52.1935 30.8613 52.4923 31.8736 52.6697C31.6421 52.383 31.3651 52.1364 31.0535 51.9397C30.7009 51.7404 30.3144 51.6082 29.9135 51.5497C29.4291 51.445 28.928 51.445 28.4435 51.5497L28.9335 51.7797Z" fill="#83949C"/>
</g>
<g style="mix-blend-mode:multiply" opacity="0.34">
<path d="M30.6035 48.7398C31.6025 48.4145 32.6592 48.3055 33.7035 48.4198C34.2373 48.4665 34.764 48.5739 35.2735 48.7398C34.9962 48.401 34.6234 48.1536 34.2035 48.0298C33.9221 47.9398 33.6347 47.8696 33.3435 47.8198C32.8682 47.8034 32.3931 47.8573 31.9335 47.9798C31.2907 48.1337 30.6984 48.4505 30.2135 48.8998L30.6035 48.7398Z" fill="#83949C"/>
</g>
<g style="mix-blend-mode:multiply" opacity="0.34">
<path d="M30.4635 45.32C30.235 45.4608 30.0147 45.6144 29.8035 45.78C30.2635 45.62 30.7235 45.47 31.1835 45.33C31.8646 45.1152 32.5644 44.9645 33.2735 44.88C33.9378 44.81 34.6058 44.7833 35.2735 44.8C35.8288 44.8052 36.3833 44.8453 36.9335 44.92C36.7133 44.809 36.4862 44.7121 36.2535 44.63C35.0187 44.2229 33.6932 44.1778 32.4335 44.5C31.7398 44.6742 31.0759 44.9505 30.4635 45.32Z" fill="#83949C"/>
</g>
<g style="mix-blend-mode:multiply" opacity="0.34">
<path d="M27.8235 42.37L28.4635 41.92C28.8875 41.6315 29.3359 41.3806 29.8035 41.17C30.6209 40.7638 31.479 40.4453 32.3635 40.22C33.1018 40.0307 33.8495 39.8805 34.6035 39.77C35.3505 39.6477 36.1067 39.5908 36.8635 39.6C36.5988 39.5113 36.3281 39.4411 36.0535 39.39C35.8461 39.3421 35.6356 39.3087 35.4236 39.29C35.1736 39.29 34.9236 39.29 34.6736 39.29C33.535 39.3509 32.4058 39.5285 31.3035 39.82L30.9135 39.92C29.64 40.3707 28.5527 41.2328 27.8235 42.37Z" fill="#83949C"/>
</g>
<g style="mix-blend-mode:multiply" opacity="0.34">
<path d="M41.5136 35.4696C41.1019 34.0163 40.2871 32.7093 39.1636 31.6996C37.9746 30.6906 36.5414 30.0117 35.0075 29.7309C33.4736 29.4501 31.8929 29.5773 30.4236 30.0996C29.1327 30.5307 27.9816 31.3013 27.0913 32.3307C26.2009 33.36 25.6041 34.6101 25.3636 35.9496C25.2488 36.6838 25.2186 37.4286 25.2736 38.1696C25.4459 37.1146 25.8049 36.0988 26.3336 35.1696C26.9581 34.0615 27.8839 33.1531 29.0036 32.5496C30.3297 31.8376 31.8336 31.525 33.3336 31.6496C34.8059 31.7932 36.2003 32.3789 37.3336 33.3296C38.4517 34.3042 39.3368 35.5174 39.9236 36.8796C40.5025 38.1908 40.8736 39.5842 41.0236 41.0096C41.1735 42.3187 41.1735 43.6406 41.0236 44.9496C41.4152 43.7477 41.6963 42.5126 41.8636 41.2596C42.1612 39.3268 42.0419 37.3526 41.5136 35.4696Z" fill="#83949C"/>
</g>
</svg>
