<svg width="68" height="68" viewBox="0 0 68 68" fill="none" xmlns="http://www.w3.org/2000/svg">
<path d="M61.68 1H6.35001C3.39528 1 1 3.39527 1 6.34999V61.68C1 64.6347 3.39528 67.03 6.35001 67.03H61.68C64.6347 67.03 67.03 64.6347 67.03 61.68V6.34999C67.03 3.39527 64.6347 1 61.68 1Z" fill="#FFF6D9" stroke="#FCDC77" stroke-miterlimit="10"/>
<path d="M38.7008 10.9211C38.9586 11.0645 39.2 11.2355 39.4208 11.4311C39.6523 11.6193 39.8999 11.7866 40.1608 11.9311H40.2508L39.7808 12.3111C39.4908 12.5711 39.0808 13.0311 39.4308 13.4111C39.6116 13.5755 39.8385 13.6802 40.0808 13.7111C40.2663 13.7408 40.4553 13.7408 40.6408 13.7111C41.0849 13.6652 41.5125 13.5181 41.8908 13.2811L42.0908 13.1211C42.1908 13.3311 42.3008 13.5411 42.4108 13.7411C42.5208 13.9411 42.7608 14.4511 43.1008 14.3511C43.2708 14.3511 43.3608 14.1311 43.4308 13.9911C43.5197 13.8212 43.5837 13.6393 43.6208 13.4511C43.6256 13.4113 43.6256 13.371 43.6208 13.3311L43.8508 13.6311C44.0806 14.1044 44.4242 14.5133 44.8508 14.8211C44.8767 14.845 44.9106 14.8583 44.9458 14.8583C44.981 14.8583 45.0149 14.845 45.0408 14.8211C45.1483 14.668 45.2106 14.4879 45.2208 14.3011C45.2208 14.1911 45.2208 14.0711 45.2208 13.9611C45.3838 14.1132 45.5652 14.2443 45.7608 14.3511C46.0808 14.5311 47.5808 15.2811 47.6108 14.5111C47.6088 14.3135 47.5535 14.12 47.4508 13.9511C47.3672 13.7605 47.2632 13.5795 47.1408 13.4111C47.03 13.2485 46.899 13.1006 46.7508 12.9711H46.8208C47.336 12.8779 47.8223 12.6656 48.2408 12.3511C48.4308 12.2011 48.6408 12.0711 48.8308 11.9211C48.9151 11.8729 48.9865 11.8049 49.0387 11.7231C49.091 11.6412 49.1226 11.5479 49.1308 11.4511C49.1308 11.0511 48.6108 10.7711 48.3108 10.5911C48.1236 10.4751 47.9218 10.3843 47.7108 10.3211L47.3708 10.2711C47.5116 10.1202 47.6419 9.95978 47.7608 9.79111C47.9052 9.60278 48.0044 9.38383 48.0508 9.15111C48.053 9.11215 48.0425 9.07353 48.0209 9.04107C47.9992 9.0086 47.9676 8.98405 47.9308 8.97111C47.5226 8.77294 47.0746 8.66998 46.6208 8.66998C46.167 8.66998 45.7191 8.77294 45.3108 8.97111C45.1554 8.65333 44.9493 8.36289 44.7008 8.11111C44.3129 7.71146 43.8876 7.34982 43.4308 7.03111C43.4308 7.03111 43.2608 6.96111 43.2308 7.03111C43.1052 7.29054 43.0177 7.56671 42.9708 7.85111C42.6692 7.69715 42.3547 7.56999 42.0308 7.47111C41.5585 7.30816 41.0602 7.23358 40.5608 7.2511C40.5435 7.24963 40.5261 7.25268 40.5104 7.25996C40.4946 7.26724 40.481 7.2785 40.4709 7.29262C40.4608 7.30675 40.4546 7.32325 40.4528 7.34052C40.4511 7.35779 40.4538 7.37522 40.4608 7.3911C40.5808 7.7111 40.6908 8.0411 40.8008 8.3911H40.6608C40.1 8.31046 39.5282 8.36183 38.9908 8.54111C38.9008 8.54111 38.9208 8.67111 38.9908 8.73111C39.3308 9.13111 39.6408 9.55111 39.9908 9.94111L39.7108 10.0111C39.4866 10.05 39.2723 10.1327 39.0801 10.2545C38.8879 10.3764 38.7216 10.5349 38.5908 10.7211C38.5508 10.8011 38.6208 10.8811 38.7008 10.9211Z" fill="#6C412C"/>
<path d="M22.4208 20.9409C22.4208 20.9409 22.3608 20.0309 14.7908 17.8809C7.79084 15.8809 4.71084 13.3909 4.10084 16.8209C3.49084 20.2509 5.47083 32.2309 14.9508 30.9609C24.4308 29.6909 22.4208 20.9409 22.4208 20.9409Z" fill="#D19342"/>
<path d="M6.27086 21.3509C6.62533 22.5543 7.13993 23.7046 7.80086 24.7709C8.33789 25.6647 9.0129 26.468 9.80086 27.1509C11.2424 28.3174 12.9679 29.08 14.8009 29.3609C16.531 29.6666 18.3105 29.5254 19.9709 28.9509C23.5309 25.9509 22.3809 20.9509 22.3809 20.9509C22.3809 20.9509 22.3209 20.0409 14.7509 17.8909C10.7509 16.7609 8.06085 15.4609 6.34085 15.1909C5.64514 17.1815 5.62056 19.3451 6.27086 21.3509Z" fill="#6C412C"/>
<path d="M22.4208 20.9408C22.4208 20.9408 22.3608 20.0309 14.7908 17.8809C8.87085 16.1909 5.73084 14.1308 4.55084 15.6608C7.40084 14.7708 15.5508 21.0409 15.6808 21.1309C15.2862 21.0556 14.8983 20.9486 14.5208 20.8109L13.9808 20.6908C14.6048 21.1038 15.0976 21.6868 15.4008 22.3708C15.4008 22.4808 14.6008 22.1308 14.2708 21.9708C14.0314 21.8416 13.7705 21.7569 13.5008 21.7208C14.1007 22.2483 14.5784 22.9001 14.9008 23.6309C15.437 25.093 15.7276 26.6338 15.7608 28.1908C15.8162 29.052 15.9366 29.9078 16.1208 30.7508C24.2608 28.9508 22.4208 20.9408 22.4208 20.9408Z" fill="#FBB04E"/>
<g style="mix-blend-mode:multiply" opacity="0.49">
<path d="M22.4209 20.9408C22.4209 20.9408 22.4209 20.6608 21.0509 20.0308C20.4642 20.4068 19.9179 20.8424 19.4209 21.3308C17.8764 22.9077 16.7968 24.88 16.3009 27.0308C16.076 27.934 15.9553 28.86 15.9409 29.7908C15.9831 30.127 16.0432 30.4608 16.1209 30.7908C24.2609 28.9508 22.4209 20.9408 22.4209 20.9408Z" fill="#D19342"/>
</g>
<path d="M45.2108 20.9409C45.2108 20.9409 45.2708 20.0309 52.8308 17.8809C59.8308 15.8809 62.9208 13.3909 63.5208 16.8209C64.1208 20.2509 62.1608 32.2309 52.6808 30.9609C43.2008 29.6909 45.2108 20.9409 45.2108 20.9409Z" fill="#D19342"/>
<path d="M61.3508 21.3509C61.0043 22.5556 60.4928 23.7065 59.8308 24.7709C59.2938 25.6647 58.6188 26.468 57.8308 27.1509C56.3751 28.3254 54.6314 29.0886 52.7809 29.3609C51.0507 29.667 49.2711 29.5259 47.6108 28.9509C44.0408 25.9509 45.2008 20.9509 45.2008 20.9509C45.2008 20.9509 45.2608 20.0409 52.8208 17.8909C56.8208 16.7609 59.5209 15.4609 61.2409 15.1909C61.9496 17.1771 61.9882 19.3407 61.3508 21.3509Z" fill="#6C412C"/>
<path d="M45.2108 20.9408C45.2108 20.9408 45.2708 20.0309 52.8308 17.8809C58.7608 16.1909 61.9008 14.1308 63.0808 15.6608C60.2308 14.7708 52.0808 21.0409 51.9408 21.1309C52.3391 21.0573 52.7305 20.9502 53.1108 20.8109L53.6508 20.6908C53.0269 21.1038 52.5341 21.6868 52.2308 22.3708C52.2308 22.4808 53.0308 22.1308 53.3608 21.9708C53.5974 21.8432 53.8547 21.7585 54.1208 21.7208C53.5269 22.2537 53.0502 22.9041 52.7208 23.6309C52.1926 25.0948 51.9055 26.6349 51.8708 28.1908C51.8154 29.052 51.6951 29.9078 51.5108 30.7508C43.3708 28.9508 45.2108 20.9408 45.2108 20.9408Z" fill="#FBB04E"/>
<g style="mix-blend-mode:multiply" opacity="0.49">
<path d="M45.2108 20.9408C45.2108 20.9408 45.2108 20.6608 46.5708 20.0308C47.1611 20.4017 47.7079 20.8378 48.2008 21.3308C49.7489 22.9065 50.832 24.8789 51.3308 27.0308C51.5507 27.935 51.6714 28.8604 51.6908 29.7908C51.6375 30.1174 51.5775 30.4508 51.5108 30.7908C43.3708 28.9508 45.2108 20.9408 45.2108 20.9408Z" fill="#D19342"/>
</g>
<path d="M44.1008 18.8212C40.9008 16.3812 35.6708 16.3412 33.7708 16.4212C31.8708 16.5012 26.6408 16.4212 23.4508 18.8612C19.4508 21.8612 13.4508 36.2512 14.5208 40.3112C15.5908 44.3712 20.5508 56.7212 31.4108 58.6212H36.3208C47.1308 56.6212 52.0909 44.3112 53.1208 40.2412C54.1508 36.1712 48.0708 21.8312 44.1008 18.8212Z" fill="#FEC34E"/>
<g style="mix-blend-mode:multiply" opacity="0.49">
<path d="M48.8908 44.7111C48.0167 42.993 46.8336 41.4506 45.4008 40.1611C42.2725 37.6741 38.3972 36.3142 34.4008 36.3011C30.7092 36.1845 27.0564 37.0839 23.8408 38.9011C22.2852 39.8234 20.8707 40.9651 19.6408 42.2911C19.0327 42.8995 18.4898 43.5698 18.0208 44.2911C17.6853 44.9293 17.2866 45.5323 16.8308 46.0911C16.8308 46.0911 16.8308 46.0911 16.7808 46.0911C19.3408 51.1611 24.0208 57.2911 31.3908 58.5811H36.3008C43.0508 57.3611 47.5208 52.0911 50.1708 47.3111C49.7908 46.4511 49.3708 45.5711 48.8908 44.7111Z" fill="#D19342"/>
</g>
<path d="M40.3109 17.8109C40.0058 18.3205 39.8251 18.8948 39.7834 19.4872C39.7417 20.0797 39.8402 20.6736 40.0709 21.2209C40.5977 22.0165 41.3165 22.6665 42.1608 23.1109C42.5641 23.3729 42.9453 23.6672 43.3009 23.9909C43.6808 24.361 43.9833 24.8029 44.1909 25.2909C44.5478 26.3461 44.7071 27.458 44.6608 28.5709C44.5966 29.6513 44.8806 30.7238 45.4709 31.6309C45.8638 32.1211 46.3723 32.506 46.9509 32.7509C47.3883 32.899 47.8496 32.9635 48.3109 32.9409C49.3845 32.8625 50.4452 32.6578 51.4709 32.3309L51.6909 32.2709C49.8209 26.8709 46.5809 20.7009 44.1409 18.8409C43.1188 18.0924 41.9706 17.5335 40.7509 17.1909C40.5842 17.3826 40.4368 17.5903 40.3109 17.8109Z" fill="#D19342"/>
<path d="M17.5509 40.3007C17.8708 39.6485 18.0707 38.9439 18.1409 38.2207C18.1508 37.8319 18.1002 37.444 17.9909 37.0707C17.8941 36.6496 17.7212 36.2498 17.4809 35.8907C17.3093 35.6388 17.0728 35.4379 16.7965 35.3094C16.5201 35.1809 16.2141 35.1295 15.9109 35.1607C15.6052 35.1971 15.3059 35.2745 15.0209 35.3907C14.5183 36.9653 14.3581 38.6292 14.5509 40.2707C14.8805 41.4947 15.2948 42.6943 15.7909 43.8607C16.3109 42.6607 16.9909 41.5207 17.5509 40.3007Z" fill="#D19342"/>
<path d="M29.4608 18.3207C28.8581 18.195 28.2301 18.3098 27.7108 18.6407C27.2363 18.9954 26.8737 19.479 26.6662 20.0339C26.4588 20.5889 26.4153 21.1917 26.5408 21.7707C26.7674 22.5338 27.2516 23.1947 27.9108 23.6407C28.5734 24.1509 29.3743 24.4495 30.2092 24.4977C31.044 24.5459 31.874 24.3413 32.5908 23.9107C35.2108 22.0607 32.0508 18.7307 29.4608 18.3207Z" fill="#D19342"/>
<path d="M38.2108 24.2408C37.974 24.1904 37.7268 24.2334 37.5208 24.3608C37.3365 24.4994 37.1961 24.6882 37.1163 24.9045C37.0365 25.1209 37.0207 25.3557 37.0708 25.5808C37.1614 25.8763 37.3479 26.1331 37.6008 26.3108C37.8591 26.5081 38.1709 26.6232 38.4955 26.641C38.82 26.6589 39.1425 26.5786 39.4208 26.4108C40.4408 25.6908 39.2108 24.4008 38.2108 24.2408Z" fill="#D19342"/>
<path d="M23.8909 24.701C23.1608 24.5009 22.3872 24.5277 21.6727 24.7778C20.9583 25.0278 20.3368 25.4894 19.8909 26.101C19.6588 26.4932 19.5508 26.9463 19.5809 27.401C19.6097 27.9039 19.7892 28.3864 20.0959 28.7859C20.4027 29.1854 20.8225 29.4833 21.3009 29.641C22.7009 30.051 23.9609 28.921 24.6609 27.831C24.8765 27.5503 25.0284 27.2259 25.1061 26.8806C25.1838 26.5352 25.1854 26.1771 25.1109 25.831C25.0112 25.5597 24.8487 25.3159 24.6366 25.1194C24.4246 24.923 24.169 24.7796 23.8909 24.701Z" fill="#D19342"/>
<path d="M51.4108 36.061C51.0219 36.2264 50.7108 36.534 50.5408 36.921C50.3557 37.4245 50.3557 37.9774 50.5408 38.481C50.8099 39.189 51.166 39.8608 51.6008 40.481C51.9678 41.0057 52.1824 41.6218 52.2209 42.261C52.2166 42.6878 52.1526 43.1119 52.0309 43.521C52.4679 42.4638 52.8321 41.3779 53.1209 40.271C53.318 38.8655 53.2157 37.4342 52.8208 36.071C52.3699 35.8848 51.8643 35.8812 51.4108 36.061Z" fill="#D19342"/>
<path d="M25.0108 37.3511C27.0764 37.3511 28.7508 35.6766 28.7508 33.6111C28.7508 31.5455 27.0764 29.8711 25.0108 29.8711C22.9453 29.8711 21.2708 31.5455 21.2708 33.6111C21.2708 35.6766 22.9453 37.3511 25.0108 37.3511Z" fill="white"/>
<path d="M27.8008 33.6108C27.8028 34.1655 27.64 34.7082 27.3331 35.1702C27.0262 35.6322 26.589 35.9926 26.077 36.2058C25.5649 36.4189 25.0011 36.4752 24.4571 36.3675C23.913 36.2598 23.4132 35.9929 23.021 35.6007C22.6288 35.2085 22.3619 34.7087 22.2542 34.1646C22.1465 33.6205 22.2027 33.0567 22.4159 32.5447C22.6291 32.0326 22.9895 31.5954 23.4515 31.2885C23.9135 30.9816 24.4562 30.8188 25.0109 30.8208C25.3772 30.8208 25.74 30.893 26.0785 31.0332C26.417 31.1734 26.7246 31.3789 26.9837 31.638C27.2428 31.8971 27.4483 32.2046 27.5885 32.5431C27.7287 32.8816 27.8008 33.2444 27.8008 33.6108Z" fill="#62493E"/>
<path d="M25.0108 35.411C26.0049 35.411 26.8108 34.6051 26.8108 33.611C26.8108 32.6169 26.0049 31.811 25.0108 31.811C24.0167 31.811 23.2108 32.6169 23.2108 33.611C23.2108 34.6051 24.0167 35.411 25.0108 35.411Z" fill="#312017"/>
<path d="M23.8708 33.131C24.2353 33.131 24.5308 32.8355 24.5308 32.471C24.5308 32.1065 24.2353 31.811 23.8708 31.811C23.5063 31.811 23.2108 32.1065 23.2108 32.471C23.2108 32.8355 23.5063 33.131 23.8708 33.131Z" fill="white"/>
<path d="M41.9209 37.3511C43.9864 37.3511 45.6608 35.6766 45.6608 33.6111C45.6608 31.5455 43.9864 29.8711 41.9209 29.8711C39.8553 29.8711 38.1808 31.5455 38.1808 33.6111C38.1808 35.6766 39.8553 37.3511 41.9209 37.3511Z" fill="white"/>
<path d="M44.7108 33.6108C44.7128 34.1655 44.55 34.7082 44.2431 35.1702C43.9362 35.6322 43.499 35.9926 42.9869 36.2058C42.4749 36.4189 41.9111 36.4752 41.367 36.3675C40.823 36.2598 40.3231 35.9929 39.9309 35.6007C39.5388 35.2085 39.2719 34.7087 39.1642 34.1646C39.0564 33.6205 39.1127 33.0567 39.3259 32.5447C39.539 32.0326 39.8995 31.5954 40.3615 31.2885C40.8234 30.9816 41.3662 30.8188 41.9208 30.8208C42.2872 30.8208 42.65 30.893 42.9885 31.0332C43.327 31.1734 43.6346 31.3789 43.8937 31.638C44.1527 31.8971 44.3582 32.2046 44.4985 32.5431C44.6387 32.8816 44.7108 33.2444 44.7108 33.6108Z" fill="#62493E"/>
<path d="M41.9209 35.411C42.915 35.411 43.7209 34.6051 43.7209 33.611C43.7209 32.6169 42.915 31.811 41.9209 31.811C40.9267 31.811 40.1208 32.6169 40.1208 33.611C40.1208 34.6051 40.9267 35.411 41.9209 35.411Z" fill="#312017"/>
<path d="M41.4309 32.4711C41.4308 32.6021 41.3919 32.7301 41.3189 32.8388C41.2459 32.9475 41.1422 33.0321 41.0211 33.0818C40.8999 33.1314 40.7667 33.1439 40.6384 33.1176C40.5101 33.0913 40.3925 33.0275 40.3006 32.9342C40.2087 32.8408 40.1466 32.7223 40.1223 32.5936C40.098 32.4649 40.1125 32.3319 40.164 32.2115C40.2155 32.0911 40.3016 31.9887 40.4115 31.9174C40.5213 31.8461 40.6499 31.8091 40.7809 31.8111C40.9542 31.8137 41.1195 31.8844 41.2411 32.0079C41.3627 32.1314 41.4309 32.2978 41.4309 32.4711Z" fill="white"/>
<path d="M45.2609 39.6812C45.1321 39.681 45.0053 39.6501 44.8909 39.5912C33.5409 33.7012 22.7409 39.5212 22.6309 39.5912C22.5378 39.656 22.4322 39.7006 22.3208 39.722C22.2094 39.7434 22.0948 39.7412 21.9843 39.7155C21.8739 39.6899 21.77 39.6413 21.6795 39.5729C21.589 39.5045 21.5139 39.4179 21.459 39.3187C21.4041 39.2194 21.3707 39.1098 21.3608 38.9968C21.351 38.8838 21.365 38.77 21.402 38.6628C21.4389 38.5555 21.4979 38.4573 21.5753 38.3743C21.6526 38.2913 21.7465 38.2255 21.8509 38.1812C25.5436 36.3385 29.614 35.3794 33.7409 35.3794C37.8678 35.3794 41.9382 36.3385 45.6309 38.1812C45.7922 38.2643 45.921 38.3993 45.9965 38.5644C46.0719 38.7295 46.0898 38.9151 46.0471 39.0916C46.0044 39.268 45.9037 39.425 45.7612 39.5374C45.6186 39.6497 45.4424 39.7109 45.2609 39.7112V39.6812Z" fill="#B67E5C"/>
<path d="M44.7709 41.8608C43.1952 40.028 41.2309 38.5693 39.0209 37.5908C35.4537 36.2256 31.508 36.2256 27.9409 37.5908C25.6148 38.5132 23.5534 39.9974 21.9409 41.9108C16.6809 47.9708 14.8509 54.2708 24.0109 58.9108C24.5009 59.1608 25.0109 59.3808 25.4909 59.5908C27.9836 60.661 30.6681 61.2128 33.3809 61.2128C36.0937 61.2128 38.7781 60.661 41.2709 59.5908C41.7609 59.3808 42.2709 59.1608 42.7509 58.9108C51.8609 54.2208 50.0309 47.9208 44.7709 41.8608Z" fill="#FDC792"/>
<g style="mix-blend-mode:screen">
<path d="M23.7708 40.7807C25.8468 39.2455 28.2376 38.1902 30.7708 37.6907C32.0118 37.4478 33.2787 37.3637 34.5408 37.4407C35.9486 37.5374 37.3339 37.8442 38.6508 38.3507C40.0155 38.8618 41.3146 39.5332 42.5208 40.3507C43.1077 40.7474 43.6658 41.1852 44.1909 41.6607C44.7377 42.1657 45.2426 42.7142 45.7008 43.3007C46.1508 43.8707 46.5708 44.4707 46.9808 45.0707C47.3908 45.6707 47.7808 46.2307 48.1708 46.8207C47.2802 45.0085 46.1464 43.3263 44.8008 41.8207C43.2251 39.988 41.2609 38.5293 39.0508 37.5507C35.4837 36.1856 31.538 36.1856 27.9708 37.5507C25.6448 38.4731 23.5834 39.9573 21.9708 41.8707C21.0087 42.9669 20.1391 44.1409 19.3708 45.3807C20.57 43.6122 22.0573 42.0573 23.7708 40.7807Z" fill="#8D92A6"/>
</g>
<path d="M30.5509 45.0209C30.5509 45.0209 31.1409 43.2709 29.8609 42.6909C28.5809 42.1109 30.0909 46.4509 30.5509 45.0209Z" fill="#6C412C"/>
<path opacity="0.33" d="M32.4909 44.4208C32.3097 43.6623 32.0413 42.9274 31.6909 42.2308C31.3662 41.4698 30.8189 40.8249 30.1209 40.3808C29.8158 40.1836 29.4538 40.0933 29.0918 40.1241C28.7298 40.1548 28.3883 40.3049 28.1209 40.5508C27.714 41.1331 27.5392 41.8463 27.6309 42.5508C27.6513 43.3058 27.8574 44.0442 28.2309 44.7008C28.2309 44.7008 28.3209 44.7008 28.3009 44.7008C28.1743 44.4558 28.0866 44.1927 28.0409 43.9208C27.9698 43.5905 27.9164 43.2567 27.8809 42.9208C27.7856 42.2381 27.8934 41.5425 28.1909 40.9208C28.2553 40.8112 28.342 40.7163 28.4453 40.6422C28.5487 40.5681 28.6664 40.5165 28.7909 40.4908C29.1327 40.44 29.4819 40.4958 29.7909 40.6508C30.4444 41.0401 30.9641 41.6191 31.2809 42.3108C31.6709 43.0408 31.9209 43.8208 32.2809 44.5808C32.3509 44.6008 32.5509 44.5108 32.4909 44.4208Z" fill="#6C412C"/>
<path d="M35.4909 45.0209C35.4909 45.0209 34.9009 43.2709 36.1809 42.6909C37.4609 42.1109 36.0009 46.4509 35.4909 45.0209Z" fill="#6C412C"/>
<path opacity="0.33" d="M33.5508 44.4211C33.7354 43.6623 34.0072 42.9274 34.3608 42.2311C34.685 41.4728 35.2282 40.8287 35.9208 40.3811C36.2265 40.1856 36.5881 40.0963 36.9497 40.127C37.3112 40.1578 37.6525 40.3068 37.9208 40.5511C38.3297 41.1323 38.5014 41.8477 38.4008 42.5511C38.3855 43.3069 38.179 44.0466 37.8008 44.7011C37.8008 44.7011 37.7208 44.7011 37.7408 44.7011C37.8629 44.4543 37.9504 44.1918 38.0009 43.9211C38.073 43.5915 38.1231 43.2574 38.1508 42.9211C38.2562 42.2384 38.1479 41.5399 37.8409 40.9211C37.7795 40.811 37.695 40.7155 37.5931 40.6412C37.4913 40.567 37.3745 40.5158 37.2509 40.4911C36.909 40.439 36.5594 40.4949 36.2508 40.6511C35.5973 41.0405 35.0776 41.6195 34.7608 42.3111C34.3708 43.0411 34.1108 43.8211 33.7608 44.5811C33.7308 44.6011 33.5508 44.5111 33.5508 44.4211Z" fill="#6C412C"/>
<path opacity="0.33" d="M46.3108 52.4708C46.3234 52.2957 46.2815 52.1211 46.1908 51.9708C46.1517 51.9212 46.0998 51.8832 46.0408 51.8608C45.9731 51.8355 45.8985 51.8355 45.8308 51.8608C45.6417 51.9669 45.4885 52.1271 45.3908 52.3208C45.3065 52.449 45.2456 52.5912 45.2108 52.7408L45.4608 52.6308L45.5908 52.5808C45.3607 53.1123 45.0758 53.6183 44.7408 54.0908C44.2632 54.72 43.7165 55.2936 43.1108 55.8008C41.8695 56.8213 40.4803 57.6474 38.9908 58.2508C37.4552 58.888 35.8406 59.3152 34.1908 59.5208C32.4223 59.7607 30.6294 59.7607 28.8608 59.5208C27.1238 59.2839 25.4358 58.7708 23.8608 58.0008C23.6708 57.9008 23.4808 57.8008 23.3008 57.6908C24.0243 58.1658 24.7951 58.5646 25.6008 58.8808C26.4316 59.2074 27.2924 59.4519 28.1708 59.6108C31.6758 60.2563 35.29 59.9418 38.6308 58.7008C40.1719 58.1199 41.6203 57.3182 42.9308 56.3208C44.2366 55.3746 45.2711 54.1022 45.9308 52.6308V52.5208C46.0192 52.519 46.1062 52.5434 46.1808 52.5908C46.2021 52.6031 46.2263 52.6095 46.2508 52.6095C46.2754 52.6095 46.2995 52.6031 46.3208 52.5908L46.3108 52.4708Z" fill="#85523A"/>
<path opacity="0.33" d="M47.8108 50.6211C47.7663 50.4636 47.7095 50.3097 47.6408 50.1611C47.5696 49.9478 47.4365 49.7607 47.2583 49.6235C47.0802 49.4863 46.8652 49.4054 46.6408 49.3911C46.203 49.4447 45.7951 49.6416 45.4808 49.9511C45.0756 50.2931 44.713 50.6825 44.4008 51.1111C44.4008 51.1111 44.3308 51.2111 44.2908 51.2611C44.2481 51.4006 44.2246 51.5453 44.2208 51.6911C44.3047 51.5301 44.4017 51.3762 44.5108 51.2311C44.809 50.8644 45.1441 50.5293 45.5108 50.2311C45.7694 49.965 46.0937 49.7719 46.4508 49.6711C46.6404 49.6599 46.8286 49.7103 46.9872 49.8148C47.1459 49.9193 47.2664 50.0724 47.3308 50.2511C47.516 50.6735 47.6341 51.1223 47.6808 51.5811C47.7492 51.265 47.7927 50.944 47.8108 50.6211Z" fill="#85523A"/>
<path d="M22.8108 29.5708C22.7482 29.5844 22.6834 29.5844 22.6208 29.5708C22.5825 29.5448 22.5497 29.5114 22.5244 29.4725C22.4991 29.4337 22.4818 29.3902 22.4734 29.3447C22.465 29.2991 22.4658 29.2523 22.4757 29.207C22.4855 29.1617 22.5043 29.1188 22.5308 29.0808C22.9709 28.4645 23.6279 28.0374 24.3698 27.8853C25.1117 27.7333 25.8837 27.8674 26.5308 28.2608C26.611 28.3054 26.6711 28.3788 26.699 28.4661C26.7269 28.5535 26.7204 28.6481 26.6808 28.7309C26.6382 28.8128 26.5648 28.8746 26.4767 28.9027C26.3887 28.9308 26.2931 28.923 26.2108 28.8809C25.7201 28.5641 25.1262 28.4486 24.5526 28.5585C23.9789 28.6684 23.4697 28.9951 23.1308 29.4708C23.0913 29.5146 23.0407 29.5469 22.9845 29.5645C22.9282 29.5821 22.8682 29.5843 22.8108 29.5708Z" fill="#5F372A"/>
<path d="M44.8109 29.571C44.754 29.5715 44.6978 29.5581 44.6473 29.5319C44.5968 29.5058 44.5534 29.4677 44.5208 29.4211C44.1838 28.9461 43.6763 28.6195 43.1043 28.5096C42.5323 28.3997 41.94 28.5148 41.4508 28.831C41.4098 28.8566 41.3639 28.8734 41.3161 28.8804C41.2683 28.8873 41.2195 28.8843 41.1729 28.8715C41.1262 28.8587 41.0828 28.8363 41.0453 28.8059C41.0077 28.7754 40.9769 28.7375 40.9547 28.6945C40.9325 28.6516 40.9195 28.6045 40.9164 28.5562C40.9133 28.508 40.9203 28.4596 40.9369 28.4142C40.9534 28.3688 40.9792 28.3273 41.0126 28.2923C41.046 28.2573 41.0862 28.2297 41.1308 28.211C41.778 27.8176 42.55 27.6834 43.2919 27.8355C44.0338 27.9876 44.6907 28.4147 45.1308 29.0311C45.1809 29.1098 45.1985 29.2048 45.1798 29.2962C45.1612 29.3877 45.1078 29.4682 45.0309 29.521C44.9636 29.558 44.8874 29.5753 44.8109 29.571Z" fill="#5F372A"/>
<path d="M29.8209 10.7109C29.69 10.5247 29.5238 10.3662 29.3316 10.2443C29.1394 10.1225 28.9251 10.0398 28.7009 10.0009L28.4209 9.9309C28.7709 9.5409 29.0709 9.1209 29.4209 8.7209C29.4809 8.6609 29.5009 8.57091 29.4209 8.53091C28.8799 8.35188 28.3049 8.30053 27.7409 8.38091H27.6009C27.7209 8.05091 27.8309 7.72091 27.9409 7.38091C27.9474 7.36582 27.9502 7.34933 27.9489 7.33292C27.9476 7.3165 27.9422 7.30067 27.9333 7.28681C27.9244 7.27296 27.9122 7.26153 27.8979 7.25352C27.8835 7.24551 27.8673 7.24118 27.8509 7.24091C27.3515 7.22339 26.8532 7.29796 26.3809 7.4609C26.0564 7.55803 25.7417 7.68525 25.4409 7.84091C25.3846 7.55884 25.2974 7.28385 25.1809 7.02091C25.1809 6.94091 25.0209 7.02091 24.9709 7.02091C24.5115 7.34767 24.083 7.71588 23.6909 8.12091C23.4423 8.37269 23.2363 8.66313 23.0809 8.98091C22.6726 8.78274 22.2247 8.67977 21.7709 8.67977C21.317 8.67977 20.8691 8.78274 20.4609 8.98091C20.4231 8.99231 20.3904 9.01651 20.3685 9.04936C20.3466 9.0822 20.3368 9.12164 20.3409 9.16091C20.3873 9.39363 20.4865 9.61258 20.6309 9.80091C20.7606 9.98816 20.9044 10.1653 21.0609 10.3309C20.7196 10.3709 20.3987 10.5139 20.1409 10.7409C19.8109 11.0809 20.1409 11.4709 20.3709 11.7409C20.7448 12.0859 21.1536 12.3908 21.5909 12.6509L21.9509 12.8709H21.9009C21.6409 13.0309 21.2809 13.2809 21.2409 13.6109C21.2331 13.6646 21.2391 13.7194 21.2584 13.7701C21.2776 13.8209 21.3094 13.8659 21.3509 13.9009C21.4607 13.9406 21.581 13.9406 21.6909 13.9009C21.9338 13.8627 22.1697 13.7885 22.3909 13.6809V13.9509C22.3909 14.2609 22.4809 14.5709 22.5309 14.8809C22.6966 15.4165 22.817 15.9651 22.8909 16.5209C22.9709 17.0909 23.0309 17.6609 23.1009 18.2309C23.1709 18.8009 23.2909 19.4409 23.3809 20.0409C23.4909 20.8509 23.6109 21.6509 23.7209 22.4509C24.4637 22.2789 25.1849 22.024 25.8709 21.6909C26.9218 21.2639 27.7987 20.4961 28.3609 19.5109C28.4562 19.3014 28.5202 19.079 28.5509 18.8509L27.9509 14.9309C27.8409 14.5009 27.7309 14.0609 27.6409 13.6209C27.6009 13.4209 27.5709 13.2209 27.5509 13.0209H27.6309C27.9663 13.0466 28.3038 13.0197 28.6309 12.9409C28.7109 12.9409 28.8409 12.8109 28.7709 12.7109C28.6033 12.4685 28.3933 12.2584 28.1509 12.0909L27.9109 11.9509L28.1909 11.8009C28.4564 11.6589 28.7076 11.4914 28.9409 11.3009C29.1599 11.1031 29.4016 10.9319 29.6609 10.7909C29.7909 10.8809 29.8709 10.8009 29.8209 10.7109Z" fill="#AC7A33"/>
<path d="M29.8209 10.7109C29.69 10.5247 29.5238 10.3662 29.3316 10.2443C29.1394 10.1225 28.9251 10.0398 28.7009 10.0009L28.4209 9.9309C28.7709 9.5409 29.0709 9.1209 29.4209 8.7209C29.4809 8.6609 29.5009 8.57091 29.4209 8.53091C28.8799 8.35188 28.3049 8.30053 27.7409 8.38091H27.6009C27.7209 8.05091 27.8309 7.72091 27.9409 7.38091C27.9474 7.36582 27.9502 7.34933 27.9489 7.33292C27.9476 7.3165 27.9422 7.30067 27.9333 7.28681C27.9244 7.27296 27.9122 7.26153 27.8979 7.25352C27.8835 7.24551 27.8673 7.24118 27.8509 7.24091C27.3515 7.22339 26.8532 7.29796 26.3809 7.4609C26.0564 7.55803 25.7417 7.68525 25.4409 7.84091C25.3846 7.55884 25.2974 7.28385 25.1809 7.02091C25.1809 6.94091 25.0209 7.02091 24.9709 7.02091C24.5115 7.34767 24.083 7.71588 23.6909 8.12091C23.4423 8.37269 23.2363 8.66313 23.0809 8.98091C22.6726 8.78274 22.2247 8.67977 21.7709 8.67977C21.317 8.67977 20.8691 8.78274 20.4609 8.98091C20.4231 8.99231 20.3904 9.01651 20.3685 9.04936C20.3466 9.0822 20.3368 9.12164 20.3409 9.16091C20.3873 9.39363 20.4865 9.61258 20.6309 9.80091C20.7467 9.97192 20.8772 10.1325 21.0209 10.2809L20.6709 10.3309C20.4638 10.3961 20.2656 10.4868 20.0809 10.6009C19.7809 10.7809 19.2709 11.0609 19.2609 11.4609C19.2691 11.5577 19.3007 11.651 19.353 11.7329C19.4052 11.8147 19.4765 11.8827 19.5609 11.9309C19.7509 12.0809 19.9509 12.2109 20.1509 12.3609C20.5658 12.6752 21.0487 12.8876 21.5609 12.9809H21.6309C21.4881 13.1157 21.3576 13.263 21.2409 13.4209C21.1258 13.5939 21.0222 13.7743 20.9309 13.9609C20.8327 14.1318 20.7778 14.324 20.7709 14.5209C20.7709 15.2909 22.3109 14.5209 22.6309 14.3609C22.8248 14.2514 23.0059 14.1205 23.1709 13.9709C23.1709 14.0809 23.1709 14.2009 23.1709 14.3109C23.1737 14.499 23.2368 14.6813 23.3509 14.8309C23.3767 14.8548 23.4106 14.8681 23.4459 14.8681C23.4811 14.8681 23.515 14.8548 23.5409 14.8309C23.9675 14.5231 24.3111 14.1142 24.5409 13.6409L24.7709 13.3409C24.766 13.3808 24.766 13.421 24.7709 13.4609C24.808 13.6491 24.872 13.8309 24.9609 14.0009C25.0309 14.1409 25.1209 14.3209 25.2809 14.3609C25.6209 14.4609 25.8509 13.9809 25.9709 13.7509C26.0909 13.5209 26.2009 13.3409 26.3009 13.1309C26.363 13.1896 26.4299 13.2431 26.5009 13.2909C26.8792 13.5279 27.3068 13.675 27.7509 13.7209C27.9363 13.7506 28.1254 13.7506 28.3109 13.7209C28.5532 13.69 28.7801 13.5853 28.9609 13.4209C29.3009 13.0409 28.8909 12.5809 28.6009 12.3209L28.1409 11.9409H28.2209C28.4864 11.7989 28.7376 11.6314 28.9709 11.4409C29.1899 11.2431 29.4316 11.0719 29.6909 10.9309C29.7909 10.8809 29.8709 10.8009 29.8209 10.7109Z" fill="#6C412C"/>
<path d="M38.6008 10.7109C38.7316 10.5247 38.8979 10.3662 39.0901 10.2443C39.2823 10.1225 39.4966 10.0398 39.7208 10.0009L40.0008 9.9309C39.6508 9.5409 39.3408 9.1209 39.0008 8.7209C38.9508 8.6609 38.9308 8.57091 39.0008 8.53091C39.5382 8.35163 40.1101 8.30027 40.6708 8.38091H40.8108C40.7008 8.05091 40.5908 7.72091 40.4708 7.38091C40.4638 7.36503 40.4611 7.34759 40.4628 7.33032C40.4646 7.31306 40.4708 7.29655 40.4809 7.28242C40.491 7.26829 40.5046 7.25704 40.5204 7.24976C40.5362 7.24248 40.5535 7.23943 40.5708 7.24091C41.0702 7.22339 41.5685 7.29796 42.0408 7.4609C42.3647 7.55979 42.6792 7.68695 42.9808 7.84091C43.0276 7.5565 43.1152 7.28033 43.2408 7.02091C43.2408 6.94091 43.4008 7.02091 43.4408 7.02091C43.9055 7.3449 44.3375 7.7133 44.7308 8.12091C44.9793 8.37269 45.1854 8.66313 45.3408 8.98091C45.7491 8.78274 46.197 8.67977 46.6508 8.67977C47.1046 8.67977 47.5526 8.78274 47.9608 8.98091C47.9976 8.99385 48.0292 9.0184 48.0509 9.05087C48.0725 9.08333 48.083 9.12195 48.0808 9.16091C48.0344 9.39363 47.9352 9.61258 47.7908 9.80091C47.661 9.98816 47.5173 10.1653 47.3608 10.3309C47.702 10.3709 48.023 10.5139 48.2808 10.7409C48.6108 11.0809 48.2808 11.4709 48.0508 11.7409C47.6769 12.0859 47.268 12.3908 46.8308 12.6509L46.4608 12.8709H46.5208C46.7808 13.0309 47.1408 13.2809 47.1708 13.6109C47.1806 13.6647 47.1756 13.7201 47.1562 13.7712C47.1368 13.8223 47.1038 13.8672 47.0608 13.9009C46.9511 13.9415 46.8305 13.9415 46.7208 13.9009C46.4814 13.8612 46.249 13.7871 46.0308 13.6809V13.9509C46.0308 14.2609 45.9408 14.5709 45.8908 14.8809C45.717 15.4149 45.5931 15.964 45.5208 16.5209C45.4408 17.0909 45.3908 17.6609 45.3208 18.2309C45.2508 18.8009 45.1308 19.4409 45.0408 20.0409C44.9208 20.8509 44.8108 21.6509 44.7008 22.4509C43.9543 22.2805 43.2296 22.0255 42.5408 21.6909C41.4945 21.2607 40.6217 20.4935 40.0608 19.5109C39.9655 19.3014 39.9015 19.079 39.8708 18.8509L40.4708 14.9309C40.5708 14.5009 40.6908 14.0609 40.7708 13.6209C40.7708 13.4209 40.8508 13.2209 40.8708 13.0209H40.7808C40.4454 13.0473 40.1078 13.0203 39.7808 12.9409C39.6908 12.9409 39.5708 12.8109 39.6408 12.7109C39.8083 12.4685 40.0184 12.2584 40.2608 12.0909C40.3359 12.0363 40.4163 11.9894 40.5008 11.9509L40.2108 11.8009C39.9499 11.6564 39.7023 11.4891 39.4708 11.3009C39.25 11.1053 39.0086 10.9343 38.7508 10.7909C38.6208 10.8809 38.5508 10.8009 38.6008 10.7109Z" fill="#AC7A33"/>
</svg>
