<svg width="68" height="68" viewBox="0 0 68 68" fill="none" xmlns="http://www.w3.org/2000/svg">
<path d="M61.68 1H6.35001C3.39528 1 1 3.39527 1 6.34999V61.68C1 64.6347 3.39528 67.03 6.35001 67.03H61.68C64.6347 67.03 67.03 64.6347 67.03 61.68V6.34999C67.03 3.39527 64.6347 1 61.68 1Z" fill="#FFF6D9" stroke="#FCDC77" stroke-miterlimit="10"/>
<path d="M45.4566 24.8894C45.4566 24.8894 51.8966 14.8894 66.2266 18.3494C69.1066 19.0494 61.6166 30.0394 53.4766 29.9694C44.3766 29.8894 45.4566 24.8894 45.4566 24.8894Z" fill="#F8A8A0"/>
<g style="mix-blend-mode:multiply">
<path d="M63.0566 22.3591C61.6342 23.858 59.9713 25.1085 58.1366 26.0591C57.3505 26.463 56.5308 26.7976 55.6866 27.0591C54.3801 27.4703 53.0424 27.7747 51.6866 27.9691C50.9766 28.0791 50.2566 28.1591 49.5366 28.2091C48.8208 28.2591 48.1024 28.2591 47.3866 28.2091L46.7666 28.1591C46.2715 27.772 45.887 27.2614 45.6518 26.6786C45.4165 26.0958 45.3389 25.4614 45.4266 24.8391C45.4266 24.8391 51.6066 15.2191 65.2966 18.0991C64.9994 19.7135 64.2181 21.1992 63.0566 22.3591Z" fill="#F8A8A0"/>
</g>
<path d="M45.4565 24.8892C45.4565 24.8892 51.8366 14.9492 66.0266 18.2992C65.667 18.2742 65.3061 18.2742 64.9466 18.2992C64.0509 18.3743 63.1658 18.5453 62.3065 18.8092C61.5391 19.0262 60.7901 19.3037 60.0666 19.6392C58.1324 20.5169 56.3659 21.725 54.8466 23.2092C54.8284 23.2244 54.8163 23.2455 54.8123 23.2688C54.8083 23.2921 54.8127 23.3161 54.8246 23.3365C54.8366 23.3569 54.8555 23.3723 54.8778 23.3802C54.9001 23.388 54.9245 23.3877 54.9466 23.3792C55.6776 23.1809 56.4546 23.241 57.1465 23.5492C55.9916 23.7719 54.8805 24.1805 53.8565 24.7592C53.7665 24.8092 53.8566 24.9792 53.9466 24.9392C54.7518 24.6669 55.628 24.6917 56.4165 25.0092C55.2813 25.4283 54.2185 26.0221 53.2665 26.7692C53.244 26.7838 53.2282 26.8067 53.2226 26.833C53.2169 26.8592 53.222 26.8867 53.2365 26.9092C53.2511 26.9318 53.2741 26.9476 53.3003 26.9532C53.3266 26.9588 53.354 26.9538 53.3766 26.9392C54.0873 26.5596 54.8947 26.3995 55.6966 26.4792C55.0871 26.81 54.5197 27.2128 54.0066 27.6792C53.2649 28.3517 52.5947 29.0991 52.0066 29.9092C44.4966 29.3292 45.4565 24.8892 45.4565 24.8892Z" fill="#FFF7E5"/>
<g style="mix-blend-mode:multiply">
<path d="M45.4566 24.8893C46.2155 23.8187 47.1095 22.8507 48.1166 22.0093C48.2066 22.0993 48.2966 22.1793 48.3766 22.2693C49.8965 23.7931 51.0966 25.6053 51.9066 27.5993C52.1252 28.1776 52.2957 28.7729 52.4166 29.3793L52.0166 29.9093C44.4966 29.3293 45.4566 24.8893 45.4566 24.8893Z" fill="#E0E1E2"/>
</g>
<path d="M22.5966 24.5892C22.5966 24.5892 15.7966 14.7892 1.59662 18.7992C-1.25338 19.5992 6.59662 30.3192 14.7566 29.9492C23.8466 29.5892 22.5966 24.5892 22.5966 24.5892Z" fill="#F8A8A0"/>
<g style="mix-blend-mode:multiply">
<path d="M4.92657 22.699C6.40128 24.1464 8.1083 25.3363 9.97659 26.219C10.773 26.6229 11.6027 26.9575 12.4566 27.219C13.7678 27.5775 15.1053 27.8316 16.4566 27.979C17.1766 28.059 17.8966 28.119 18.6266 28.149C19.3409 28.1673 20.0556 28.1406 20.7666 28.069L21.3766 27.999C21.8583 27.5939 22.2254 27.0695 22.4413 26.4781C22.6571 25.8868 22.7141 25.2493 22.6066 24.629C22.6066 24.629 16.0866 15.239 2.50659 18.629C2.88408 20.1988 3.72769 21.6176 4.92657 22.699Z" fill="#F8A8A0"/>
</g>
<path d="M22.5966 24.589C22.5966 24.589 15.8566 14.879 1.79657 18.739C2.15614 18.7142 2.51701 18.7142 2.87659 18.739C3.77486 18.7852 4.66611 18.9225 5.53659 19.149C6.31171 19.3435 7.07062 19.5976 7.80658 19.909C9.77093 20.714 11.5784 21.8581 13.1466 23.289C13.2266 23.349 13.1466 23.479 13.0566 23.449C12.3191 23.2868 11.5486 23.3748 10.8666 23.699C12.024 23.8843 13.1446 24.2522 14.1866 24.789C14.2866 24.849 14.1866 25.019 14.1166 24.979C13.3004 24.737 12.4247 24.7937 11.6466 25.139C12.7946 25.5172 13.8774 26.0704 14.8566 26.779C14.8747 26.7942 14.8868 26.8153 14.8908 26.8386C14.8948 26.8619 14.8905 26.8859 14.8785 26.9063C14.8665 26.9267 14.8477 26.9421 14.8253 26.95C14.803 26.9578 14.7787 26.9574 14.7566 26.949C14.0286 26.6026 13.2159 26.4741 12.4166 26.579C13.0383 26.8857 13.6195 27.2687 14.1466 27.719C14.9112 28.3636 15.6051 29.0877 16.2166 29.879C23.7066 28.999 22.5966 24.589 22.5966 24.589Z" fill="#FFF7E5"/>
<g style="mix-blend-mode:multiply">
<path d="M22.5966 24.5891C21.7981 23.5459 20.8669 22.6113 19.8266 21.8091L19.5766 22.0691C18.1173 23.6517 16.9856 25.5073 16.2466 27.5291C16.0474 28.1157 15.8969 28.7177 15.7966 29.3291C15.9366 29.4891 16.0866 29.6591 16.2166 29.8391C23.7066 28.9991 22.5966 24.5891 22.5966 24.5891Z" fill="#E0E1E2"/>
</g>
<path d="M51.3366 35.0994C51.3366 45.3394 43.5466 55.8194 33.9266 55.8194C24.3066 55.8194 16.5266 45.3394 16.5266 35.0994C16.5266 24.8594 24.3166 16.5894 33.9266 16.5894C43.5366 16.5894 51.3366 24.8594 51.3366 35.0994Z" fill="#D4CFC2"/>
<path d="M50.7666 34.4994C50.7666 44.4094 43.2266 54.4994 33.9266 54.4994C24.6266 54.4994 17.0566 44.4094 17.0566 34.4994C17.0566 24.5894 24.6266 16.5894 33.9266 16.5894C43.2266 16.5894 50.7666 24.5894 50.7666 34.4994Z" fill="#FFF7E5"/>
<path d="M37.8766 43.5893C35.8766 40.0693 34.4466 39.8593 33.9466 39.9193C33.4466 39.9793 32.0566 40.0993 30.0566 43.5893C29.0566 45.3993 28.5866 47.6993 29.8566 49.5193C30.2373 50.067 30.7238 50.533 31.2873 50.8898C31.8508 51.2467 32.4801 51.4872 33.1379 51.5971C33.7958 51.7071 34.4691 51.6843 35.118 51.5301C35.767 51.3759 36.3785 51.0934 36.9166 50.6993C39.3166 49.0193 39.2366 46.0093 37.8766 43.5893Z" fill="#EDE6D7"/>
<path d="M33.9265 47.4492C33.8735 47.4492 33.8226 47.4282 33.7851 47.3907C33.7476 47.3531 33.7266 47.3023 33.7266 47.2492V43.8992C33.7266 43.8462 33.7476 43.7953 33.7851 43.7578C33.8226 43.7203 33.8735 43.6992 33.9265 43.6992C33.9796 43.6992 34.0305 43.7203 34.068 43.7578C34.1055 43.7953 34.1266 43.8462 34.1266 43.8992V47.2492C34.1266 47.3023 34.1055 47.3531 34.068 47.3907C34.0305 47.4282 33.9796 47.4492 33.9265 47.4492Z" fill="#48484A"/>
<path d="M31.1665 49.5891C31.1223 49.579 31.0829 49.5543 31.0547 49.5188C31.0264 49.4834 31.011 49.4394 31.011 49.3941C31.011 49.3488 31.0264 49.3048 31.0547 49.2694C31.0829 49.234 31.1223 49.2092 31.1665 49.1991C31.9465 49.0591 33.7665 48.5791 33.7665 47.0291C33.7665 46.9761 33.7876 46.9252 33.8251 46.8877C33.8626 46.8502 33.9135 46.8291 33.9666 46.8291C34.0196 46.8291 34.0705 46.8502 34.108 46.8877C34.1455 46.9252 34.1665 46.9761 34.1665 47.0291C34.1665 48.3091 33.0765 49.2691 31.2365 49.5891H31.1665Z" fill="#48484A"/>
<path d="M36.6966 49.5891C34.8666 49.2691 33.7666 48.3091 33.7666 47.0291C33.7666 46.9761 33.7877 46.9252 33.8252 46.8877C33.8627 46.8502 33.9136 46.8291 33.9666 46.8291C34.0197 46.8291 34.0705 46.8502 34.108 46.8877C34.1455 46.9252 34.1666 46.9761 34.1666 47.0291C34.1666 48.5791 35.9866 49.0291 36.7666 49.1991C36.8188 49.2089 36.8653 49.238 36.8968 49.2807C36.9284 49.3234 36.9426 49.3764 36.9366 49.4291C36.9319 49.4556 36.9218 49.4809 36.907 49.5034C36.8923 49.526 36.8731 49.5453 36.8507 49.5602C36.8283 49.5752 36.8031 49.5854 36.7766 49.5904C36.7501 49.5954 36.7229 49.5949 36.6966 49.5891Z" fill="#48484A"/>
<path d="M36.0566 42.6893C35.8883 42.5041 35.6804 42.3593 35.4484 42.2658C35.2163 42.1723 34.9662 42.1325 34.7166 42.1492H33.1166C32.867 42.1332 32.6171 42.1734 32.3852 42.2669C32.1532 42.3603 31.9453 42.5047 31.7766 42.6893C30.9066 43.9793 32.3666 45.3392 33.8466 45.4292H33.9866C35.4766 45.3392 36.9466 43.9793 36.0566 42.6893Z" fill="#F8A8A0"/>
<path d="M47.4566 19.5894C47.2555 19.3751 47.0097 19.2078 46.7366 19.0994C46.7888 18.3259 46.5696 17.5585 46.1166 16.9294C45.5773 16.302 44.8114 15.9137 43.9866 15.8494C43.4726 15.7656 42.9453 15.8424 42.4766 16.0694L42.2366 16.1994C42.1352 15.7526 41.8891 15.3519 41.5366 15.0594C40.983 14.692 40.328 14.5079 39.664 14.533C39.0001 14.5582 38.3609 14.7912 37.8366 15.1994L37.7066 14.8994C37.5343 14.5809 37.2993 14.3006 37.0158 14.0754C36.7322 13.8503 36.4059 13.6849 36.0566 13.5894C35.3235 13.3641 34.5397 13.3641 33.8066 13.5894C33.3816 13.7228 32.9801 13.9218 32.6166 14.1794C32.5379 14.0667 32.4474 13.9628 32.3466 13.8694C31.6163 13.2496 30.6721 12.9409 29.7166 13.0094C28.7927 13.0387 27.8983 13.3414 27.1466 13.8794C26.6104 14.2679 26.1973 14.8025 25.9566 15.4194C25.7934 15.4093 25.6298 15.4093 25.4666 15.4194C24.6394 15.5196 23.8742 15.9092 23.3066 16.5194C23.0262 16.8405 22.8363 17.2305 22.7566 17.6494C22.6916 18.0091 22.7122 18.3791 22.8166 18.7294L22.5966 18.8594C22.1467 19.1278 21.7418 19.4652 21.3966 19.8594C21.0462 20.2425 20.8227 20.7244 20.7566 21.2394C20.7538 21.7079 20.8994 22.1654 21.1724 22.5462C21.4454 22.927 21.8319 23.2116 22.2766 23.3594C23.151 23.7466 24.1305 23.8277 25.0566 23.5894C25.5615 23.4598 26.046 23.2613 26.4966 22.9994C26.745 22.8473 26.9793 22.6733 27.1966 22.4794C27.4458 22.7083 27.7382 22.8851 28.0566 22.9994C28.6344 23.1691 29.2488 23.1691 29.8266 22.9994C30.4357 22.8467 31.0028 22.5597 31.4866 22.1594L31.6466 22.0194C32.0397 22.6835 32.6736 23.1706 33.4166 23.3794C34.0817 23.5225 34.7734 23.481 35.4166 23.2594C36.0746 23.0781 36.6763 22.7342 37.1666 22.2594C37.614 22.4291 38.0882 22.5171 38.5666 22.5194C38.7835 22.5155 38.9989 22.4818 39.2066 22.4194C39.4118 22.341 39.6093 22.2439 39.7966 22.1294L40.1366 21.8994C40.2898 22.2063 40.5124 22.4733 40.7866 22.6794C41.2626 23.0083 41.8281 23.1828 42.4066 23.1794C43.117 23.2078 43.8179 23.008 44.4066 22.6094C44.6354 22.4524 44.8407 22.2639 45.0166 22.0494C45.0562 22.0817 45.0999 22.1087 45.1466 22.1294C45.3793 22.268 45.6395 22.3542 45.9089 22.3818C46.1784 22.4095 46.4506 22.3779 46.7066 22.2894C46.9886 22.1833 47.243 22.0149 47.4508 21.7967C47.6586 21.5785 47.8144 21.3162 47.9066 21.0294C47.9745 20.7713 47.9683 20.4994 47.8887 20.2447C47.8091 19.99 47.6593 19.7629 47.4566 19.5894Z" fill="#FFF7E5"/>
<g style="mix-blend-mode:multiply">
<path d="M47.4566 19.5892C47.2555 19.375 47.0097 19.2077 46.7366 19.0992C46.7888 18.3258 46.5695 17.5583 46.1166 16.9292C46.0095 16.7939 45.8889 16.67 45.7566 16.5592C45.9251 16.9705 45.987 17.4176 45.9366 17.8592C45.903 18.1423 45.7884 18.4097 45.6066 18.6292C45.655 18.6709 45.6986 18.7179 45.7366 18.7692C45.9186 18.9318 46.0513 19.1423 46.1193 19.3767C46.1873 19.6111 46.188 19.8599 46.1212 20.0947C46.0545 20.3294 45.9229 20.5406 45.7417 20.7041C45.5605 20.8676 45.337 20.9768 45.0966 21.0192C44.8234 21.0681 44.5419 21.0398 44.2839 20.9373C44.026 20.8348 43.8018 20.6623 43.6366 20.4392C43.4931 20.7695 43.2819 21.0659 43.0166 21.3092C42.8086 21.4988 42.5594 21.6372 42.2886 21.7136C42.0178 21.79 41.7329 21.8022 41.4566 21.7492C40.9257 21.6228 40.4597 21.3062 40.1466 20.8592C39.9566 20.6225 39.7954 20.3641 39.6666 20.0892C39.4536 20.3796 39.1701 20.6109 38.843 20.7614C38.5158 20.9119 38.1557 20.9765 37.7966 20.9492C37.6289 20.9348 37.4657 20.8872 37.3166 20.8092C37.2036 20.9641 37.0764 21.108 36.9366 21.2392C36.482 21.6932 35.8991 21.9969 35.2666 22.1092C34.6168 22.2233 33.9482 22.076 33.4066 21.6992C32.8471 21.3197 32.4259 20.7688 32.2066 20.1292L32.0766 20.2792C31.6682 20.813 31.1214 21.2247 30.4956 21.4698C29.8698 21.7148 29.1888 21.7838 28.5266 21.6692C27.9097 21.5254 27.3494 21.2017 26.9166 20.7392C26.4036 21.4309 25.7123 21.9701 24.9166 22.2992C24.5531 22.4517 24.1577 22.5122 23.7653 22.4756C23.3729 22.439 22.9955 22.3063 22.6666 22.0892C22.4049 21.8573 22.2177 21.5531 22.1288 21.215C22.0398 20.8768 22.0529 20.5199 22.1666 20.1892C22.2263 19.8532 22.3947 19.5461 22.6457 19.3148C22.8968 19.0836 23.2168 18.9412 23.5566 18.9092C23.5693 18.9092 23.5819 18.9118 23.5935 18.9169C23.6051 18.922 23.6155 18.9296 23.624 18.939C23.6325 18.9485 23.6389 18.9596 23.6428 18.9717C23.6467 18.9838 23.648 18.9966 23.6466 19.0092C23.6597 19.4426 23.8263 19.8572 24.1166 20.1792C23.9592 19.645 24.0055 19.0713 24.2466 18.5692C24.4961 18.0982 24.8833 17.7145 25.3566 17.4692C25.0211 17.4799 24.691 17.557 24.3855 17.696C24.08 17.8351 23.805 18.0333 23.5766 18.2792C23.5676 18.2937 23.5551 18.3057 23.5402 18.3139C23.5254 18.3222 23.5086 18.3266 23.4916 18.3266C23.4746 18.3266 23.4578 18.3222 23.4429 18.3139C23.4281 18.3057 23.4156 18.2937 23.4066 18.2792C23.3219 17.9513 23.3219 17.6072 23.4066 17.2792C23.5711 16.6996 23.893 16.177 24.3366 15.7692L24.3866 15.7192C23.9586 15.9093 23.574 16.1849 23.2566 16.5292C22.9762 16.8504 22.7863 17.2404 22.7066 17.6592C22.6416 18.019 22.6621 18.3889 22.7666 18.7392L22.5466 18.8692C22.0967 19.1376 21.6917 19.4751 21.3466 19.8692C20.9962 20.2523 20.7727 20.7343 20.7066 21.2492C20.7038 21.7178 20.8493 22.1752 21.1224 22.556C21.3954 22.9368 21.7819 23.2215 22.2266 23.3692C23.1168 23.7647 24.1159 23.8424 25.0566 23.5892C25.5614 23.4597 26.046 23.2612 26.4966 22.9992C26.745 22.8471 26.9793 22.6731 27.1966 22.4792C27.4458 22.7081 27.7382 22.8849 28.0566 22.9992C28.6344 23.169 29.2488 23.169 29.8266 22.9992C30.4356 22.8465 31.0028 22.5595 31.4866 22.1592L31.6466 22.0192C32.0397 22.6833 32.6736 23.1704 33.4166 23.3792C34.0817 23.5224 34.7733 23.4809 35.4166 23.2592C36.0745 23.0779 36.6763 22.734 37.1666 22.2592C37.6139 22.4289 38.0881 22.517 38.5666 22.5192C38.7835 22.5153 38.9988 22.4817 39.2066 22.4192C39.4117 22.3409 39.6092 22.2438 39.7966 22.1292L40.1366 21.8992C40.2898 22.2062 40.5123 22.4732 40.7866 22.6792C41.2625 23.0081 41.8281 23.1827 42.4066 23.1792C43.117 23.2076 43.8179 23.0079 44.4066 22.6092C44.6353 22.4523 44.8407 22.2637 45.0166 22.0492C45.0561 22.0816 45.0999 22.1085 45.1466 22.1292C45.3793 22.2679 45.6395 22.354 45.9089 22.3817C46.1784 22.4093 46.4506 22.3778 46.7066 22.2892C46.9886 22.1832 47.243 22.0148 47.4508 21.7966C47.6586 21.5784 47.8144 21.3161 47.9066 21.0292C47.9745 20.7712 47.9682 20.4992 47.8887 20.2445C47.8091 19.9899 47.6593 19.7627 47.4566 19.5892Z" fill="#E0E1E2"/>
</g>
<g style="mix-blend-mode:multiply">
<path d="M43.8666 40.6391C43.7552 40.6376 43.6456 40.6102 43.5466 40.5591C33.7466 35.4691 24.4266 40.4991 24.3366 40.5591C24.1761 40.6346 23.993 40.6464 23.8242 40.5921C23.6553 40.5378 23.5134 40.4215 23.4271 40.2666C23.3407 40.1117 23.3164 39.9298 23.359 39.7576C23.4016 39.5854 23.508 39.4359 23.6566 39.3391C25.6387 38.3297 27.7631 37.6283 29.9566 37.2591C34.7982 36.3482 39.8052 37.0765 44.1866 39.3291C44.3506 39.4144 44.4742 39.5612 44.5304 39.7373C44.5866 39.9134 44.5708 40.1046 44.4866 40.2691C44.4258 40.3806 44.3362 40.4737 44.2271 40.5388C44.1181 40.6039 43.9936 40.6385 43.8666 40.6391Z" fill="#EDE6D7"/>
</g>
<path d="M24.4366 30.0191C24.3765 30.0177 24.3178 30.0005 24.2666 29.9691C24.2018 29.9227 24.1575 29.8533 24.1426 29.7751C24.1277 29.6969 24.1434 29.6159 24.1866 29.5491C24.5641 29.0208 25.1269 28.6544 25.7626 28.5228C26.3984 28.3912 27.0604 28.5041 27.6166 28.8391C27.6845 28.8772 27.7357 28.9395 27.7598 29.0137C27.7839 29.0878 27.7791 29.1682 27.7466 29.2391C27.7286 29.2749 27.7036 29.3068 27.6731 29.3328C27.6426 29.3589 27.6072 29.3785 27.569 29.3906C27.5308 29.4028 27.4905 29.4071 27.4506 29.4034C27.4107 29.3997 27.3719 29.388 27.3366 29.3691C26.9109 29.1079 26.403 29.0154 25.9126 29.1098C25.4222 29.2041 24.9849 29.4786 24.6866 29.8791C24.6599 29.9214 24.623 29.9564 24.5794 29.9808C24.5357 30.0053 24.4866 30.0184 24.4366 30.0191Z" fill="#5F372A"/>
<path d="M43.4266 30.0192C43.3765 30.0185 43.3275 30.0054 43.2838 29.981C43.2401 29.9565 43.2033 29.9215 43.1766 29.8792C42.878 29.476 42.4388 29.1998 41.9461 29.1054C41.4533 29.0109 40.9431 29.1051 40.5166 29.3692C40.4814 29.3934 40.4414 29.4098 40.3994 29.4174C40.3573 29.4249 40.3142 29.4233 40.2727 29.4128C40.2313 29.4023 40.1927 29.3831 40.1593 29.3564C40.1259 29.3298 40.0986 29.2963 40.0792 29.2582C40.0598 29.2201 40.0488 29.1784 40.0468 29.1357C40.0449 29.093 40.0521 29.0504 40.0679 29.0107C40.0838 28.9711 40.1079 28.9353 40.1387 28.9057C40.1695 28.8761 40.2063 28.8534 40.2466 28.8392C40.8034 28.5066 41.4647 28.395 42.0998 28.5264C42.7349 28.6579 43.2976 29.0229 43.6766 29.5492C43.7187 29.6172 43.7329 29.699 43.7161 29.7773C43.6993 29.8556 43.6529 29.9243 43.5866 29.9692C43.5384 29.9993 43.4833 30.0165 43.4266 30.0192Z" fill="#5F372A"/>
<path d="M26.6366 38.3292C28.4205 38.3292 29.8666 36.883 29.8666 35.0992C29.8666 33.3153 28.4205 31.8691 26.6366 31.8691C24.8527 31.8691 23.4066 33.3153 23.4066 35.0992C23.4066 36.883 24.8527 38.3292 26.6366 38.3292Z" fill="white"/>
<path d="M26.6266 38.429C25.9684 38.427 25.3256 38.23 24.7793 37.8629C24.233 37.4958 23.8077 36.9751 23.5572 36.3665C23.3067 35.7578 23.2422 35.0886 23.3718 34.4433C23.5014 33.798 23.8194 33.2056 24.2855 32.7408C24.7516 32.2761 25.3449 31.96 25.9906 31.8323C26.6363 31.7046 27.3053 31.7711 27.9132 32.0235C28.5211 32.2758 29.0406 32.7026 29.4061 33.25C29.7715 33.7974 29.9666 34.4408 29.9666 35.099C29.9639 35.9831 29.6109 36.8301 28.9848 37.4543C28.3587 38.0785 27.5107 38.429 26.6266 38.429ZM26.6266 31.969C26.008 31.971 25.4038 32.1562 24.8904 32.5014C24.377 32.8465 23.9773 33.336 23.742 33.9081C23.5066 34.4802 23.446 35.1093 23.5679 35.7158C23.6898 36.3223 23.9887 36.879 24.4269 37.3158C24.865 37.7525 25.4227 38.0496 26.0296 38.1696C26.6365 38.2895 27.2653 38.227 27.8367 37.9898C28.408 37.7526 28.8963 37.3514 29.2398 36.8369C29.5833 36.3224 29.7666 35.7177 29.7666 35.099C29.7666 34.6871 29.6853 34.2793 29.5274 33.8989C29.3695 33.5185 29.138 33.173 28.8463 32.8822C28.5546 32.5915 28.2084 32.3611 27.8275 32.2044C27.4465 32.0477 27.0385 31.9677 26.6266 31.969Z" fill="#A45F58"/>
<path d="M26.6366 37.5095C27.9676 37.5095 29.0466 36.4305 29.0466 35.0995C29.0466 33.7685 27.9676 32.6895 26.6366 32.6895C25.3056 32.6895 24.2266 33.7685 24.2266 35.0995C24.2266 36.4305 25.3056 37.5095 26.6366 37.5095Z" fill="#62493E"/>
<path d="M26.6365 36.6493C27.4926 36.6493 28.1866 35.9553 28.1866 35.0993C28.1866 34.2433 27.4926 33.5493 26.6365 33.5493C25.7805 33.5493 25.0865 34.2433 25.0865 35.0993C25.0865 35.9553 25.7805 36.6493 26.6365 36.6493Z" fill="#312017"/>
<path d="M26.2166 34.109C26.2166 34.2602 26.1565 34.4052 26.0496 34.5121C25.9427 34.619 25.7977 34.679 25.6466 34.679C25.5713 34.6804 25.4966 34.6666 25.4268 34.6384C25.3571 34.6103 25.2937 34.5683 25.2405 34.5151C25.1873 34.4619 25.1454 34.3985 25.1172 34.3288C25.0891 34.259 25.0752 34.1843 25.0766 34.109C25.0766 33.9579 25.1366 33.8129 25.2435 33.706C25.3504 33.5991 25.4954 33.5391 25.6466 33.5391C25.7969 33.5416 25.9404 33.6025 26.0468 33.7088C26.1531 33.8152 26.214 33.9587 26.2166 34.109Z" fill="white"/>
<path d="M41.2266 38.3292C43.0104 38.3292 44.4566 36.883 44.4566 35.0992C44.4566 33.3153 43.0104 31.8691 41.2266 31.8691C39.4427 31.8691 37.9966 33.3153 37.9966 35.0992C37.9966 36.883 39.4427 38.3292 41.2266 38.3292Z" fill="white"/>
<path d="M41.2266 38.429C40.568 38.429 39.9242 38.2338 39.3766 37.8679C38.8289 37.5019 38.4021 36.9819 38.1501 36.3734C37.898 35.7649 37.8321 35.0954 37.9606 34.4494C38.0891 33.8034 38.4062 33.2101 38.8719 32.7444C39.3377 32.2787 39.931 31.9615 40.577 31.833C41.2229 31.7045 41.8925 31.7705 42.5009 32.0225C43.1094 32.2746 43.6295 32.7014 43.9954 33.249C44.3613 33.7966 44.5566 34.4404 44.5566 35.0991C44.5566 35.9822 44.2058 36.8292 43.5813 37.4537C42.9568 38.0782 42.1098 38.429 41.2266 38.429ZM41.2266 31.969C40.6076 31.969 40.0024 32.1526 39.4877 32.4965C38.9729 32.8405 38.5718 33.3293 38.3349 33.9012C38.098 34.4732 38.036 35.1025 38.1567 35.7097C38.2775 36.3168 38.5756 36.8745 39.0134 37.3123C39.4511 37.75 40.0088 38.0481 40.616 38.1689C41.2231 38.2897 41.8525 38.2277 42.4244 37.9908C42.9963 37.7539 43.4852 37.3527 43.8291 36.838C44.173 36.3233 44.3566 35.7181 44.3566 35.0991C44.3566 34.2689 44.0268 33.4728 43.4398 32.8858C42.8529 32.2988 42.0567 31.969 41.2266 31.969Z" fill="#A45F58"/>
<path d="M41.2265 37.5095C42.5575 37.5095 43.6365 36.4305 43.6365 35.0995C43.6365 33.7685 42.5575 32.6895 41.2265 32.6895C39.8955 32.6895 38.8165 33.7685 38.8165 35.0995C38.8165 36.4305 39.8955 37.5095 41.2265 37.5095Z" fill="#62493E"/>
<path d="M41.2266 36.6493C42.0826 36.6493 42.7766 35.9553 42.7766 35.0993C42.7766 34.2433 42.0826 33.5493 41.2266 33.5493C40.3705 33.5493 39.6766 34.2433 39.6766 35.0993C39.6766 35.9553 40.3705 36.6493 41.2266 36.6493Z" fill="#312017"/>
<path d="M40.8066 34.109C40.8066 34.2218 40.7731 34.332 40.7105 34.4257C40.6479 34.5195 40.5589 34.5925 40.4547 34.6357C40.3506 34.6788 40.2359 34.6901 40.1254 34.6681C40.0148 34.6461 39.9132 34.5918 39.8335 34.5121C39.7538 34.4324 39.6995 34.3308 39.6775 34.2202C39.6555 34.1097 39.6668 33.9951 39.71 33.8909C39.7531 33.7868 39.8262 33.6977 39.9199 33.6351C40.0136 33.5725 40.1238 33.5391 40.2366 33.5391C40.3877 33.5391 40.5327 33.5991 40.6396 33.706C40.7465 33.8129 40.8066 33.9579 40.8066 34.109Z" fill="white"/>
</svg>
