<svg width="68" height="68" viewBox="0 0 68 68" fill="none" xmlns="http://www.w3.org/2000/svg">
<path d="M61.68 1H6.35001C3.39528 1 1 3.39527 1 6.34999V61.68C1 64.6347 3.39528 67.03 6.35001 67.03H61.68C64.6347 67.03 67.03 64.6347 67.03 61.68V6.34999C67.03 3.39527 64.6347 1 61.68 1Z" fill="#FFF6D9" stroke="#FCDC77" stroke-miterlimit="10"/>
<path d="M21.9225 16.6684C21.5825 16.4784 21.2025 16.3384 20.8425 16.1784C20.6799 16.1186 20.5329 16.0229 20.4125 15.8984C19.6325 14.9484 19.9825 12.7284 19.6325 11.5484C18.9225 9.09838 16.6325 7.18838 14.0525 8.40838C12.9164 9.04747 11.9887 10.0005 11.3803 11.1533C10.772 12.3061 10.5089 13.6099 10.6225 14.9084C10.6677 15.4462 10.8342 15.9668 11.1096 16.431C11.385 16.8952 11.7621 17.2909 12.2125 17.5884C13.2125 18.1684 14.3825 18.1284 15.4125 18.5884C16.9325 19.2284 17.1525 21.1984 18.5625 21.7484C19.0593 21.9019 19.5946 21.8735 20.0725 21.6684C21.6525 21.0884 24.3325 18.3784 22.2325 16.8884C22.1364 16.8054 22.0326 16.7317 21.9225 16.6684Z" fill="#8D92A6"/>
<g style="mix-blend-mode:multiply">
<path d="M22.5825 18.6082C21.4995 18.4906 20.4743 18.0597 19.6325 17.3682C18.8749 16.6244 18.3591 15.6695 18.1525 14.6282C17.9842 13.7552 17.74 12.8986 17.4225 12.0682C17.1525 11.4482 16.7125 10.6782 15.9425 10.6582C15.4877 10.6841 15.0517 10.8481 14.6925 11.1282C14.1369 11.4763 13.7008 11.9856 13.4425 12.5882C13.2772 13.1302 13.2847 13.7102 13.4639 14.2477C13.6431 14.7853 13.9851 15.2538 14.4425 15.5882C14.6906 15.7788 14.9512 15.9525 15.2225 16.1082L16.0825 16.6682C16.6273 17.0022 17.1366 17.3909 17.6025 17.8282C18.0754 18.2888 18.4616 18.8308 18.7425 19.4282C18.9061 19.8008 19.0301 20.1897 19.1125 20.5882C19.2025 20.9982 19.2825 21.4182 19.3725 21.8282C19.622 21.8023 19.8672 21.7452 20.1025 21.6582C20.7625 21.3822 21.3587 20.9735 21.8541 20.4574C22.3496 19.9413 22.7336 19.3289 22.9825 18.6582L22.5825 18.6082Z" fill="#8D92A6"/>
</g>
<g style="mix-blend-mode:multiply">
<path d="M22.2625 16.8585C22.1651 16.7859 22.0614 16.7223 21.9525 16.6685C21.6125 16.4785 21.2325 16.3385 20.8725 16.1785C20.7099 16.1188 20.5629 16.0231 20.4425 15.8985C20.3417 15.7788 20.2607 15.6438 20.2025 15.4985C18.6912 16.4839 17.3896 17.7584 16.3725 19.2485C17.1425 20.0985 17.5325 21.3085 18.5925 21.7185C19.0894 21.872 19.6246 21.8436 20.1025 21.6385C21.6525 21.0585 24.3325 18.3485 22.2625 16.8585Z" fill="#8D92A6"/>
</g>
<path d="M46.0625 16.8586C43.9625 18.3486 46.6425 21.0586 48.2225 21.6386C48.7004 21.8437 49.2357 21.8721 49.7325 21.7186C51.1425 21.1686 51.3525 19.1986 52.8825 18.5586C53.8825 18.1286 55.1225 18.1686 56.0825 17.5586C56.5329 17.2611 56.91 16.8654 57.1854 16.4012C57.4608 15.937 57.6273 15.4164 57.6725 14.8786C57.7861 13.5801 57.523 12.2763 56.9147 11.1235C56.3063 9.97072 55.3786 9.01769 54.2425 8.3786C51.6525 7.1586 49.3725 9.0686 48.6625 11.5186C48.3125 12.6986 48.6625 14.9186 47.8825 15.8686C47.7621 15.9931 47.6151 16.0888 47.4525 16.1486C47.0925 16.3086 46.7125 16.4486 46.3725 16.6386C46.2624 16.7019 46.1586 16.7756 46.0625 16.8586Z" fill="#8D92A6"/>
<g style="mix-blend-mode:multiply">
<path d="M45.7025 18.6082C46.803 18.5001 47.8469 18.0687 48.7025 17.3682C49.4611 16.6266 49.9741 15.6703 50.1725 14.6282C50.3488 13.7561 50.5963 12.8999 50.9125 12.0682C51.1825 11.4482 51.6225 10.6782 52.3925 10.6582C52.8473 10.6841 53.2834 10.8481 53.6425 11.1282C54.1981 11.4763 54.6342 11.9856 54.8925 12.5882C55.0578 13.1302 55.0503 13.7102 54.8712 14.2477C54.692 14.7853 54.35 15.2538 53.8925 15.5882C53.6445 15.7788 53.3839 15.9525 53.1125 16.1082L52.2525 16.6682C51.7078 17.0022 51.1985 17.3909 50.7325 17.8282C50.2596 18.2888 49.8734 18.8308 49.5925 19.4282C49.4245 19.7991 49.3003 20.1885 49.2225 20.5882C49.1225 20.9982 49.0526 21.4182 48.9626 21.8282C48.7131 21.8023 48.4678 21.7452 48.2325 21.6582C47.5706 21.3853 46.9728 20.9777 46.4769 20.4612C45.9811 19.9447 45.5982 19.3307 45.3525 18.6582L45.7025 18.6082Z" fill="#8D92A6"/>
</g>
<g style="mix-blend-mode:multiply">
<path d="M46.0625 16.8585C46.1599 16.7859 46.2636 16.7223 46.3725 16.6685C46.7125 16.4785 47.0925 16.3385 47.4525 16.1785C47.6151 16.1188 47.7621 16.0231 47.8825 15.8985C47.9833 15.7788 48.0643 15.6438 48.1225 15.4985C49.6338 16.4839 50.9354 17.7584 51.9525 19.2485C51.1725 20.0985 50.7925 21.3085 49.7325 21.7185C49.2357 21.872 48.7004 21.8436 48.2225 21.6385C46.6425 21.0585 43.9625 18.3485 46.0625 16.8585Z" fill="#8D92A6"/>
</g>
<path d="M48.1425 17.1285C44.2469 13.3512 39.0338 11.2388 33.6075 11.2388C28.1813 11.2388 22.9682 13.3512 19.0725 17.1285C12.2725 24.0085 15.1725 37.8785 15.1725 37.8785L31.1725 39.6385V40.1985L33.6925 39.9185L36.2025 40.1985V39.6385L52.2025 37.8785C52.2025 37.8785 54.9425 24.0085 48.1425 17.1285Z" fill="#8D92A6"/>
<g style="mix-blend-mode:multiply">
<path d="M52.2625 25.9985C52.113 26.9664 51.5975 27.8399 50.8225 28.4385C50.2093 28.8726 49.4832 29.1192 48.7325 29.1485C47.5585 29.1395 46.3961 28.9158 45.3025 28.4885C44.1368 28.1229 42.9516 27.8225 41.7525 27.5885C40.4525 27.3185 39.1325 27.0985 37.7525 26.9585C35.1511 26.7235 32.5339 26.7235 29.9325 26.9585C28.6325 27.0485 27.3325 27.1985 26.0325 27.3885C24.8887 27.5724 23.7593 27.8364 22.6525 28.1785C21.5325 28.5085 20.4125 28.8485 19.2625 29.0685C18.3856 29.2897 17.471 29.317 16.5825 29.1485C16.0607 29.0259 15.6039 28.7118 15.3025 28.2685C15.0094 27.8065 14.8438 27.2752 14.8225 26.7285C14.8272 26.7088 14.8272 26.6882 14.8225 26.6685C14.3525 30.3994 14.4604 34.1805 15.1425 37.8785L31.1425 39.6385V40.1985L33.6625 39.9185L36.1725 40.1985V39.6385L52.1725 37.8785C52.858 33.9506 52.8884 29.9364 52.2625 25.9985Z" fill="#8D92A6"/>
</g>
<path d="M28.3125 25.5086C28.3145 26.35 28.0666 27.173 27.6004 27.8735C27.1342 28.5739 26.4705 29.1202 25.6935 29.4431C24.9165 29.766 24.0612 29.8511 23.2358 29.6874C22.4105 29.5237 21.6523 29.1187 21.0573 28.5238C20.4623 27.9288 20.0573 27.1706 19.8937 26.3452C19.73 25.5199 19.815 24.6645 20.1379 23.8875C20.4608 23.1105 21.0071 22.4469 21.7076 21.9807C22.408 21.5144 23.2311 21.2666 24.0725 21.2686C25.197 21.2686 26.2755 21.7153 27.0706 22.5104C27.8658 23.3056 28.3125 24.384 28.3125 25.5086Z" fill="white"/>
<path d="M27.2625 25.5084C27.2625 26.1353 27.0766 26.7482 26.7282 27.2695C26.3799 27.7908 25.8848 28.1971 25.3056 28.4371C24.7263 28.677 24.089 28.7398 23.474 28.6175C22.8591 28.4951 22.2943 28.1932 21.851 27.7499C21.4076 27.3066 21.1057 26.7417 20.9834 26.1268C20.8611 25.5119 20.9239 24.8745 21.1638 24.2953C21.4037 23.716 21.81 23.2209 22.3313 22.8726C22.8526 22.5243 23.4655 22.3384 24.0925 22.3384C24.9332 22.3384 25.7395 22.6724 26.334 23.2668C26.9285 23.8613 27.2625 24.6676 27.2625 25.5084Z" fill="#62493E"/>
<path d="M26.1125 25.5083C26.1125 25.9039 25.9952 26.2905 25.7754 26.6194C25.5557 26.9483 25.2433 27.2047 24.8779 27.3561C24.5124 27.5075 24.1103 27.547 23.7223 27.4699C23.3344 27.3927 22.978 27.2022 22.6983 26.9225C22.4186 26.6428 22.2281 26.2865 22.1509 25.8985C22.0737 25.5105 22.1134 25.1084 22.2647 24.743C22.4161 24.3775 22.6725 24.0651 23.0014 23.8454C23.3302 23.6256 23.7169 23.5083 24.1125 23.5083C24.6429 23.5083 25.1516 23.719 25.5267 24.0941C25.9018 24.4692 26.1125 24.9779 26.1125 25.5083Z" fill="#312017"/>
<path d="M23.5225 24.2183C23.5225 24.3666 23.4785 24.5116 23.3961 24.6349C23.3137 24.7583 23.1966 24.8544 23.0595 24.9112C22.9225 24.9679 22.7717 24.9828 22.6262 24.9538C22.4807 24.9249 22.3471 24.8535 22.2422 24.7486C22.1373 24.6437 22.0659 24.51 22.0369 24.3646C22.008 24.2191 22.0228 24.0683 22.0796 23.9312C22.1364 23.7942 22.2325 23.677 22.3558 23.5946C22.4792 23.5122 22.6242 23.4683 22.7725 23.4683C22.9714 23.4683 23.1622 23.5473 23.3028 23.6879C23.4435 23.8286 23.5225 24.0193 23.5225 24.2183Z" fill="white"/>
<path d="M47.4926 25.5086C47.4945 26.3504 47.2464 27.1739 46.7798 27.8746C46.3131 28.5752 45.6488 29.1215 44.8713 29.4441C44.0937 29.7667 43.2378 29.8511 42.4122 29.6866C41.5866 29.5221 40.8284 29.1162 40.2338 28.5202C39.6392 27.9242 39.2351 27.1651 39.0725 26.3391C38.91 25.5131 38.9964 24.6574 39.3209 23.8806C39.6453 23.1038 40.1932 22.4408 40.8949 21.9758C41.5967 21.5108 42.4207 21.2646 43.2626 21.2686C44.3845 21.2739 45.4589 21.7226 46.2513 22.5169C47.0437 23.3112 47.4899 24.3866 47.4926 25.5086Z" fill="white"/>
<path d="M43.2525 28.6784C45.0033 28.6784 46.4225 27.2591 46.4225 25.5084C46.4225 23.7576 45.0033 22.3384 43.2525 22.3384C41.5018 22.3384 40.0825 23.7576 40.0825 25.5084C40.0825 27.2591 41.5018 28.6784 43.2525 28.6784Z" fill="#62493E"/>
<path d="M45.2625 25.5083C45.2625 25.9039 45.1452 26.2905 44.9254 26.6194C44.7057 26.9483 44.3933 27.2047 44.0279 27.3561C43.6624 27.5075 43.2603 27.547 42.8723 27.4699C42.4844 27.3927 42.128 27.2022 41.8483 26.9225C41.5686 26.6428 41.3781 26.2865 41.3009 25.8985C41.2238 25.5105 41.2634 25.1084 41.4148 24.743C41.5661 24.3775 41.8225 24.0651 42.1514 23.8454C42.4803 23.6256 42.867 23.5083 43.2625 23.5083C43.789 23.521 44.2903 23.7358 44.6627 24.1082C45.0351 24.4805 45.2498 24.9819 45.2625 25.5083Z" fill="#312017"/>
<path d="M42.6926 24.2184C42.6926 24.4147 42.6146 24.6029 42.4758 24.7417C42.337 24.8805 42.1488 24.9584 41.9526 24.9584C41.8034 24.9604 41.657 24.9178 41.5322 24.8362C41.4073 24.7546 41.3096 24.6375 41.2516 24.5001C41.1936 24.3626 41.1779 24.211 41.2066 24.0646C41.2352 23.9182 41.3068 23.7836 41.4123 23.6781C41.5178 23.5727 41.6523 23.501 41.7988 23.4724C41.9452 23.4438 42.0968 23.4595 42.2342 23.5175C42.3717 23.5755 42.4887 23.6732 42.5703 23.798C42.652 23.9229 42.6945 24.0693 42.6926 24.2184Z" fill="white"/>
<g style="mix-blend-mode:color-burn">
<path d="M21.1825 19.2383C21.1037 19.2384 21.0268 19.2139 20.9625 19.1683C20.8764 19.1113 20.8164 19.0223 20.7958 18.9211C20.7752 18.8198 20.7956 18.7145 20.8525 18.6283C21.3491 17.9342 22.0885 17.4522 22.924 17.2781C23.7596 17.1039 24.63 17.2504 25.3625 17.6884C25.4541 17.7373 25.5231 17.82 25.5548 17.9189C25.5865 18.0178 25.5786 18.1252 25.5325 18.2184C25.5092 18.2647 25.477 18.3058 25.4376 18.3395C25.3982 18.3732 25.3525 18.3987 25.3032 18.4146C25.2538 18.4304 25.2018 18.4362 25.1502 18.4317C25.0986 18.4272 25.0484 18.4125 25.0025 18.3883C24.4458 18.0315 23.7732 17.902 23.1238 18.0267C22.4743 18.1514 21.8975 18.5207 21.5125 19.0584C21.4771 19.1137 21.4283 19.1593 21.3706 19.1907C21.313 19.2222 21.2482 19.2386 21.1825 19.2383Z" fill="#939598"/>
</g>
<g style="mix-blend-mode:color-burn">
<path d="M46.1325 19.2383C46.0668 19.2386 46.0021 19.2222 45.9444 19.1907C45.8867 19.1593 45.8379 19.1137 45.8025 19.0584C45.4159 18.5227 44.8393 18.1549 44.1905 18.0304C43.5418 17.9058 42.8699 18.0339 42.3125 18.3883C42.2666 18.4125 42.2164 18.4272 42.1648 18.4317C42.1132 18.4362 42.0612 18.4304 42.0118 18.4146C41.9625 18.3987 41.9168 18.3732 41.8774 18.3395C41.8381 18.3058 41.8058 18.2647 41.7825 18.2184C41.7365 18.1252 41.7285 18.0178 41.7602 17.9189C41.7919 17.82 41.8609 17.7373 41.9525 17.6884C42.685 17.2504 43.5555 17.1039 44.391 17.2781C45.2265 17.4522 45.9659 17.9342 46.4625 18.6283C46.5194 18.7145 46.5398 18.8198 46.5192 18.9211C46.4986 19.0223 46.4386 19.1113 46.3525 19.1683C46.2882 19.2139 46.2113 19.2384 46.1325 19.2383Z" fill="#939598"/>
</g>
<path d="M53.8925 35.3284C47.1125 27.8884 36.3125 27.6784 33.6525 27.7484C30.9925 27.8184 20.1925 27.8884 13.4025 35.3284C5.61254 43.8684 5.40254 52.8784 10.2525 56.3284C14.0625 58.9884 26.1225 59.4284 33.6525 59.0484C41.1825 59.4284 53.2325 58.9884 57.0425 56.3284C61.9225 52.8784 61.6825 43.8684 53.8925 35.3284Z" fill="#8D92A6"/>
<g style="mix-blend-mode:screen">
<path d="M33.6525 28.7682C36.3125 28.6982 47.1126 28.9082 53.8926 36.3482C58.1626 41.0282 60.1525 45.8282 60.2925 49.7882C60.4825 45.6582 58.5226 40.4282 53.8926 35.3582C47.1126 27.9182 36.3125 27.7082 33.6525 27.7782C30.9925 27.8482 20.1925 27.9182 13.4025 35.3582C8.78255 40.4282 6.82255 45.6582 7.01255 49.7882C7.15255 45.7882 9.14255 41.0282 13.4025 36.3482C20.1925 28.8782 30.9825 28.6682 33.6525 28.7682Z" fill="#8D92A6"/>
</g>
<path d="M24.3325 37.5585C24.2393 37.7056 24.1777 37.8705 24.1519 38.0427C24.1261 38.2149 24.1365 38.3906 24.1825 38.5585C24.4334 39.2959 24.9179 39.9314 25.5625 40.3685C26.0083 40.738 26.5117 41.0318 27.0525 41.2385C27.0575 41.1452 27.0575 41.0518 27.0525 40.9585C27.0339 40.8641 27.0106 40.7706 26.9825 40.6785C26.8199 40.1528 26.6228 39.6383 26.3925 39.1385C26.1672 38.4308 25.6952 37.8276 25.0625 37.4385C24.9465 37.3684 24.8092 37.342 24.6754 37.364C24.5416 37.386 24.42 37.455 24.3325 37.5585Z" fill="#231F20"/>
<g style="mix-blend-mode:multiply">
<path d="M25.8025 35.7686C25.4315 35.5496 25.0084 35.4341 24.5775 35.4341C24.1467 35.4341 23.7236 35.5496 23.3525 35.7686C23.0338 36.0148 22.7724 36.3274 22.5863 36.6846C22.4003 37.0418 22.2941 37.4351 22.2751 37.8374C22.2561 38.2397 22.3247 38.6414 22.4762 39.0145C22.6277 39.3877 22.8585 39.7235 23.1525 39.9987C23.1525 39.9987 23.2325 39.9987 23.2125 39.9987C22.8997 39.6319 22.6821 39.1936 22.5792 38.7226C22.4763 38.2516 22.4912 37.7625 22.6225 37.2986C22.7226 36.8618 22.9611 36.469 23.3025 36.1786C23.5452 36.0002 23.8262 35.8811 24.1231 35.8307C24.4201 35.7804 24.7247 35.8002 25.0125 35.8886C25.661 36.1127 26.2639 36.4514 26.7925 36.8886C26.4973 36.4859 26.166 36.1111 25.8025 35.7686Z" fill="#8D92A6"/>
</g>
<path d="M40.6425 37.5582C40.7358 37.7052 40.7973 37.8701 40.8231 38.0423C40.849 38.2145 40.8385 38.3902 40.7925 38.5582C40.5423 39.2931 40.0619 39.9278 39.4225 40.3682C38.9746 40.7399 38.4676 41.034 37.9225 41.2382V40.9582C37.9225 40.8682 37.9225 40.7682 37.9925 40.6782C38.1541 40.1507 38.3546 39.6359 38.5925 39.1382C38.8145 38.4316 39.283 37.8283 39.9125 37.4382C40.0279 37.366 40.1657 37.3384 40.3001 37.3604C40.4345 37.3825 40.5562 37.4528 40.6425 37.5582Z" fill="#231F20"/>
<g style="mix-blend-mode:multiply">
<path d="M39.1725 35.7686C39.5436 35.5496 39.9666 35.4341 40.3975 35.4341C40.8284 35.4341 41.2514 35.5496 41.6225 35.7686C42.043 36.0739 42.3628 36.4978 42.541 36.9859C42.7191 37.4741 42.7475 38.0043 42.6225 38.5086C42.5196 39.0817 42.2315 39.6051 41.8025 39.9987C41.8025 39.9987 41.7125 39.9987 41.7425 39.9987C42.0537 39.631 42.2694 39.1922 42.3706 38.7213C42.4717 38.2503 42.4552 37.7617 42.3225 37.2986C42.2224 36.8618 41.9839 36.469 41.6425 36.1786C41.4018 36.0004 41.1224 35.8812 40.8271 35.8309C40.5318 35.7805 40.2288 35.8003 39.9425 35.8886C39.29 36.1104 38.6835 36.4493 38.1525 36.8886C38.4572 36.4846 38.7987 36.1097 39.1725 35.7686Z" fill="#8D92A6"/>
</g>
<path d="M52.8225 50.7685C52.8097 50.7184 52.7871 50.6713 52.756 50.6301C52.7248 50.5888 52.6858 50.5541 52.6411 50.528C52.5964 50.502 52.5471 50.4851 52.4958 50.4783C52.4445 50.4715 52.3924 50.475 52.3425 50.4885C52.2928 50.5002 52.2459 50.5217 52.2047 50.5518C52.1635 50.582 52.1288 50.6202 52.1027 50.664C52.0765 50.7079 52.0595 50.7566 52.0526 50.8072C52.0457 50.8578 52.0491 50.9093 52.0625 50.9585C52.1987 51.6028 52.0956 52.2747 51.7725 52.8485C51.568 53.1293 51.3063 53.3636 51.0046 53.536C50.703 53.7083 50.3683 53.8148 50.0225 53.8485C48.9425 54.0585 47.7125 53.5785 46.0225 52.9085C37.7551 49.6151 28.5399 49.6151 20.2725 52.9085C18.5625 53.5785 17.2725 54.0585 16.2725 53.8485C15.9267 53.8148 15.592 53.7083 15.2904 53.536C14.9888 53.3636 14.7271 53.1293 14.5225 52.8485C14.2046 52.2729 14.1018 51.603 14.2325 50.9585C14.2459 50.9093 14.2493 50.8578 14.2424 50.8072C14.2355 50.7566 14.2185 50.7079 14.1924 50.664C14.1662 50.6202 14.1315 50.582 14.0903 50.5518C14.0491 50.5217 14.0022 50.5002 13.9525 50.4885C13.9026 50.475 13.8505 50.4715 13.7992 50.4783C13.748 50.4851 13.6986 50.502 13.6539 50.528C13.6092 50.5541 13.5702 50.5888 13.539 50.6301C13.5079 50.6713 13.4853 50.7184 13.4725 50.7685C13.2812 51.62 13.4168 52.5123 13.8525 53.2685C14.1123 53.6464 14.4486 53.9655 14.8397 54.205C15.2307 54.4444 15.6678 54.599 16.1225 54.6585C16.347 54.6983 16.5745 54.7184 16.8025 54.7185C18.1081 54.6091 19.3843 54.2706 20.5725 53.7185C24.3649 52.0998 28.4491 51.2761 32.5725 51.2985H33.7625C37.8859 51.2761 41.9701 52.0998 45.7625 53.7185C46.9507 54.2706 48.2269 54.6091 49.5325 54.7185C49.7605 54.7184 49.988 54.6983 50.2125 54.6585C50.6672 54.599 51.1043 54.4444 51.4953 54.205C51.8864 53.9655 52.2228 53.6464 52.4825 53.2685C52.9046 52.5071 53.0259 51.615 52.8225 50.7685Z" fill="#494D59"/>
<g style="mix-blend-mode:multiply">
<path d="M16.3625 45.1684C16.3599 45.2436 16.3282 45.3148 16.2741 45.3671C16.22 45.4193 16.1477 45.4485 16.0725 45.4484C16.006 45.4359 15.9461 45.4006 15.9029 45.3486C15.8597 45.2965 15.8361 45.231 15.8361 45.1634C15.8361 45.0958 15.8597 45.0303 15.9029 44.9783C15.9461 44.9263 16.006 44.8909 16.0725 44.8784C16.1494 44.8784 16.2232 44.909 16.2776 44.9634C16.3319 45.0178 16.3625 45.0915 16.3625 45.1684Z" fill="#8D92A6"/>
<path d="M21.4725 46.0282C21.6327 46.0282 21.7625 45.8984 21.7625 45.7382C21.7625 45.5781 21.6327 45.4482 21.4725 45.4482C21.3123 45.4482 21.1825 45.5781 21.1825 45.7382C21.1825 45.8984 21.3123 46.0282 21.4725 46.0282Z" fill="#8D92A6"/>
<path d="M20.2625 42.9583C20.2639 42.9959 20.2576 43.0334 20.2442 43.0686C20.2307 43.1037 20.2103 43.1358 20.1841 43.1628C20.158 43.1899 20.1267 43.2114 20.092 43.2261C20.0574 43.2408 20.0202 43.2484 19.9825 43.2483C19.9406 43.2562 19.8975 43.2548 19.8563 43.2441C19.815 43.2334 19.7766 43.2138 19.7438 43.1866C19.711 43.1593 19.6846 43.1252 19.6664 43.0866C19.6483 43.0481 19.6389 43.006 19.6389 42.9633C19.6389 42.9207 19.6483 42.8786 19.6664 42.84C19.6846 42.8014 19.711 42.7673 19.7438 42.7401C19.7766 42.7129 19.815 42.6933 19.8563 42.6826C19.8975 42.6719 19.9406 42.6705 19.9825 42.6783C20.0568 42.6783 20.128 42.7078 20.1805 42.7603C20.233 42.8129 20.2625 42.8841 20.2625 42.9583Z" fill="#8D92A6"/>
<path d="M19.3625 45.5885C19.3645 45.6739 19.341 45.758 19.2949 45.83C19.2489 45.902 19.1825 45.9587 19.1041 45.9928C19.0257 46.0269 18.939 46.0368 18.8549 46.0214C18.7709 46.0059 18.6933 45.9658 18.6322 45.9061C18.571 45.8463 18.5291 45.7698 18.5117 45.6861C18.4942 45.6024 18.5021 45.5155 18.5344 45.4363C18.5666 45.3572 18.6217 45.2894 18.6926 45.2417C18.7635 45.194 18.847 45.1685 18.9325 45.1685C19.0448 45.1684 19.1527 45.2124 19.2331 45.2909C19.3134 45.3694 19.3599 45.4762 19.3625 45.5885Z" fill="#8D92A6"/>
</g>
<g style="mix-blend-mode:multiply">
<path d="M48.9325 45.1684C48.9325 45.2258 48.9495 45.2819 48.9814 45.3296C49.0132 45.3772 49.0585 45.4144 49.1115 45.4364C49.1645 45.4583 49.2228 45.464 49.2791 45.4529C49.3353 45.4417 49.387 45.4141 49.4276 45.3735C49.4681 45.3329 49.4957 45.2813 49.5069 45.225C49.5181 45.1688 49.5124 45.1105 49.4904 45.0575C49.4685 45.0045 49.4313 44.9592 49.3836 44.9273C49.3359 44.8954 49.2798 44.8784 49.2225 44.8784C49.1456 44.8784 49.0718 44.909 49.0174 44.9634C48.963 45.0178 48.9325 45.0915 48.9325 45.1684Z" fill="#8D92A6"/>
<path d="M43.8325 46.0282C43.9926 46.0282 44.1225 45.8984 44.1225 45.7382C44.1225 45.5781 43.9926 45.4482 43.8325 45.4482C43.6723 45.4482 43.5425 45.5781 43.5425 45.7382C43.5425 45.8984 43.6723 46.0282 43.8325 46.0282Z" fill="#8D92A6"/>
<path d="M45.0825 42.9584C45.0805 43.0165 45.0961 43.074 45.1272 43.1232C45.1583 43.1723 45.2034 43.2111 45.2568 43.2342C45.3102 43.2574 45.3693 43.264 45.4265 43.2531C45.4837 43.2423 45.5362 43.2144 45.5774 43.1733C45.6185 43.1321 45.6464 43.0796 45.6572 43.0224C45.6681 42.9652 45.6615 42.9061 45.6383 42.8527C45.6151 42.7993 45.5765 42.7542 45.5273 42.7231C45.4781 42.692 45.4207 42.6764 45.3625 42.6784C45.289 42.6809 45.2193 42.7112 45.1673 42.7632C45.1153 42.8151 45.085 42.8849 45.0825 42.9584Z" fill="#8D92A6"/>
<path d="M45.9325 45.5885C45.9305 45.6739 45.954 45.758 46 45.83C46.046 45.902 46.1125 45.9587 46.1909 45.9928C46.2693 46.0269 46.356 46.0368 46.4401 46.0214C46.5241 46.0059 46.6017 45.9658 46.6628 45.9061C46.7239 45.8463 46.7659 45.7698 46.7834 45.6861C46.8008 45.6024 46.7928 45.5155 46.7606 45.4363C46.7284 45.3572 46.6733 45.2894 46.6024 45.2417C46.5315 45.194 46.4479 45.1685 46.3625 45.1685C46.2502 45.1684 46.1423 45.2124 46.0619 45.2909C45.9816 45.3694 45.9351 45.4762 45.9325 45.5885Z" fill="#8D92A6"/>
</g>
</svg>
