<svg width="68" height="68" viewBox="0 0 68 68" fill="none" xmlns="http://www.w3.org/2000/svg">
<path d="M61.68 1H6.35001C3.39528 1 1 3.39527 1 6.34999V61.68C1 64.6347 3.39528 67.03 6.35001 67.03H61.68C64.6347 67.03 67.03 64.6347 67.03 61.68V6.34999C67.03 3.39527 64.6347 1 61.68 1Z" fill="#FFF6D9" stroke="#FCDC77" stroke-miterlimit="10"/>
<g style="mix-blend-mode:multiply">
<path d="M22.5592 15.8203C22.0792 15.9203 21.6092 16.0303 21.1292 16.1503C19.5172 16.5099 17.9716 17.1207 16.5493 17.9603C15.0555 18.9472 13.8016 20.2559 12.8792 21.7903C11.8853 23.3917 11.0576 25.0905 10.4092 26.8603C9.99924 27.9403 9.61926 29.0203 9.23926 30.1103L9.37924 30.1703C11.2464 30.8459 13.2725 30.9504 15.1992 30.4703C16.634 30.1483 17.9925 29.5506 19.1992 28.7103C20.9673 27.449 22.3012 25.6709 23.0175 23.6205C23.7338 21.5702 23.7973 19.3482 23.1992 17.2603C23.0322 16.7611 22.8179 16.2789 22.5592 15.8203Z" fill="#65686A"/>
</g>
<g style="mix-blend-mode:multiply">
<path d="M56.0193 25.1703C55.1265 23.3887 54.1002 21.6771 52.9493 20.0503C52.4164 19.3012 51.7839 18.6284 51.0693 18.0503C50.3314 17.4599 49.5257 16.9597 48.6693 16.5603C47.3932 15.9718 46.0499 15.5419 44.6693 15.2803L44.4293 15.6503C44.1244 16.1806 43.8731 16.74 43.6793 17.3203C43.0797 19.4081 43.1425 21.6305 43.8589 23.6812C44.5753 25.7319 45.9101 27.5099 47.6793 28.7703C48.8854 29.6116 50.2441 30.2095 51.6793 30.5303C53.606 31.0103 55.6321 30.9059 57.4993 30.2303C57.7443 30.1391 57.9846 30.0356 58.2193 29.9203C57.4993 28.2603 56.7993 26.6903 56.0193 25.1703Z" fill="#65686A"/>
</g>
<path d="M51.8593 21.05C48.7093 16.67 40.0593 15.38 35.2193 15H31.7893C26.9493 15.38 18.2993 16.67 15.1493 21.05C10.2293 27.89 5.1493 42.72 13.2793 49.13C18.5793 53.31 27.1093 53.94 33.4993 53.76C39.8993 53.94 48.4293 53.31 53.7293 49.13C61.8593 42.76 56.7793 27.93 51.8593 21.05Z" fill="#65686A"/>
<path d="M50.8393 22.0503C47.8393 17.9103 39.6893 16.6903 35.1193 16.3403H31.8892C27.3192 16.6903 19.1492 17.9103 16.1692 22.0503C11.5192 28.5103 6.72925 42.5203 14.3993 48.5703C19.3993 52.5703 27.4692 53.1203 33.4992 52.9503C39.4992 53.1203 47.5992 52.5203 52.6092 48.5703C60.2792 42.4803 55.4893 28.4703 50.8393 22.0503Z" fill="#8F9194"/>
<path d="M25.1693 35.4C27.2238 35.4 28.8893 33.7345 28.8893 31.68C28.8893 29.6255 27.2238 27.96 25.1693 27.96C23.1148 27.96 21.4493 29.6255 21.4493 31.68C21.4493 33.7345 23.1148 35.4 25.1693 35.4Z" fill="white"/>
<path d="M27.9493 31.6804C27.9493 32.2302 27.7863 32.7677 27.4808 33.2249C27.1753 33.682 26.7411 34.0384 26.2332 34.2488C25.7252 34.4592 25.1662 34.5142 24.6269 34.407C24.0877 34.2997 23.5923 34.0349 23.2035 33.6461C22.8147 33.2574 22.55 32.762 22.4427 32.2227C22.3354 31.6835 22.3905 31.1245 22.6009 30.6165C22.8113 30.1086 23.1676 29.6744 23.6248 29.3689C24.082 29.0634 24.6195 28.9004 25.1693 28.9004C25.9058 28.903 26.6113 29.1968 27.1321 29.7175C27.6529 30.2383 27.9467 30.9439 27.9493 31.6804Z" fill="#62493E"/>
<path d="M26.9493 31.6801C26.9493 32.0342 26.8443 32.3802 26.6476 32.6746C26.4509 32.969 26.1713 33.1984 25.8442 33.3339C25.5172 33.4694 25.1573 33.5048 24.81 33.4357C24.4628 33.3667 24.1439 33.1962 23.8935 32.9459C23.6432 32.6955 23.4727 32.3766 23.4037 32.0294C23.3346 31.6821 23.37 31.3222 23.5055 30.9951C23.641 30.6681 23.8704 30.3885 24.1648 30.1918C24.4591 29.9951 24.8052 29.8901 25.1592 29.8901C25.3943 29.8901 25.6271 29.9364 25.8442 30.0264C26.0614 30.1164 26.2587 30.2482 26.425 30.4144C26.5912 30.5806 26.723 30.778 26.813 30.9951C26.903 31.2123 26.9493 31.4451 26.9493 31.6801Z" fill="#312017"/>
<path d="M24.6893 30.5401C24.6866 30.7134 24.616 30.8788 24.4925 31.0004C24.369 31.122 24.2026 31.1902 24.0293 31.1901C23.8569 31.1901 23.6916 31.1217 23.5697 30.9998C23.4478 30.8779 23.3793 30.7125 23.3793 30.5401C23.3793 30.3677 23.4478 30.2024 23.5697 30.0805C23.6916 29.9586 23.8569 29.8901 24.0293 29.8901C24.2026 29.8901 24.369 29.9583 24.4925 30.0799C24.616 30.2015 24.6866 30.3668 24.6893 30.5401Z" fill="white"/>
<path d="M41.9793 35.4C44.0338 35.4 45.6993 33.7345 45.6993 31.68C45.6993 29.6255 44.0338 27.96 41.9793 27.96C39.9248 27.96 38.2593 29.6255 38.2593 31.68C38.2593 33.7345 39.9248 35.4 41.9793 35.4Z" fill="white"/>
<path d="M44.7593 31.6804C44.7593 32.2302 44.5963 32.7677 44.2908 33.2249C43.9853 33.682 43.5511 34.0384 43.0432 34.2488C42.5352 34.4592 41.9762 34.5142 41.4369 34.407C40.8977 34.2997 40.4023 34.0349 40.0135 33.6461C39.6247 33.2574 39.36 32.762 39.2527 32.2227C39.1454 31.6835 39.2005 31.1245 39.4109 30.6165C39.6213 30.1086 39.9776 29.6744 40.4348 29.3689C40.892 29.0634 41.4295 28.9004 41.9793 28.9004C42.7158 28.903 43.4214 29.1968 43.9421 29.7175C44.4629 30.2383 44.7567 30.9439 44.7593 31.6804Z" fill="#62493E"/>
<path d="M41.9793 33.4701C42.9679 33.4701 43.7693 32.6687 43.7693 31.6801C43.7693 30.6915 42.9679 29.8901 41.9793 29.8901C40.9907 29.8901 40.1893 30.6915 40.1893 31.6801C40.1893 32.6687 40.9907 33.4701 41.9793 33.4701Z" fill="#312017"/>
<path d="M41.4993 30.5401C41.4966 30.7134 41.426 30.8788 41.3025 31.0004C41.179 31.122 41.0126 31.1902 40.8393 31.1901C40.6669 31.1901 40.5016 31.1217 40.3797 30.9998C40.2578 30.8779 40.1893 30.7125 40.1893 30.5401C40.1893 30.3677 40.2578 30.2024 40.3797 30.0805C40.5016 29.9586 40.6669 29.8901 40.8393 29.8901C41.0126 29.8901 41.179 29.9583 41.3025 30.0799C41.426 30.2015 41.4966 30.3668 41.4993 30.5401Z" fill="white"/>
<path d="M45.2993 37.7103C45.1707 37.709 45.0441 37.6782 44.9293 37.6203C33.6493 31.7603 22.9293 37.5503 22.8093 37.6203C22.6204 37.721 22.3997 37.744 22.1941 37.6842C21.9886 37.6244 21.8146 37.4866 21.7093 37.3003C21.609 37.1129 21.5863 36.8937 21.6462 36.6898C21.7061 36.4859 21.8436 36.3136 22.0293 36.2103C25.7004 34.379 29.7468 33.4258 33.8493 33.4258C37.9518 33.4258 41.9982 34.379 45.6693 36.2103C45.8602 36.3085 46.0042 36.4785 46.0699 36.6828C46.1355 36.8872 46.1173 37.1093 46.0193 37.3003C45.9457 37.4257 45.8405 37.5296 45.7141 37.6015C45.5878 37.6735 45.4447 37.711 45.2993 37.7103Z" fill="#797A7D"/>
<path d="M38.8393 39.6504H28.1692C28.1692 39.6504 23.3192 44.9204 25.6692 49.0404C27.2092 51.7404 30.6692 52.6704 33.4992 52.5604C36.3392 52.6704 39.7993 51.7404 41.3393 49.0404C43.6893 44.9204 38.8393 39.6504 38.8393 39.6504Z" fill="#DEDFE0"/>
<path d="M33.4993 48.1403C33.4383 48.1403 33.3798 48.1161 33.3366 48.0729C33.2935 48.0298 33.2693 47.9713 33.2693 47.9103V44.0503C33.2693 43.9893 33.2935 43.9308 33.3366 43.8877C33.3798 43.8445 33.4383 43.8203 33.4993 43.8203C33.5603 43.8203 33.6188 43.8445 33.6619 43.8877C33.7051 43.9308 33.7293 43.9893 33.7293 44.0503V47.9103C33.7293 47.9713 33.7051 48.0298 33.6619 48.0729C33.6188 48.1161 33.5603 48.1403 33.4993 48.1403Z" fill="#48484A"/>
<path d="M30.3193 50.6299C30.2583 50.6299 30.1998 50.6057 30.1566 50.5626C30.1135 50.5194 30.0893 50.4609 30.0893 50.3999C30.0893 50.3389 30.1135 50.2804 30.1566 50.2373C30.1998 50.1942 30.2583 50.1699 30.3193 50.1699C31.2193 50.0199 33.3193 49.4599 33.3193 47.6699C33.3217 47.6097 33.3468 47.5527 33.3894 47.51C33.432 47.4674 33.4891 47.4424 33.5493 47.4399C33.5795 47.4399 33.6094 47.4459 33.6373 47.4574C33.6652 47.469 33.6906 47.486 33.7119 47.5073C33.7333 47.5287 33.7502 47.554 33.7618 47.5819C33.7733 47.6098 33.7793 47.6397 33.7793 47.6699C33.7793 49.1499 32.5193 50.2599 30.4093 50.6699L30.3193 50.6299Z" fill="#48484A"/>
<path d="M36.6893 50.6304C34.5793 50.2604 33.3093 49.1504 33.3093 47.6304C33.3117 47.5702 33.3368 47.5131 33.3794 47.4705C33.422 47.4279 33.4791 47.4029 33.5393 47.4004C33.5695 47.4004 33.5994 47.4063 33.6273 47.4179C33.6552 47.4295 33.6805 47.4464 33.7019 47.4677C33.7233 47.4891 33.7402 47.5145 33.7518 47.5424C33.7633 47.5703 33.7693 47.6002 33.7693 47.6304C33.7693 49.4204 35.8693 49.9804 36.7693 50.1304C36.8295 50.1425 36.8827 50.1773 36.9181 50.2275C36.9534 50.2778 36.9682 50.3396 36.9593 50.4004C36.9582 50.4338 36.9501 50.4665 36.9356 50.4966C36.9211 50.5266 36.9005 50.5533 36.8751 50.575C36.8497 50.5966 36.82 50.6127 36.788 50.6223C36.756 50.6318 36.7224 50.6346 36.6893 50.6304Z" fill="#48484A"/>
<path d="M39.4792 31.2404C38.84 30.2347 37.9572 29.4067 36.9128 28.833C35.8683 28.2593 34.6959 27.9585 33.5042 27.9585C32.3126 27.9585 31.1402 28.2593 30.0958 28.833C29.0513 29.4067 28.1685 30.2347 27.5292 31.2404C25.6292 34.8304 24.9593 47.8804 31.7393 47.9504H35.2693C42.0493 47.8804 41.3792 34.8304 39.4792 31.2404Z" fill="#27292A"/>
<path d="M31.3092 46.6603C31.3092 46.6603 30.7793 44.9003 29.3993 45.1703C28.0193 45.4403 31.7292 48.1103 31.3092 46.6603Z" fill="#8F9194"/>
<path d="M35.7293 46.6603C35.7293 46.6603 36.2593 44.9003 37.6393 45.1703C39.0193 45.4403 35.3093 48.1103 35.7293 46.6603Z" fill="#8F9194"/>
<path d="M22.6893 26.0503C22.6119 26.0505 22.5359 26.0297 22.4693 25.9903C22.3825 25.9314 22.3223 25.8407 22.3017 25.7378C22.2811 25.6349 22.3018 25.5281 22.3593 25.4403C22.8555 24.7485 23.5939 24.2688 24.4277 24.0965C25.2614 23.9242 26.1294 24.0719 26.8593 24.5103C26.9056 24.5336 26.9468 24.5658 26.9805 24.6052C27.0141 24.6446 27.0396 24.6903 27.0555 24.7396C27.0713 24.789 27.0771 24.841 27.0726 24.8926C27.0681 24.9442 27.0534 24.9944 27.0293 25.0403C27.0051 25.0857 26.9722 25.126 26.9325 25.1586C26.8927 25.1913 26.8469 25.2158 26.7976 25.2306C26.7483 25.2455 26.6966 25.2505 26.6454 25.2453C26.5942 25.2401 26.5445 25.2248 26.4993 25.2003C25.9448 24.8415 25.2731 24.7109 24.6246 24.8358C23.9761 24.9606 23.4009 25.3313 23.0193 25.8703C22.9832 25.925 22.9343 25.9701 22.8767 26.0015C22.8192 26.0329 22.7548 26.0496 22.6893 26.0503Z" fill="#27292A"/>
<path d="M44.8293 26.0502C44.7645 26.0515 44.7004 26.0367 44.6428 26.007C44.5852 25.9773 44.5358 25.9337 44.4993 25.8802C44.1142 25.3429 43.5383 24.9732 42.8894 24.8467C42.2406 24.7203 41.5679 24.8468 41.0093 25.2002C40.9637 25.228 40.9129 25.2462 40.86 25.2535C40.8071 25.2609 40.7533 25.2573 40.7018 25.243C40.6503 25.2287 40.6024 25.204 40.5609 25.1704C40.5194 25.1368 40.4852 25.095 40.4605 25.0476C40.4358 25.0003 40.4211 24.9484 40.4173 24.8951C40.4134 24.8418 40.4206 24.7884 40.4383 24.738C40.456 24.6876 40.4839 24.6414 40.5202 24.6022C40.5565 24.563 40.6004 24.5317 40.6493 24.5102C41.3785 24.0695 42.2473 23.9205 43.0817 24.0929C43.9161 24.2654 44.6545 24.7466 45.1493 25.4402C45.2068 25.528 45.2274 25.6348 45.2068 25.7377C45.1863 25.8406 45.1261 25.9313 45.0393 25.9902C44.9764 26.0298 44.9036 26.0506 44.8293 26.0502Z" fill="#27292A"/>
<path d="M23.1893 17.26C23.004 16.6765 22.7524 16.1161 22.4393 15.59C21.7433 14.4597 20.8174 13.4883 19.7217 12.7389C18.6261 11.9895 17.3851 11.4788 16.0793 11.24C14.7614 10.9769 13.4077 10.9464 12.0793 11.15C11.3948 11.2606 10.7242 11.445 10.0793 11.7C9.58932 11.89 8.2693 12.36 8.0293 12.87L7.92933 13.11C7.91718 13.1385 7.91257 13.1696 7.91599 13.2004C7.91941 13.2312 7.93073 13.2606 7.94883 13.2857C7.96693 13.3109 7.99121 13.3309 8.01932 13.3439C8.04744 13.3569 8.07844 13.3625 8.10932 13.36H8.41932L7.92933 13.72H7.86933C7.11072 14.1438 6.43352 14.6991 5.86933 15.36C5.26622 16.0792 4.8139 16.9124 4.53931 17.81C4.36931 18.37 3.9493 19.2 4.3093 19.81C4.35318 19.841 4.40561 19.8576 4.45933 19.8576C4.51305 19.8576 4.56544 19.841 4.60932 19.81L5.13932 19.48C5.06932 19.59 5.00932 19.7 4.94932 19.81C4.37479 20.7602 4.15848 21.8844 4.33933 22.98C4.34714 23.0048 4.35993 23.0277 4.37696 23.0473C4.39399 23.067 4.41487 23.0829 4.4383 23.0942C4.46173 23.1054 4.48725 23.1117 4.51322 23.1127C4.53919 23.1137 4.5651 23.1094 4.58933 23.1C4.80369 23.0298 4.99648 22.9059 5.14933 22.74C4.92573 23.7908 4.97366 24.8812 5.28861 25.9083C5.60356 26.9353 6.17512 27.8652 6.94932 28.61C7.66591 29.2725 8.50493 29.7889 9.41932 30.13C11.2865 30.8056 13.3126 30.91 15.2393 30.43C16.6741 30.108 18.0326 29.5102 19.2393 28.67C20.9907 27.4048 22.3095 25.6305 23.0163 23.5888C23.7231 21.5471 23.7835 19.3372 23.1893 17.26Z" fill="#65686A"/>
<path d="M19.8393 17.21C19.5369 16.9297 19.201 16.6879 18.8393 16.49H18.7393C17.8227 15.842 16.7555 15.4392 15.6393 15.32C13.7506 15.0873 11.8457 15.6004 10.3293 16.75C8.89319 17.9072 7.86047 19.4895 7.37928 21.27C7.06376 22.2191 6.96024 23.2259 7.076 24.2194C7.19176 25.2128 7.524 26.1689 8.04929 27.02C8.59632 27.7331 9.28443 28.3258 10.0707 28.7611C10.857 29.1964 11.7246 29.4649 12.6193 29.55C15.6193 29.96 19.1993 28.91 20.9893 26.29C21.8634 24.8728 22.226 23.199 22.0168 21.547C21.8076 19.8951 21.0392 18.3646 19.8393 17.21Z" fill="#DEDFE0"/>
<g style="mix-blend-mode:multiply" opacity="0.37">
<path d="M19.9493 18.2903C19.6729 18.0427 19.3713 17.8248 19.0493 17.6403H18.9593C18.1216 17.0501 17.1479 16.682 16.1293 16.5703C14.4055 16.3628 12.6682 16.8285 11.2793 17.8703C9.97784 18.9364 9.03822 20.379 8.5893 22.0003C8.30332 22.8671 8.20975 23.7859 8.3151 24.6926C8.42045 25.5993 8.72217 26.4721 9.19928 27.2503C9.70077 27.901 10.3305 28.4418 11.0495 28.8391C11.7686 29.2365 12.5615 29.4819 13.3793 29.5603C16.1493 29.9303 19.3793 28.9703 21.0193 26.5603C21.8054 25.2649 22.1276 23.7406 21.9332 22.2378C21.7388 20.7351 21.0392 19.3431 19.9493 18.2903Z" fill="#8F9194"/>
</g>
<path d="M47.5893 28.7101C48.7954 29.5514 50.1541 30.1493 51.5893 30.4701C53.516 30.9501 55.5421 30.8457 57.4093 30.1701C58.3255 29.8267 59.1674 29.3107 59.8893 28.6501C60.5535 28.0295 61.0637 27.2625 61.3793 26.4101C61.8563 25.2615 61.9647 23.993 61.6893 22.7801C61.8384 22.9456 62.0279 23.0696 62.2393 23.1401C62.2642 23.1496 62.2908 23.1541 62.3174 23.1532C62.3441 23.1523 62.3703 23.1461 62.3945 23.1349C62.4188 23.1237 62.4405 23.1078 62.4585 23.0881C62.4765 23.0683 62.4903 23.0452 62.4993 23.0201C62.6748 21.9246 62.4589 20.8022 61.8893 19.8501C61.8293 19.7401 61.7593 19.6301 61.6893 19.5201L62.2193 19.8501C62.2647 19.8819 62.3188 19.899 62.3743 19.899C62.4297 19.899 62.4838 19.8819 62.5293 19.8501C62.8793 19.2801 62.4693 18.4501 62.2893 17.8501C62.0204 16.9451 61.5638 16.1068 60.9493 15.3901C60.3858 14.7284 59.7085 14.173 58.9493 13.7501H58.8893L58.3993 13.3901H58.7093C58.7393 13.3908 58.7691 13.3839 58.7958 13.3702C58.8225 13.3564 58.8454 13.3362 58.8623 13.3113C58.8792 13.2865 58.8896 13.2578 58.8926 13.2279C58.8955 13.198 58.891 13.1678 58.8793 13.1401C58.8502 13.0584 58.8168 12.9782 58.7793 12.9001C58.5393 12.3901 57.2193 11.9001 56.7293 11.7301C56.0846 11.4745 55.414 11.2901 54.7293 11.1801C53.4009 10.9761 52.0471 11.0066 50.7293 11.2701C49.4221 11.5088 48.1797 12.0194 47.0824 12.7687C45.985 13.518 45.0573 14.4895 44.3593 15.6201C44.0544 16.1504 43.8031 16.7099 43.6093 17.2901C43.0144 19.3717 43.0776 21.5863 43.79 23.6306C44.5025 25.675 45.8295 27.4491 47.5893 28.7101Z" fill="#65686A"/>
<path d="M45.7793 26.2703C47.5793 28.8903 51.1193 29.9403 54.1493 29.5303C55.0454 29.4454 55.9145 29.177 56.7025 28.7417C57.4904 28.3065 58.1803 27.7137 58.7293 27.0003C59.2527 26.1484 59.5838 25.1925 59.6995 24.1994C59.8152 23.2062 59.7128 22.1998 59.3993 21.2503C58.9143 19.4716 57.8823 17.8903 56.4493 16.7303C54.9284 15.582 53.0209 15.0693 51.1293 15.3003C50.0135 15.4212 48.9467 15.8239 48.0293 16.4703H47.9293C47.5689 16.6703 47.2333 16.912 46.9293 17.1903C45.7311 18.3459 44.9637 19.8763 44.7546 21.5277C44.5454 23.1792 44.907 24.8525 45.7793 26.2703Z" fill="#DEDFE0"/>
<g style="mix-blend-mode:multiply" opacity="0.37">
<path d="M45.6892 26.5699C47.3192 28.9499 50.5492 29.9099 53.3192 29.5699C54.137 29.4915 54.93 29.2461 55.649 28.8487C56.368 28.4514 56.9978 27.9106 57.4992 27.2599C57.9764 26.4817 58.2781 25.6089 58.3835 24.7022C58.4888 23.7955 58.3952 22.8768 58.1093 22.0099C57.6646 20.3867 56.7242 18.9428 55.4193 17.8799C54.0313 16.8362 52.2932 16.3703 50.5692 16.5799C49.551 16.6933 48.5778 17.0613 47.7393 17.6499H47.6493C47.3288 17.832 47.0302 18.0501 46.7593 18.2999C45.6678 19.3517 44.9671 20.7438 44.7726 22.2471C44.5781 23.7503 44.9014 25.275 45.6892 26.5699Z" fill="#8F9194"/>
</g>
</svg>
