<svg width="68" height="68" viewBox="0 0 68 68" fill="none" xmlns="http://www.w3.org/2000/svg">
<path d="M61.68 1H6.35001C3.39528 1 1 3.39527 1 6.34999V61.68C1 64.6347 3.39528 67.03 6.35001 67.03H61.68C64.6347 67.03 67.03 64.6347 67.03 61.68V6.34999C67.03 3.39527 64.6347 1 61.68 1Z" fill="#FFF6D9" stroke="#FCDC77" stroke-miterlimit="10"/>
<path d="M15.8838 42.2599C15.8838 42.2599 10.5438 48.1099 4.76378 41.8299C-2.37622 34.0499 5.31378 21.3899 16.4738 29.1999L15.8838 42.2599Z" fill="#7F4322"/>
<path d="M13.4638 39.9998C13.0101 40.511 12.4486 40.9151 11.8198 41.1831C11.191 41.4511 10.5106 41.5761 9.82756 41.5493C9.14458 41.5226 8.47604 41.3446 7.87015 41.0282C7.26427 40.7118 6.73613 40.265 6.32382 39.7198C1.73382 34.7198 6.67382 26.5998 13.8438 31.6098L13.4638 39.9998Z" fill="#F9A66C"/>
<g style="mix-blend-mode:multiply">
<path d="M12.0138 27.0601C11.5046 27.8841 11.0823 28.7588 10.7538 29.67C10.238 31.1368 9.92839 32.6681 9.83375 34.2201C9.73514 35.8027 9.83254 37.3913 10.1238 38.95C10.4033 40.4871 10.8771 41.9824 11.5338 43.4001C11.7038 43.7801 11.8938 44.14 12.0938 44.51C13.5284 44.0957 14.8331 43.3211 15.8838 42.26L16.4738 29.2C15.1266 28.2265 13.6161 27.5018 12.0138 27.0601Z" fill="#7F4322"/>
</g>
<path d="M52.3838 42.2599C52.3838 42.2599 57.7238 48.1099 63.4938 41.8299C70.6438 34.0499 62.9438 21.3899 51.7938 29.1999L52.3838 42.2599Z" fill="#7F4322"/>
<path d="M54.7538 40.0001C55.204 40.5123 55.7619 40.9186 56.3877 41.1896C57.0135 41.4607 57.6915 41.5899 58.3731 41.5679C59.0547 41.5459 59.7229 41.3733 60.3299 41.0625C60.9369 40.7516 61.4676 40.3103 61.8838 39.7701C66.4738 34.7701 61.5338 26.6501 54.3738 31.6601L54.7538 40.0001Z" fill="#F9A66C"/>
<g style="mix-blend-mode:multiply">
<path d="M56.7538 43.1198C57.4616 41.7676 57.967 40.3188 58.2538 38.8198C58.5516 37.2889 58.6557 35.7266 58.5638 34.1698C58.4719 32.6438 58.176 31.1371 57.6838 29.6898C57.3594 28.7511 56.93 27.8521 56.4038 27.0098C54.7435 27.4443 53.1796 28.1872 51.7938 29.1998L52.3838 42.2598C53.3718 43.2671 54.5902 44.0188 55.9338 44.4498C56.2375 44.0259 56.5115 43.5815 56.7538 43.1198Z" fill="#7F4322"/>
</g>
<path d="M43.0438 17.4C43.5153 17.1195 43.9517 16.7838 44.3438 16.4C44.4717 16.2662 44.5888 16.1224 44.6938 15.97C45.049 15.2982 45.1953 14.5355 45.1138 13.78C44.5233 14.405 43.8504 14.9466 43.1138 15.39C43.5519 14.9838 43.89 14.4818 44.1016 13.9232C44.3133 13.3645 44.3927 12.7645 44.3338 12.17C44.2749 11.7524 44.1246 11.3529 43.8938 11C43.813 11.5599 43.6143 12.0963 43.3109 12.5738C43.0076 13.0513 42.6063 13.459 42.1338 13.77C41.0521 14.4965 39.8397 15.0059 38.5638 15.27C36.8722 15.6348 35.1527 15.8556 33.4238 15.93H33.2238L32.7638 16C30.0726 16.1419 27.4172 16.681 24.8838 17.6L24.4838 17.71C24.4838 17.71 24.4838 17.71 24.4838 17.77C16.4838 20.9 10.8738 27.77 10.8738 35.72C10.8738 46.64 21.3638 55.49 34.3038 55.49C47.2438 55.49 57.7338 46.64 57.7338 35.72C57.6538 27.43 51.6138 20.34 43.0438 17.4Z" fill="#A65934"/>
<path d="M56.4238 44.6399C53.8538 39.8699 48.4238 40.7299 48.4238 40.7299C53.0338 32.5299 49.5738 24.8199 41.7138 23.6699C36.8838 22.9699 34.3738 24.2599 33.1638 25.3599C31.9438 24.2599 29.4338 22.9699 24.6138 23.6699C16.7438 24.8199 13.2938 32.5299 17.8938 40.7299C17.8938 40.7299 12.5038 39.8699 9.89382 44.6399C7.28382 49.4099 9.88382 58.2199 33.2038 56.8599C56.4838 58.2199 58.9338 49.3099 56.4238 44.6399Z" fill="#FBBF99"/>
<path d="M41.1237 42.5096C41.0266 42.5054 40.9314 42.4817 40.8437 42.4397C33.0137 38.3697 25.5437 42.3897 25.4737 42.4397C25.3292 42.5192 25.159 42.5381 25.0005 42.4922C24.842 42.4462 24.7083 42.3392 24.6288 42.1946C24.5492 42.0501 24.5303 41.8799 24.5762 41.7214C24.6222 41.5629 24.7292 41.4292 24.8737 41.3496C27.4387 40.0565 30.2712 39.3828 33.1438 39.3828C36.0163 39.3828 38.8488 40.0565 41.4137 41.3496C41.4858 41.3866 41.5498 41.4375 41.6019 41.4994C41.6541 41.5613 41.6935 41.6329 41.7177 41.7102C41.7419 41.7874 41.7504 41.8687 41.7429 41.9493C41.7354 42.0299 41.7119 42.1082 41.6737 42.1797C41.6209 42.2796 41.5417 42.3631 41.4447 42.4213C41.3478 42.4795 41.2368 42.51 41.1237 42.5096Z" fill="#C57A63"/>
<path d="M32.9338 53.3799C32.8675 53.3799 32.8039 53.3536 32.757 53.3067C32.7101 53.2598 32.6838 53.1962 32.6838 53.1299V52.1299C32.6838 52.0636 32.7101 52 32.757 51.9531C32.8039 51.9062 32.8675 51.8799 32.9338 51.8799C33.0001 51.8799 33.0637 51.9062 33.1105 51.9531C33.1574 52 33.1838 52.0636 33.1838 52.1299V53.1299C33.1838 53.1962 33.1574 53.2598 33.1105 53.3067C33.0637 53.3536 33.0001 53.3799 32.9338 53.3799Z" fill="#674238"/>
<path d="M30.5538 55.4301C30.0552 55.4366 29.5678 55.2823 29.1638 54.9901C28.7439 54.7239 28.4436 54.3052 28.3261 53.8222C28.2086 53.3391 28.2831 52.8293 28.5338 52.4001C28.5726 52.3549 28.6264 52.325 28.6852 52.3159C28.7441 52.3068 28.8043 52.319 28.855 52.3504C28.9057 52.3818 28.9435 52.4302 28.9616 52.487C28.9797 52.5438 28.9769 52.6052 28.9538 52.6601C28.7669 52.983 28.7146 53.3664 28.8081 53.7275C28.9017 54.0887 29.1336 54.3985 29.4538 54.5901C29.759 54.7981 30.1158 54.9175 30.4847 54.9352C30.8536 54.9528 31.2202 54.868 31.5438 54.6901C31.8826 54.5287 32.1692 54.2753 32.3708 53.9587C32.5724 53.6422 32.6809 53.2753 32.6838 52.9001C32.6838 52.8338 32.7101 52.7702 32.757 52.7233C32.8039 52.6764 32.8675 52.6501 32.9338 52.6501C33.0001 52.6501 33.0637 52.6764 33.1106 52.7233C33.1575 52.7702 33.1838 52.8338 33.1838 52.9001C33.1822 53.3693 33.0481 53.8285 32.7969 54.2249C32.5456 54.6212 32.1875 54.9384 31.7638 55.1401C31.3874 55.3266 30.9738 55.4257 30.5538 55.4301Z" fill="#674238"/>
<path d="M35.3238 55.43C34.9004 55.4268 34.4833 55.3277 34.1038 55.14C33.6801 54.9384 33.322 54.6211 33.0707 54.2248C32.8195 53.8285 32.6854 53.3693 32.6838 52.9C32.6838 52.8337 32.7101 52.7701 32.757 52.7232C32.8039 52.6764 32.8675 52.65 32.9338 52.65C33.0001 52.65 33.0637 52.6764 33.1105 52.7232C33.1574 52.7701 33.1838 52.8337 33.1838 52.9C33.1977 53.2698 33.3091 53.6293 33.5066 53.9421C33.7042 54.255 33.9809 54.5101 34.3087 54.6816C34.6366 54.8531 35.0039 54.935 35.3736 54.9189C35.7432 54.9029 36.1021 54.7894 36.4138 54.59C36.7339 54.3985 36.9659 54.0887 37.0594 53.7275C37.153 53.3664 37.1007 52.9829 36.9138 52.66C36.8801 52.6041 36.8696 52.5373 36.8846 52.4737C36.8995 52.4102 36.9387 52.355 36.9938 52.32C37.0211 52.302 37.0518 52.2897 37.084 52.284C37.1162 52.2783 37.1492 52.2792 37.181 52.2867C37.2129 52.2941 37.2429 52.308 37.2691 52.3275C37.2954 52.347 37.3174 52.3717 37.3338 52.4C37.5854 52.8281 37.6614 53.337 37.5458 53.82C37.4302 54.3029 37.132 54.7223 36.7138 54.99C36.3082 55.2791 35.8218 55.4331 35.3238 55.43Z" fill="#674238"/>
<path d="M28.7138 35.5398C28.7138 36.4362 28.4479 37.3124 27.9497 38.0576C27.4515 38.8027 26.7434 39.3833 25.915 39.7259C25.0867 40.0685 24.1754 40.1576 23.2964 39.982C22.4174 39.8064 21.6102 39.374 20.9771 38.7394C20.3439 38.1049 19.9133 37.2968 19.7396 36.4174C19.566 35.538 19.6571 34.6269 20.0015 33.7993C20.3459 32.9717 20.9281 32.2649 21.6744 31.7684C22.4206 31.2718 23.2974 31.0078 24.1938 31.0098C24.7882 31.0098 25.3768 31.127 25.9259 31.3548C26.4749 31.5826 26.9736 31.9164 27.3935 32.3372C27.8133 32.758 28.1461 33.2574 28.3726 33.807C28.5992 34.3565 28.7151 34.9454 28.7138 35.5398Z" fill="white"/>
<path d="M27.5362 36.0628C27.8321 34.2197 26.5778 32.4857 24.7347 32.1898C22.8915 31.8939 21.1575 33.1482 20.8617 34.9913C20.5658 36.8345 21.82 38.5685 23.6632 38.8643C25.5063 39.1602 27.2403 37.9059 27.5362 36.0628Z" fill="#62493E"/>
<path d="M26.9674 35.9859C27.2131 34.4592 26.1745 33.0224 24.6478 32.7767C23.121 32.5311 21.6842 33.5696 21.4385 35.0964C21.1929 36.6232 22.2315 38.06 23.7582 38.3056C25.285 38.5513 26.7218 37.5127 26.9674 35.9859Z" fill="#312017"/>
<path d="M23.1538 34.6796C23.441 34.6796 23.6738 34.4468 23.6738 34.1596C23.6738 33.8724 23.441 33.6396 23.1538 33.6396C22.8666 33.6396 22.6338 33.8724 22.6338 34.1596C22.6338 34.4468 22.8666 34.6796 23.1538 34.6796Z" fill="white"/>
<path d="M22.5338 35.4198C22.5338 35.5047 22.5001 35.5861 22.4401 35.6461C22.3801 35.7061 22.2987 35.7398 22.2138 35.7398C22.1709 35.7412 22.1282 35.7339 22.0883 35.7184C22.0483 35.7029 22.0118 35.6796 21.981 35.6497C21.9502 35.6199 21.9258 35.5841 21.9091 35.5446C21.8924 35.5052 21.8838 35.4627 21.8838 35.4198C21.8838 35.3323 21.9186 35.2484 21.9804 35.1865C22.0423 35.1246 22.1263 35.0898 22.2138 35.0898C22.2567 35.0898 22.2991 35.0984 22.3386 35.1151C22.3781 35.1318 22.4138 35.1563 22.4437 35.1871C22.4735 35.2179 22.4969 35.2543 22.5124 35.2943C22.5278 35.3343 22.5351 35.377 22.5338 35.4198Z" fill="white"/>
<path d="M46.6338 35.5398C46.6338 36.4362 46.3679 37.3124 45.8696 38.0576C45.3714 38.8027 44.6634 39.3833 43.835 39.7259C43.0067 40.0685 42.0954 40.1576 41.2164 39.982C40.3373 39.8064 39.5302 39.374 38.8971 38.7394C38.2639 38.1049 37.8333 37.2968 37.6596 36.4174C37.486 35.538 37.5771 34.6269 37.9215 33.7993C38.2659 32.9717 38.8481 32.2649 39.5943 31.7684C40.3406 31.2718 41.2174 31.0078 42.1138 31.0098C43.3135 31.0124 44.4632 31.4909 45.3105 32.3401C46.1579 33.1894 46.6338 34.3401 46.6338 35.5398Z" fill="white"/>
<path d="M45.4566 36.0594C45.7525 34.2163 44.4982 32.4823 42.6551 32.1864C40.8119 31.8905 39.078 33.1448 38.7821 34.9879C38.4862 36.831 39.7405 38.565 41.5836 38.8609C43.4267 39.1568 45.1607 37.9025 45.4566 36.0594Z" fill="#62493E"/>
<path d="M44.884 35.9835C45.1297 34.4567 44.0911 33.0199 42.5644 32.7743C41.0376 32.5286 39.6008 33.5672 39.3551 35.0939C39.1095 36.6207 40.148 38.0575 41.6748 38.3032C43.2016 38.5488 44.6384 37.5103 44.884 35.9835Z" fill="#312017"/>
<path d="M41.0638 34.6796C41.351 34.6796 41.5838 34.4468 41.5838 34.1596C41.5838 33.8724 41.351 33.6396 41.0638 33.6396C40.7766 33.6396 40.5438 33.8724 40.5438 34.1596C40.5438 34.4468 40.7766 34.6796 41.0638 34.6796Z" fill="white"/>
<path d="M40.4537 35.4198C40.4538 35.4627 40.4452 35.5052 40.4285 35.5446C40.4118 35.5841 40.3873 35.6199 40.3565 35.6497C40.3257 35.6796 40.2893 35.7029 40.2493 35.7184C40.2093 35.7339 40.1666 35.7412 40.1237 35.7398C40.0389 35.7398 39.9575 35.7061 39.8975 35.6461C39.8375 35.5861 39.8037 35.5047 39.8037 35.4198C39.8024 35.377 39.8097 35.3343 39.8252 35.2943C39.8407 35.2543 39.864 35.2179 39.8939 35.1871C39.9237 35.1563 39.9594 35.1318 39.9989 35.1151C40.0384 35.0984 40.0809 35.0898 40.1237 35.0898C40.2113 35.0898 40.2952 35.1246 40.3571 35.1865C40.419 35.2484 40.4537 35.3323 40.4537 35.4198Z" fill="white"/>
<path d="M31.4338 46.6397C31.4338 46.6397 31.5138 45.1197 30.4338 45.4497C29.3538 45.7797 31.4538 47.0797 31.4338 46.6397Z" fill="#674238"/>
<path d="M33.9338 46.6397C33.9338 46.6397 33.8438 45.1197 34.9338 45.4497C36.0238 45.7797 33.8838 47.0797 33.9338 46.6397Z" fill="#674238"/>
<path d="M21.0338 30.4999C20.9595 30.5003 20.8866 30.4795 20.8238 30.4399C20.7829 30.4137 20.7478 30.3795 20.7205 30.3393C20.6932 30.2992 20.6743 30.2539 20.665 30.2063C20.6556 30.1586 20.656 30.1096 20.6661 30.0621C20.6762 30.0146 20.6958 29.9696 20.7238 29.9299C21.1874 29.2705 21.8842 28.8118 22.6732 28.6466C23.4622 28.4814 24.2845 28.622 24.9738 29.0399C25.0613 29.085 25.1273 29.163 25.1573 29.2568C25.1873 29.3506 25.1789 29.4524 25.1338 29.5399C25.0887 29.6274 25.0107 29.6935 24.9169 29.7235C24.8231 29.7535 24.7213 29.745 24.6338 29.6999C24.1074 29.3662 23.4733 29.2466 22.8615 29.3657C22.2497 29.4847 21.7067 29.8333 21.3438 30.3399C21.3092 30.39 21.2629 30.4309 21.2088 30.4588C21.1547 30.4867 21.0946 30.5008 21.0338 30.4999Z" fill="#C57A63"/>
<path d="M21.0338 30.4999C20.9595 30.5003 20.8866 30.4795 20.8238 30.4399C20.7829 30.4137 20.7478 30.3795 20.7205 30.3393C20.6932 30.2992 20.6743 30.2539 20.665 30.2063C20.6556 30.1586 20.656 30.1096 20.6661 30.0621C20.6762 30.0146 20.6958 29.9696 20.7238 29.9299C21.1874 29.2705 21.8842 28.8118 22.6732 28.6466C23.4622 28.4814 24.2845 28.622 24.9738 29.0399C25.0613 29.085 25.1273 29.163 25.1573 29.2568C25.1873 29.3506 25.1789 29.4524 25.1338 29.5399C25.0887 29.6274 25.0107 29.6935 24.9169 29.7235C24.8231 29.7535 24.7213 29.745 24.6338 29.6999C24.1074 29.3662 23.4733 29.2466 22.8615 29.3657C22.2497 29.4847 21.7067 29.8333 21.3438 30.3399C21.3092 30.39 21.2629 30.4309 21.2088 30.4588C21.1547 30.4867 21.0946 30.5008 21.0338 30.4999Z" fill="#C57A63"/>
<path d="M44.6037 30.4999C44.5429 30.5008 44.4828 30.4867 44.4287 30.4588C44.3746 30.4309 44.3283 30.39 44.2937 30.3399C43.9324 29.8313 43.3892 29.4811 42.7767 29.3619C42.1643 29.2428 41.5294 29.3638 41.0037 29.6999C40.9604 29.7222 40.9131 29.7358 40.8645 29.7399C40.8159 29.7439 40.767 29.7383 40.7206 29.7235C40.6742 29.7086 40.6311 29.6847 40.5939 29.6532C40.5567 29.6218 40.5261 29.5832 40.5037 29.5399C40.4814 29.4966 40.4678 29.4493 40.4638 29.4007C40.4598 29.3521 40.4653 29.3032 40.4802 29.2568C40.495 29.2104 40.5189 29.1673 40.5504 29.1301C40.5819 29.0929 40.6204 29.0622 40.6637 29.0399C41.353 28.622 42.1753 28.4814 42.9643 28.6466C43.7533 28.8118 44.4501 29.2705 44.9137 29.9299C44.9417 29.9696 44.9613 30.0146 44.9714 30.0621C44.9815 30.1096 44.9819 30.1586 44.9725 30.2063C44.9632 30.2539 44.9443 30.2992 44.917 30.3393C44.8897 30.3795 44.8546 30.4137 44.8137 30.4399C44.7509 30.4795 44.678 30.5003 44.6037 30.4999Z" fill="#C57A63"/>
</svg>
