<svg width="68" height="68" viewBox="0 0 68 68" fill="none" xmlns="http://www.w3.org/2000/svg">
<path d="M61.68 1H6.35001C3.39528 1 1 3.39527 1 6.34999V61.68C1 64.6347 3.39528 67.03 6.35001 67.03H61.68C64.6347 67.03 67.03 64.6347 67.03 61.68V6.34999C67.03 3.39527 64.6347 1 61.68 1Z" fill="#FFF6D9" stroke="#FCDC77" stroke-miterlimit="10"/>
<path d="M21.2544 18.1031C21.2544 18.1031 21.5044 11.673 14.5744 12.013C6.00436 12.423 3.22435 24.143 14.1344 26.013L21.2544 18.1031Z" fill="#383739"/>
<path d="M19.6044 19.0631C19.6337 18.5095 19.5399 17.9562 19.3297 17.4432C19.1196 16.9301 18.7982 16.4701 18.3889 16.0961C17.9796 15.7222 17.4924 15.4436 16.9625 15.2806C16.4326 15.1175 15.8731 15.074 15.3244 15.1531C9.82436 15.4231 8.03438 22.9431 15.0344 24.1531L19.6044 19.0631Z" fill="#231F20"/>
<path d="M46.2444 18.1031C46.2444 18.1031 45.9943 11.673 52.9143 12.013C61.4843 12.423 64.2744 24.143 53.3644 26.013L46.2444 18.1031Z" fill="#383739"/>
<path d="M47.8644 19.0632C47.8348 18.5085 47.9288 17.9543 48.1395 17.4404C48.3503 16.9265 48.6725 16.4658 49.083 16.0917C49.4935 15.7176 49.982 15.4393 50.5131 15.277C51.0443 15.1147 51.6049 15.0724 52.1544 15.1531C57.6544 15.4231 59.4444 22.9431 52.4344 24.1531L47.8644 19.0632Z" fill="#231F20"/>
<path d="M58.5444 33.963C58.5444 22.403 47.4444 13.043 33.7444 13.043C20.0444 13.043 8.95441 22.403 8.95441 33.963C8.97204 37.7725 10.1704 41.4828 12.3844 44.583C11.6917 45.2953 11.2889 46.2399 11.2544 47.233C11.2544 51.913 21.3244 55.713 33.7444 55.713C46.1644 55.713 56.2344 51.913 56.2344 47.233C56.1999 46.2399 55.7971 45.2953 55.1044 44.583C57.3214 41.4837 58.5232 37.7735 58.5444 33.963Z" fill="#EBEBEC"/>
<path d="M33.7444 54.433C21.8844 54.433 12.1744 50.973 11.3244 46.583C11.2813 46.7971 11.2579 47.0147 11.2544 47.233C11.2544 51.913 21.3244 55.713 33.7444 55.713C46.1644 55.713 56.2344 51.913 56.2344 47.233C56.2358 47.0144 56.2123 46.7963 56.1644 46.583C55.3144 50.973 45.6044 54.433 33.7444 54.433Z" fill="#C0C2C4"/>
<path d="M56.1644 46.5833C56.2074 46.376 56.2308 46.165 56.2344 45.9533C56.2239 45.2179 55.9903 44.503 55.5644 43.9033L55.1044 44.5833C55.6265 45.1459 55.9919 45.8355 56.1644 46.5833Z" fill="#EBEBEC"/>
<path d="M28.7943 25.8233C27.2451 25.3125 25.5808 25.2639 24.0044 25.6833C22.2725 26.0669 20.6187 26.7433 19.1144 27.6833C17.2483 28.8738 15.6784 30.4745 14.5244 32.3633C13.2144 34.5133 12.3544 37.3633 13.5244 39.7333C14.074 40.6983 14.8481 41.5166 15.7811 42.1189C16.7142 42.7212 17.7786 43.0897 18.8843 43.1933C21.0975 43.5081 23.3537 43.1198 25.3344 42.0833C27.2678 41.0488 28.8694 39.4888 29.9543 37.5833C31.044 35.6893 31.6068 33.5382 31.5844 31.3533C31.5789 30.2171 31.3898 29.0891 31.0244 28.0133C30.8467 27.4959 30.5718 27.0174 30.2144 26.6033C29.7908 26.2615 29.31 25.9974 28.7943 25.8233Z" fill="#383739"/>
<path d="M38.5143 25.8233C40.0635 25.3125 41.728 25.2639 43.3043 25.6833C45.0363 26.0669 46.69 26.7433 48.1943 27.6833C50.0634 28.8735 51.6365 30.474 52.7943 32.3633C54.1043 34.5133 54.9543 37.3633 53.7943 39.7333C53.2425 40.6985 52.4664 41.5168 51.5318 42.119C50.5972 42.7212 49.5313 43.0897 48.4243 43.1933C46.2112 43.5074 43.9552 43.1192 41.9743 42.0833C40.0436 41.0486 38.4453 39.4885 37.3643 37.5833C36.2635 35.6939 35.6999 33.5397 35.7343 31.3533C35.7364 30.2176 35.9221 29.0897 36.2844 28.0133C36.47 27.4996 36.7441 27.0224 37.0944 26.6033C37.5179 26.2615 37.9987 25.9974 38.5143 25.8233Z" fill="#383739"/>
<path d="M20.6944 46.7833C20.4787 46.787 20.2691 46.7124 20.1044 46.5732C19.9183 46.4175 19.8013 46.1946 19.7788 45.953C19.7563 45.7114 19.8302 45.4706 19.9844 45.2833C20.2144 45.0133 25.5844 38.6233 33.4244 38.3833C38.3344 38.2233 43.0644 40.5332 47.4744 45.2432C47.6376 45.4235 47.7238 45.6604 47.7145 45.9034C47.7052 46.1464 47.601 46.3761 47.4244 46.5432C47.3366 46.625 47.2334 46.6886 47.121 46.7304C47.0085 46.7721 46.8889 46.7913 46.769 46.7866C46.6491 46.782 46.5313 46.7536 46.4224 46.7033C46.3135 46.653 46.2156 46.5816 46.1344 46.4932C42.1344 42.1932 37.8444 40.0833 33.4744 40.2133C26.4744 40.4333 21.4744 46.3932 21.4044 46.4532C21.3176 46.5571 21.209 46.6405 21.0862 46.6975C20.9635 46.7546 20.8297 46.7839 20.6944 46.7833Z" fill="#C0C2C4"/>
<path d="M24.2744 38.1532C26.9198 38.1532 29.0644 36.0087 29.0644 33.3633C29.0644 30.7178 26.9198 28.5732 24.2744 28.5732C21.6289 28.5732 19.4844 30.7178 19.4844 33.3633C19.4844 36.0087 21.6289 38.1532 24.2744 38.1532Z" fill="white"/>
<path d="M24.2744 36.9334C26.2461 36.9334 27.8444 35.3351 27.8444 33.3635C27.8444 31.3918 26.2461 29.7935 24.2744 29.7935C22.3028 29.7935 20.7044 31.3918 20.7044 33.3635C20.7044 35.3351 22.3028 36.9334 24.2744 36.9334Z" fill="#62493E"/>
<path d="M27.2344 33.3633C27.2344 33.9566 27.0584 34.5367 26.7288 35.03C26.3991 35.5233 25.9306 35.9079 25.3824 36.1349C24.8342 36.362 24.2311 36.4214 23.6491 36.3056C23.0672 36.1899 22.5326 35.9042 22.1131 35.4846C21.6935 35.0651 21.4078 34.5305 21.292 33.9485C21.1763 33.3666 21.2357 32.7634 21.4627 32.2152C21.6898 31.6671 22.0743 31.1985 22.5677 30.8689C23.061 30.5392 23.641 30.3633 24.2344 30.3633C25.03 30.3633 25.7931 30.6794 26.3557 31.242C26.9183 31.8046 27.2344 32.5676 27.2344 33.3633Z" fill="#312017"/>
<path d="M23.1644 32.4633C23.4681 32.4633 23.7144 32.217 23.7144 31.9133C23.7144 31.6095 23.4681 31.3633 23.1644 31.3633C22.8606 31.3633 22.6144 31.6095 22.6144 31.9133C22.6144 32.217 22.8606 32.4633 23.1644 32.4633Z" fill="white"/>
<path d="M22.1744 33.5833C22.3622 33.5833 22.5144 33.4311 22.5144 33.2433C22.5144 33.0555 22.3622 32.9033 22.1744 32.9033C21.9866 32.9033 21.8344 33.0555 21.8344 33.2433C21.8344 33.4311 21.9866 33.5833 22.1744 33.5833Z" fill="white"/>
<path d="M43.2244 38.1532C45.8698 38.1532 48.0144 36.0087 48.0144 33.3633C48.0144 30.7178 45.8698 28.5732 43.2244 28.5732C40.5789 28.5732 38.4344 30.7178 38.4344 33.3633C38.4344 36.0087 40.5789 38.1532 43.2244 38.1532Z" fill="white"/>
<path d="M43.2244 36.9334C45.196 36.9334 46.7944 35.3351 46.7944 33.3635C46.7944 31.3918 45.196 29.7935 43.2244 29.7935C41.2527 29.7935 39.6544 31.3918 39.6544 33.3635C39.6544 35.3351 41.2527 36.9334 43.2244 36.9334Z" fill="#62493E"/>
<path d="M46.1844 33.3633C46.1844 33.9566 46.0084 34.5367 45.6788 35.03C45.3492 35.5233 44.8806 35.9079 44.3324 36.1349C43.7842 36.362 43.1811 36.4214 42.5991 36.3056C42.0172 36.1899 41.4826 35.9042 41.063 35.4846C40.6435 35.0651 40.3578 34.5305 40.242 33.9485C40.1263 33.3666 40.1857 32.7634 40.4127 32.2152C40.6398 31.6671 41.0243 31.1985 41.5177 30.8689C42.011 30.5392 42.591 30.3633 43.1844 30.3633C43.98 30.3633 44.7431 30.6794 45.3057 31.242C45.8683 31.8046 46.1844 32.5676 46.1844 33.3633Z" fill="#312017"/>
<path d="M42.6644 31.913C42.6749 31.9908 42.6688 32.0699 42.6462 32.1451C42.6236 32.2202 42.5853 32.2897 42.5337 32.3488C42.482 32.4079 42.4183 32.4553 42.3469 32.4878C42.2754 32.5202 42.1979 32.537 42.1194 32.537C42.0409 32.537 41.9633 32.5202 41.8919 32.4878C41.8204 32.4553 41.7568 32.4079 41.7052 32.3488C41.6535 32.2897 41.6152 32.2202 41.5926 32.1451C41.5701 32.0699 41.5638 31.9908 41.5744 31.913C41.5923 31.7812 41.6574 31.6603 41.7576 31.5728C41.8578 31.4852 41.9864 31.437 42.1194 31.437C42.2525 31.437 42.381 31.4852 42.4812 31.5728C42.5814 31.6603 42.6465 31.7812 42.6644 31.913Z" fill="white"/>
<path d="M41.4743 33.2431C41.4717 33.3342 41.4337 33.4206 41.3684 33.4841C41.303 33.5476 41.2155 33.5831 41.1244 33.5831C41.0342 33.5831 40.9477 33.5473 40.8839 33.4835C40.8202 33.4197 40.7844 33.3332 40.7844 33.2431C40.7843 33.152 40.8198 33.0644 40.8833 32.9991C40.9468 32.9337 41.0333 32.8957 41.1244 32.8931C41.1703 32.8931 41.2158 32.9021 41.2583 32.9197C41.3008 32.9373 41.3393 32.9631 41.3718 32.9956C41.4043 33.0281 41.4301 33.0667 41.4477 33.1091C41.4653 33.1516 41.4743 33.1971 41.4743 33.2431Z" fill="white"/>
<path d="M21.2744 25.313C21.197 25.3132 21.121 25.2925 21.0544 25.253C20.9676 25.1941 20.9074 25.1034 20.8869 25.0005C20.8663 24.8976 20.8869 24.7908 20.9444 24.703C21.4439 24.0124 22.1839 23.5339 23.0187 23.3618C23.8535 23.1896 24.7224 23.3363 25.4544 23.773C25.5321 23.8297 25.5868 23.9124 25.6085 24.0061C25.6302 24.0998 25.6174 24.1982 25.5724 24.2832C25.5275 24.3682 25.4534 24.4342 25.3638 24.4691C25.2742 24.5039 25.175 24.5053 25.0844 24.473C24.5292 24.1167 23.8582 23.9876 23.2104 24.1123C22.5626 24.237 21.9876 24.606 21.6044 25.143C21.5672 25.1959 21.5178 25.239 21.4603 25.2686C21.4028 25.2982 21.3391 25.3135 21.2744 25.313Z" fill="#9FA1A4"/>
<path d="M46.2244 25.313C46.1596 25.3143 46.0955 25.2995 46.0378 25.2698C45.9802 25.2401 45.9309 25.1965 45.8944 25.143C45.5078 24.6073 44.9312 24.2396 44.2824 24.115C43.6337 23.9905 42.9618 24.1185 42.4044 24.473C42.3116 24.5207 42.2036 24.5296 42.1042 24.4977C42.0048 24.4659 41.9221 24.3958 41.8744 24.303C41.8267 24.2102 41.8177 24.1022 41.8496 24.0028C41.8815 23.9034 41.9516 23.8207 42.0444 23.773C42.7742 23.3346 43.6422 23.1869 44.476 23.3592C45.3097 23.5315 46.0481 24.0112 46.5444 24.703C46.6018 24.7908 46.6225 24.8976 46.6019 25.0005C46.5814 25.1034 46.5212 25.1941 46.4344 25.253C46.3715 25.2926 46.2987 25.3134 46.2244 25.313Z" fill="#9FA1A4"/>
<path d="M33.7444 48.2132C33.6754 48.2132 33.6093 48.1858 33.5605 48.137C33.5118 48.0883 33.4844 48.0221 33.4844 47.9532V44.2632C33.4843 44.1932 33.5114 44.126 33.5599 44.0757C33.6084 44.0253 33.6745 43.9958 33.7444 43.9932C33.7794 43.9931 33.814 44.0002 33.8463 44.0139C33.8785 44.0275 33.9076 44.0476 33.9319 44.0728C33.9561 44.098 33.9751 44.1279 33.9875 44.1606C34 44.1933 34.0057 44.2282 34.0044 44.2632V47.9532C34.0058 47.9877 34 48.0221 33.9875 48.0543C33.9749 48.0865 33.9558 48.1157 33.9314 48.1401C33.9069 48.1646 33.8777 48.1837 33.8455 48.1963C33.8133 48.2088 33.7789 48.2146 33.7444 48.2132Z" fill="#C9CACC"/>
<path d="M30.3644 51.1233C29.68 51.132 29.0108 50.9218 28.4544 50.5233C27.8811 50.1565 27.4716 49.5825 27.3113 48.921C27.1511 48.2595 27.2525 47.5618 27.5944 46.9733C27.6108 46.9424 27.6336 46.9153 27.6611 46.8938C27.6887 46.8723 27.7205 46.8568 27.7544 46.8483C27.7883 46.8398 27.8236 46.8385 27.8581 46.8446C27.8925 46.8506 27.9253 46.8638 27.9544 46.8833C27.9833 46.9016 28.0084 46.9254 28.0281 46.9535C28.0479 46.9815 28.0618 47.0132 28.0692 47.0466C28.0767 47.0801 28.0774 47.1147 28.0714 47.1484C28.0655 47.1822 28.0529 47.2144 28.0344 47.2433C27.7606 47.7214 27.6836 48.2873 27.8199 48.8212C27.9562 49.355 28.2949 49.8149 28.7644 50.1033C29.2103 50.4052 29.7305 50.5789 30.2684 50.6053C30.8062 50.6318 31.341 50.51 31.8144 50.2533C32.3119 50.019 32.7327 49.6485 33.0283 49.1848C33.3239 48.7211 33.482 48.1832 33.4844 47.6333C33.4843 47.5634 33.5114 47.4962 33.5599 47.4458C33.6084 47.3955 33.6745 47.3659 33.7444 47.3633C33.7794 47.3632 33.814 47.3703 33.8463 47.384C33.8785 47.3977 33.9076 47.4177 33.9319 47.4429C33.9561 47.4681 33.9751 47.498 33.9876 47.5307C34 47.5634 34.0057 47.5983 34.0044 47.6333C34.0036 48.2798 33.8201 48.9128 33.4751 49.4596C33.1301 50.0063 32.6376 50.4443 32.0544 50.7233C31.5297 50.986 30.9511 51.1229 30.3644 51.1233Z" fill="#C9CACC"/>
<path d="M37.1244 51.1233C36.5409 51.1228 35.9655 50.9859 35.4444 50.7233C34.8511 50.4525 34.3476 50.0178 33.9933 49.4703C33.6389 48.9228 33.4485 48.2854 33.4444 47.6333C33.4443 47.5634 33.4714 47.4962 33.5199 47.4458C33.5684 47.3955 33.6345 47.3659 33.7044 47.3633C33.7394 47.3632 33.7741 47.3703 33.8063 47.384C33.8385 47.3977 33.8676 47.4177 33.8919 47.4429C33.9162 47.4681 33.9351 47.498 33.9476 47.5307C33.96 47.5634 33.9658 47.5983 33.9644 47.6333C33.9851 48.1735 34.148 48.6986 34.4368 49.1556C34.7255 49.6126 35.1298 49.9852 35.6087 50.2359C36.0877 50.4865 36.6243 50.6062 37.1644 50.583C37.7045 50.5597 38.2288 50.3942 38.6844 50.1033C39.1539 49.8149 39.4926 49.355 39.6289 48.8212C39.7652 48.2873 39.6882 47.7214 39.4144 47.2433C39.3805 47.1831 39.371 47.1123 39.3878 47.0454C39.4045 46.9784 39.4463 46.9204 39.5044 46.8833C39.5335 46.8638 39.5663 46.8506 39.6007 46.8446C39.6352 46.8385 39.6705 46.8398 39.7044 46.8483C39.7383 46.8568 39.7701 46.8723 39.7977 46.8938C39.8252 46.9153 39.848 46.9424 39.8644 46.9733C40.2038 47.5624 40.3038 48.2594 40.1437 48.9201C39.9837 49.5809 39.5758 50.1548 39.0044 50.5233C38.4554 50.9139 37.7982 51.1236 37.1244 51.1233Z" fill="#C9CACC"/>
<path d="M37.8644 43.4333C37.0525 43.1045 36.1794 42.9545 35.3044 42.9933H32.2444C31.3693 42.9545 30.4962 43.1045 29.6844 43.4333C28.0044 44.5033 30.8144 45.6233 33.6844 45.6933H33.8644C36.7044 45.6233 39.5144 44.5033 37.8644 43.4333Z" fill="#383739"/>
</svg>
